<svg width="286" height="51" viewBox="0 0 286 51" fill="none" xmlns="http://www.w3.org/2000/svg">
<g clip-path="url(#clip0)">
<path d="M51.4262 48.0666C47.5614 47.1808 44.552 45.2598 41.2775 41.788C37.6737 37.977 24.8095 22.0747 24.8095 22.0747L45.3262 1.70572H34.2281L15.5 20.8581C14.6792 21.691 14.1989 22.2359 13.7796 22.7792H13.6744C13.7033 22.1385 13.7274 21.4626 13.7274 20.8027V5.48734C13.7274 3.40509 12.1082 1.70572 10.1108 1.70572H2.8518H0.395728C-0.0652876 1.70572 -0.124722 2.2246 0.22385 2.39168C1.69605 3.09695 2.8518 3.92398 2.8518 6.67371V48.4999H13.7274V26.942C13.7274 26.3937 13.7033 25.9663 13.6744 25.3425H13.7796C14.1523 25.9798 14.8029 26.7136 15.5 27.6002C15.5 27.6002 26.929 41.6511 28.1434 42.9735C32.9872 48.2757 39.7716 50.148 51.374 48.9793C51.9997 48.9121 52.0061 48.2077 51.4262 48.0666Z" fill="#7B8899"/>
<path d="M72.5547 45.4256C63.548 45.4256 58.4054 36.2159 58.4054 25.6997C58.4054 13.5925 63.548 4.78329 72.5547 4.78329C81.5541 4.78329 86.6968 13.9888 86.6968 24.5083C86.6968 36.9388 81.5541 45.4256 72.5547 45.4256ZM72.5547 1.14441e-05C57.4553 1.14441e-05 46.3186 10.9922 46.3186 25.1086C46.3186 39.2116 56.5734 50.2105 72.5547 50.2105C87.6477 50.2105 98.782 39.2116 98.782 25.1086C98.782 10.9922 88.5296 1.14441e-05 72.5547 1.14441e-05Z" fill="#7B8899"/>
<path d="M265.096 48.4999L258.406 5.8031C258.064 3.66461 256.178 1.70579 253.836 1.70579H247.567L236.593 28.3459C236.083 29.5448 235.76 30.4768 235.522 31.1762H235.463C235.238 30.4407 234.92 29.5683 234.477 28.4928L224.789 4.73932H224.783C224.08 3.04162 222.462 1.70579 220.44 1.70579H210.826C210.358 1.70579 210.305 2.22467 210.654 2.39176C211.965 3.01559 212.905 4.00969 212.509 6.636L205.937 48.4999H212.867L217.237 18.9733C217.449 17.4645 217.697 15.6316 217.78 14.7047H217.833C218.266 15.9213 218.82 17.3788 219.447 18.886L231.515 48.4999H235.096L247.307 18.3671C248.014 16.5762 248.483 15.3168 248.807 14.3588H248.867C249.001 15.5099 249.221 17.268 249.48 19.0362L254.002 48.4999H265.096Z" fill="#7B8899"/>
<path d="M281.542 1.70589H271.384C270.913 1.70589 270.863 2.22477 271.213 2.39185C272.686 3.09713 273.841 3.92414 273.841 6.67387V48.5H285.158V5.48666C285.158 3.40526 283.539 1.70589 281.542 1.70589Z" fill="#7B8899"/>
<path d="M142.161 1.70589V28.4568C142.161 29.7674 142.219 30.5944 142.272 31.7674H142.161C141.297 30.5029 140.339 29.1973 138.934 27.4694L119.692 4.20709C118.183 2.40528 116.978 1.71177 114.217 1.70589H104.437C103.978 1.70589 103.925 2.22477 104.272 2.39185C105.749 3.09713 106.902 3.92414 106.902 6.67387V48.5H114.217V18.4167C114.217 16.7988 114.158 15.5511 114.112 14.2111H114.217C115.565 16.1128 117.427 18.6258 118.928 20.4427L142.019 48.5H145.866C147.865 48.5 149.482 46.8032 149.482 44.7167V1.70589H142.161Z" fill="#7B8899"/>
<path d="M168.318 32.0639L175.327 15.9349C175.67 15.118 175.975 14.3883 176.082 13.9946H176.194C176.332 14.4622 176.627 15.175 176.951 15.9634L183.777 32.0639H168.318ZM190.74 48.5001H203.063L183.612 4.59173C182.901 3.00402 181.359 1.70598 179.351 1.70598H170.845C170.374 1.70598 170.33 2.21394 170.676 2.39194C171.716 2.93601 172.436 4.7395 171.681 6.42125L152.866 48.5001H161.184L165.858 37.7229H186.175L190.74 48.5001Z" fill="#7B8899"/>
</g>
<defs>
<clipPath id="clip0">
<rect width="285.158" height="50.2105" fill="white"/>
</clipPath>
</defs>
</svg>
