<svg width="230" height="70" viewBox="0 0 230 70" fill="none" xmlns="http://www.w3.org/2000/svg">
<g clip-path="url(#clip0)">
<path d="M42.0928 32.8027L44.5746 24.1983H56.0886C62.1507 24.1983 65.8124 21.4514 67.5212 15.6748L68.457 12.4835C70.6133 5.13145 67.1144 0.566705 59.4655 0.566705H9.42225L0.105255 32.8027H42.0928ZM59.3841 9.21144L57.4312 16.2403H46.8937L48.8872 9.25184H59.3841V9.21144ZM72.729 32.8027L75.8211 27.3896H90.061V32.8027H99.4187V0.526306H81.0288L61.8659 32.8027H72.729ZM86.1959 9.29224H90.061V19.5528H80.2965L86.1959 9.29224ZM137.622 15.3516L138.477 12.4431C140.633 5.01026 137.134 0.526306 129.485 0.526306H111.706L102.389 32.8027H112.113L114.676 23.9156H120.738L123.505 32.8027H133.513L130.584 23.3096C134.083 22.2593 136.402 19.5932 137.622 15.3516ZM118.866 9.21144H129.363L127.41 16.1999H116.873L118.866 9.21144ZM146.736 32.8027L156.053 0.526306H146.288L137.012 32.8027H146.736ZM87.0503 37.3674L76.0652 50.2537L71.5491 37.3674H29.3989L20.1226 69.6842H62.1507L67.2771 51.8292L70.6947 61.807H76.9603L86.0332 51.1828L80.6627 69.6842H90.3865L99.6628 37.3674H87.0503ZM112.723 37.3674L93.5193 69.6438H104.382L107.474 64.2308H121.714V69.6438H131.072V37.4078L112.723 37.3674ZM111.991 56.4747L117.849 46.2141H121.714V56.4747H111.991ZM164.027 46.6181L166.672 37.3674H137.094L134.449 46.6181H145.149L138.477 69.6842H148.201L154.873 46.6181H164.027ZM177.006 46.6181H191.775L194.46 37.4078H178.715C172.653 37.4078 168.991 40.1547 167.282 45.9314L163.824 57.727C161.627 65.281 165.167 69.6438 172.815 69.6438H185.062L187.706 60.4335H172.938L177.006 46.6181ZM219.645 37.3674L216.308 48.9207H205.16L208.456 37.3674H198.732L189.456 69.6842H199.18L202.475 58.131H213.623L210.328 69.6842H220.092L229.368 37.3674H219.645Z" fill="#7B8899"/>
</g>
<defs>
<clipPath id="clip0">
<rect width="229.263" height="69.1579" fill="white" transform="translate(0.105255 0.526306)"/>
</clipPath>
</defs>
</svg>
