<svg width="182" height="88" viewBox="0 0 182 88" fill="none" xmlns="http://www.w3.org/2000/svg">
<g clip-path="url(#clip0)">
<path d="M88.3393 87.0339C83.6811 86.391 78.9147 83.7562 76.1006 80.2684L75.0252 78.9356L74.5136 79.5839C74.1126 80.092 73.7442 80.2674 72.8099 80.3948C72.1543 80.4843 70.8838 80.849 69.9866 81.2053C69.0877 81.5622 67.9227 81.8531 67.3919 81.8531C66.5637 81.8531 66.3138 81.7298 65.6104 80.9741C65.1604 80.4907 64.5428 80.0594 64.238 80.0158C63.869 79.9629 63.4762 79.5972 63.0627 78.9217C61.9169 77.0497 62.3101 76.3513 64.5436 76.2913C66.6791 76.2339 67.6857 75.8756 66.9603 75.4309C66.6322 75.2299 59.4317 75.1746 58.7383 75.3678C58.3519 75.4754 57.9997 75.8348 57.7437 76.3825C57.1938 77.5591 56.5742 78.1769 55.2469 78.8721C54.2237 79.408 53.8886 79.4648 51.973 79.4267C49.9698 79.3868 49.7955 79.4205 49.1309 79.9763C48.1571 80.7908 47.0957 81.1952 46.3303 81.0434C45.7858 80.9354 45.5555 81.0615 44.8266 81.8668L43.9659 82.8176L42.4429 82.6792C41.6052 82.603 40.7724 82.6323 40.5922 82.7442C40.2317 82.968 39.2619 82.5657 38.7832 81.9937C38.552 81.7174 38.5904 81.4037 38.988 80.3223C39.379 79.2587 39.7536 78.75 40.8517 77.7914C42.352 76.4817 43.1741 76.2734 43.9821 76.9986C44.5282 77.4887 44.9965 77.2136 45.2343 76.2629C45.4958 75.2181 46.2274 74.6374 47.2823 74.6374C47.7993 74.6374 48.4126 74.4994 48.6453 74.3307C49.0202 74.0588 49.0394 73.9116 48.8141 73.0341C48.6743 72.4897 48.4969 71.6532 48.4198 71.1752L48.2798 70.3062L47.2663 70.457C45.0014 70.7938 42.8028 69.5189 42.0631 67.4398C41.4353 65.6752 42.0659 63.9288 43.9678 62.1644C44.6048 61.5734 45.1261 61.0565 45.1261 61.0157C45.1261 60.9749 44.767 60.8837 44.3282 60.813C43.3254 60.6517 42.2648 59.9137 41.8259 59.072C41.3982 58.2517 41.3909 56.8163 41.8115 56.2466C42.1272 55.819 42.1686 55.8255 43.6036 56.5266C44.4115 56.9213 45.4683 57.3153 45.952 57.4023C47.8769 57.7483 48.7691 58.6026 48.7559 60.087C48.745 61.3103 48.3505 61.9397 46.9106 63.0308C44.7798 64.6455 44.1269 66.2052 45.1551 67.2249C45.5698 67.6362 45.8234 67.688 46.9336 67.5882C48.3163 67.4638 49.8836 66.8001 50.8102 65.9465C51.8253 65.0114 53.9637 64.0393 55.0057 64.0393C56.3375 64.0393 57.3671 63.6508 58.3599 62.7737C59.4848 61.7798 60.8566 61.1087 61.7716 61.1046C62.5901 61.101 62.9963 60.9058 64.4348 59.8249C64.9613 59.4293 66.335 58.7941 67.4874 58.4134C68.6398 58.0326 69.9589 57.4676 70.4186 57.1578C71.6157 56.351 73.3156 55.9998 74.3977 56.3356L75.252 56.6008L76.4468 55.2696C78.9521 52.4782 82.4749 50.3358 86.1655 49.3593C88.3537 48.7804 92.8926 48.6637 95.0328 49.1314C97.1851 49.6017 99.7588 50.6679 101.56 51.8355C103.154 52.8689 105.736 55.2222 106.433 56.2771C106.742 56.7442 106.816 56.7589 107.38 56.4668C108.467 55.9043 110.27 56.2014 111.727 57.183C112.166 57.4789 113.468 58.0326 114.62 58.4134C115.773 58.7941 117.146 59.4293 117.673 59.8249C119.111 60.9058 119.518 61.101 120.336 61.1046C121.251 61.1087 122.623 61.7798 123.748 62.7737C124.741 63.6508 125.77 64.0393 127.102 64.0393C128.144 64.0393 130.282 65.0114 131.298 65.9465C132.224 66.8001 133.791 67.4638 135.174 67.5882C136.284 67.688 136.538 67.6362 136.953 67.2249C137.981 66.2052 137.328 64.6455 135.197 63.0308C133.757 61.9397 133.363 61.3103 133.352 60.087C133.339 58.6026 134.231 57.7483 136.156 57.4023C136.639 57.3153 137.696 56.9213 138.504 56.5266C139.939 55.8255 139.981 55.819 140.296 56.2466C140.717 56.8163 140.71 58.2517 140.282 59.072C139.843 59.9137 138.782 60.6517 137.78 60.813C137.341 60.8837 136.982 60.9768 136.982 61.0201C136.982 61.0633 137.449 61.5262 138.021 62.0487C139.973 63.8332 140.669 65.6862 140.045 67.4398C139.305 69.5189 137.106 70.7938 134.841 70.457L133.828 70.3062L133.688 71.1752C133.611 71.6532 133.433 72.4897 133.294 73.0341C133.068 73.9116 133.088 74.0588 133.463 74.3307C133.695 74.4994 134.308 74.6374 134.826 74.6374C135.88 74.6374 136.612 75.2181 136.873 76.2629C137.111 77.2136 137.58 77.4887 138.126 76.9986C138.934 76.2734 139.756 76.4817 141.256 77.7914C142.354 78.75 142.729 79.2587 143.12 80.3223C143.517 81.4037 143.556 81.7174 143.325 81.9937C142.846 82.5657 141.876 82.968 141.516 82.7442C141.335 82.6323 140.503 82.603 139.665 82.6792L138.142 82.8176L137.281 81.8668C136.552 81.0615 136.322 80.9354 135.777 81.0434C135.012 81.1952 133.951 80.7908 132.977 79.9763C132.312 79.4205 132.138 79.3868 130.135 79.4267C128.219 79.4648 127.884 79.408 126.861 78.8721C125.534 78.1769 124.914 77.5591 124.364 76.3825C124.108 75.8348 123.756 75.4754 123.37 75.3678C122.676 75.1746 115.476 75.2299 115.147 75.4309C114.422 75.8756 115.429 76.2339 117.564 76.2913C119 76.3299 119.706 76.6686 119.697 77.3145C119.694 77.5163 119.412 78.1889 119.071 78.809C118.624 79.6227 118.293 79.9585 117.883 80.0158C117.571 80.0594 116.947 80.4907 116.497 80.9741C115.796 81.7277 115.543 81.8531 114.723 81.8531C114.198 81.8531 112.98 81.5548 112.017 81.1902C111.054 80.8256 109.783 80.4646 109.193 80.3881C108.364 80.2806 107.998 80.0953 107.587 79.5746L107.055 78.9002L106.046 80.1702C103.807 82.9887 99.606 85.6591 95.9547 86.5852C93.9115 87.1035 90.3596 87.3127 88.3393 87.0339Z" fill="#383E46"/>
<path d="M41.7482 82.1033C41.1966 81.7566 41.6612 80.5168 42.5341 80.006C42.9593 79.7572 43.3072 79.467 43.3072 79.3612C43.3072 79.2554 43.7688 78.8539 44.333 78.4689C44.9843 78.0245 45.5625 77.3701 45.917 76.6763C46.4492 75.6348 46.5295 75.5763 47.6341 75.4256C48.3301 75.3307 49.0335 75.0623 49.3955 74.7535C49.9456 74.2842 49.9732 74.185 49.7117 73.6158C49.5541 73.2728 49.3361 72.2884 49.2272 71.4283C49.1183 70.5681 48.9923 69.8278 48.9472 69.7831C48.9021 69.7384 48.3053 69.7756 47.621 69.8657C45.1636 70.1894 43.8096 69.6153 42.9093 67.868C41.9392 65.9851 42.4115 64.6515 44.8084 62.506C46.5583 60.9397 46.5941 60.5525 45.0058 60.375C43.7057 60.2297 42.8775 59.6646 42.3131 58.5377C41.9767 57.8662 41.9389 57.5757 42.1329 57.1535L42.3784 56.6191L43.4474 57.2117C44.0354 57.5376 45.0352 57.8856 45.6692 57.985C48.3766 58.4095 49.1553 60.4653 47.2264 62.0959C44.8358 64.1168 44.2008 64.835 44.0664 65.6704C43.7628 67.5585 44.9806 68.6969 47.075 68.4826C48.4515 68.3417 49.3318 67.9383 50.9746 66.6959C52.349 65.6565 54.4745 64.7289 55.4995 64.7211C56.623 64.7127 58.13 64.0858 58.9954 63.2671C60.061 62.2589 60.6133 62.0038 62.2171 61.779C63.3463 61.6207 63.7372 61.4386 64.5579 60.6883C65.2744 60.0333 65.9882 59.6562 67.1749 59.3057C68.0723 59.0406 69.571 58.4245 70.5054 57.9364C72.3929 56.9505 73.7221 56.7894 75.0013 57.3915C76.1814 57.9468 80.4653 61.4363 81.4129 62.614C81.894 63.2119 82.6185 64.077 83.0231 64.5365C84.1125 65.774 84.7068 67.0831 84.9366 68.752C85.2237 70.8374 86.2306 73.8856 86.852 74.5506C87.1394 74.8581 87.5442 75.4643 87.7515 75.8977C87.9589 76.3312 88.544 76.9842 89.0516 77.3489C89.7786 77.8712 89.896 78.0419 89.6043 78.1529C89.0127 78.378 88.0839 78.0453 87.5595 77.4204C86.158 75.7507 85.522 75.0877 85.4192 75.1897C85.3564 75.252 85.4317 75.4544 85.5866 75.6395C85.7415 75.8246 85.9943 76.4105 86.1485 76.9415C86.3695 77.7029 86.6506 78.05 87.4784 78.5835C88.7105 79.3774 88.7982 79.5982 87.8815 79.5982C87.0144 79.5982 86.125 79.2097 85.1914 78.4233C84.3061 77.6776 84.1753 77.6633 83.3711 78.2232C82.9533 78.5141 82.2063 78.69 81.0499 78.7697C80.112 78.8343 78.9642 79.0472 78.4993 79.2427C77.4306 79.6921 76.8574 79.6924 76.4051 79.2438C75.945 78.7875 75.9492 77.9276 76.415 77.2226C76.7648 76.6932 76.7597 76.6668 76.3085 76.6668C75.7371 76.6668 75.8536 76.1664 76.6236 75.3138C76.9036 75.0038 77.3005 74.4203 77.5056 74.0173L77.8784 73.2844H76.9664C76.4648 73.2844 75.5957 73.4061 75.0352 73.5547C74.4747 73.7034 73.9483 73.7578 73.8654 73.6756C73.7825 73.5933 73.8932 73.1529 74.1114 72.6968C74.6119 71.6509 74.8664 69.9889 74.4909 70.2191C74.3468 70.3074 74.2289 70.6121 74.2289 70.8962C74.2289 71.1804 73.9213 71.8339 73.5454 72.3486C73.0036 73.0904 72.7193 73.2844 72.174 73.2844C71.4101 73.2844 71.0629 73.7948 71.4251 74.3854C72.7275 76.5089 72.9516 77.144 72.7123 78.033C72.4467 79.0199 72.6524 79.1858 73.1929 78.4205C73.7162 77.6796 73.6275 76.8802 72.8647 75.4626C72.4895 74.7654 72.1826 74.1355 72.1826 74.0629C72.1826 73.9903 72.4608 73.9631 72.8009 74.0023C73.7276 74.1092 74.7973 75.788 74.7973 77.1353C74.7973 78.5276 73.8939 79.7391 72.6898 79.9615C72.2233 80.0477 70.9783 80.4071 69.9231 80.7602C67.3598 81.6179 66.9436 81.5961 66.0292 80.5565C65.6201 80.0914 65.0868 79.659 64.8441 79.5955C64.3754 79.473 62.9244 77.6558 63.1314 77.4506C63.1986 77.3838 63.7664 77.269 64.393 77.1954C65.6272 77.0505 65.5092 76.9795 66.9807 78.7526C67.47 79.3422 67.8645 79.5979 68.2841 79.5973C68.9725 79.5963 70.3177 78.8519 70.5048 78.3683C70.7108 77.836 69.9572 76.838 68.6309 75.8867C67.9463 75.3956 67.1608 74.6346 66.8855 74.1955L66.3848 73.3972L66.2711 74.1864L66.1574 74.9756L65.0206 74.915C64.3953 74.8817 62.656 74.8177 61.1554 74.7729C59.6548 74.728 58.2939 74.6792 58.1312 74.6644C57.6129 74.6171 57.1223 73.0761 57.2843 72.0045C57.3714 71.4285 57.3421 71.0295 57.2128 71.0295C57.0923 71.0295 56.9227 71.6367 56.8359 72.3787C56.4741 75.4706 55.0835 76.7072 51.4924 77.1304C50.3044 77.2703 48.9138 77.5354 48.4022 77.7193C47.4579 78.0587 46.263 78.9874 46.263 79.3818C46.263 79.6965 46.5159 79.6468 46.8063 79.275C46.9452 79.0972 47.56 78.6913 48.1726 78.373C49.0979 77.8922 49.5937 77.7942 51.102 77.7942C53.6581 77.7942 54.5689 77.4703 55.9632 76.0655C56.8264 75.1957 57.196 74.9545 57.359 75.1545C57.6406 75.5 56.5741 77.5339 55.927 77.8858C55.6774 78.0215 55.1658 78.3354 54.7901 78.5835C54.2043 78.9703 53.7902 79.026 51.8802 78.9754L49.6532 78.9163L48.6075 79.7082C47.7284 80.3739 47.3776 80.5001 46.4058 80.5001C45.3472 80.5001 45.1797 80.5762 44.4184 81.4021C43.7613 82.1151 43.4268 82.3033 42.8219 82.3006C42.4011 82.2987 41.9179 82.2099 41.7482 82.1033ZM81.6316 76.7947C81.9754 76.5431 82.0127 76.411 81.8005 76.1975C81.5867 75.9824 81.4012 76.0056 80.9406 76.3049C80.3642 76.6795 80.3456 77.1178 80.9061 77.1178C81.0624 77.1178 81.3889 76.9724 81.6316 76.7947ZM83.7782 71.8597C83.7782 71.0601 82.56 69.2256 82.029 69.2256C81.8707 69.2256 81.5324 69.6315 81.2772 70.1276C80.7892 71.0762 80.8688 71.2619 81.5149 70.682C81.8669 70.3661 81.9668 70.3884 82.6128 70.9275C83.047 71.2898 83.3235 71.7321 83.3235 72.0643C83.3235 72.3633 83.4258 72.6079 83.5509 72.6079C83.6759 72.6079 83.7782 72.2712 83.7782 71.8597ZM74.9026 63.7751C74.6687 62.9349 74.105 62.283 73.8399 62.546C73.757 62.6282 73.9386 63.1944 74.2433 63.8043C74.8623 65.0433 75.2509 65.026 74.9026 63.7751ZM137.689 81.4021C136.928 80.5762 136.761 80.5001 135.702 80.5001C134.73 80.5001 134.379 80.3739 133.5 79.7082L132.455 78.9163L130.228 78.9754C128.318 79.026 127.904 78.9703 127.318 78.5835C126.942 78.3354 126.43 78.0215 126.181 77.8858C125.534 77.5339 124.467 75.5 124.749 75.1545C124.912 74.9545 125.281 75.1957 126.145 76.0655C127.534 77.4657 128.451 77.7942 130.968 77.7942C132.834 77.7942 134.09 78.2041 135.109 79.1462C135.65 79.6455 135.845 79.708 135.845 79.3818C135.845 78.9874 134.65 78.0587 133.706 77.7193C133.194 77.5354 131.817 77.2702 130.646 77.13C126.861 76.6769 125.68 75.6221 125.268 72.3261C125.179 71.613 125.01 71.0295 124.891 71.0295C124.766 71.0295 124.738 71.4389 124.824 72.0045C124.986 73.0761 124.495 74.6171 123.977 74.6644C123.814 74.6792 122.453 74.728 120.952 74.7729C119.452 74.8177 117.712 74.8817 117.087 74.915L115.95 74.9756L115.837 74.1864L115.723 73.3972L115.222 74.1955C114.947 74.6346 114.162 75.3956 113.477 75.8867C112.151 76.838 111.397 77.836 111.603 78.3683C111.79 78.8519 113.135 79.5963 113.824 79.5973C114.243 79.5979 114.638 79.3422 115.127 78.7526C116.599 76.9795 116.481 77.0505 117.715 77.1954C118.341 77.269 118.909 77.3838 118.976 77.4506C119.183 77.6558 117.732 79.473 117.264 79.5955C117.021 79.659 116.488 80.0914 116.079 80.5565C115.164 81.5961 114.748 81.6179 112.185 80.7602C111.13 80.4071 109.885 80.0477 109.418 79.9615C108.214 79.7391 107.311 78.5276 107.311 77.1353C107.311 75.788 108.38 74.1092 109.307 74.0023C109.647 73.9631 109.925 73.9903 109.925 74.0629C109.925 74.1355 109.618 74.7654 109.243 75.4626C108.48 76.8802 108.392 77.6796 108.915 78.4205C109.459 79.1912 109.661 79.0176 109.39 78.0111C109.219 77.3769 109.217 76.9834 109.382 76.7146C110.294 75.2299 110.873 73.9335 110.757 73.6353C110.676 73.4248 110.346 73.2844 109.934 73.2844C109.389 73.2844 109.104 73.0904 108.562 72.3486C108.187 71.8339 107.879 71.1804 107.879 70.8962C107.879 70.6121 107.761 70.3074 107.617 70.2191C107.241 69.9889 107.496 71.6509 107.996 72.6968C108.215 73.1529 108.325 73.5933 108.242 73.6756C108.16 73.7578 107.633 73.7034 107.073 73.5547C106.512 73.4061 105.643 73.2844 105.141 73.2844H104.229L104.602 74.0173C104.807 74.4203 105.204 75.0038 105.484 75.3138C106.254 76.1664 106.371 76.6668 105.799 76.6668C105.348 76.6668 105.343 76.6932 105.693 77.2226C106.159 77.9276 106.163 78.7875 105.703 79.2438C105.25 79.6924 104.677 79.6921 103.609 79.2427C103.144 79.0472 101.996 78.8343 101.058 78.7697C99.9015 78.69 99.1545 78.5141 98.7367 78.2232C97.9326 77.6633 97.8018 77.6776 96.9165 78.4233C95.9829 79.2097 95.0934 79.5982 94.2263 79.5982C93.3097 79.5982 93.3974 79.3774 94.6294 78.5835C95.4573 78.05 95.7384 77.7029 95.9594 76.9415C96.1135 76.4105 96.3663 75.8246 96.5212 75.6395C96.6761 75.4544 96.7515 75.252 96.6887 75.1897C96.5858 75.0877 95.9498 75.7507 94.5484 77.4204C94.0239 78.0453 93.0951 78.378 92.5036 78.1529C92.2119 78.0419 92.3292 77.8712 93.0562 77.3489C93.5639 76.9842 94.1489 76.3312 94.3563 75.8977C94.5637 75.4643 94.9685 74.8581 95.2559 74.5506C95.8772 73.8856 96.8841 70.8374 97.1713 68.752C97.4011 67.0831 97.9953 65.774 99.0848 64.5365C99.4893 64.077 100.214 63.2119 100.695 62.614C101.643 61.4363 105.926 57.9468 107.107 57.3915C108.386 56.7894 109.715 56.9505 111.602 57.9364C112.537 58.4245 114.036 59.0406 114.933 59.3057C116.12 59.6562 116.833 60.0333 117.55 60.6883C118.369 61.4373 118.762 61.6208 119.884 61.778C121.468 62.0001 122.298 62.3894 123.206 63.3367C123.891 64.0508 125.211 64.5711 126.968 64.8187C128.32 65.0092 129.775 65.6693 131.172 66.7257C132.776 67.938 133.665 68.3425 135.033 68.4826C137.127 68.6969 138.345 67.5585 138.041 65.6704C137.907 64.835 137.272 64.1168 134.881 62.0959C132.953 60.4653 133.731 58.4095 136.439 57.985C137.073 57.8856 138.072 57.5376 138.66 57.2117L139.729 56.6191L139.975 57.1535C140.169 57.5757 140.131 57.8662 139.795 58.5377C139.23 59.6646 138.402 60.2297 137.102 60.375C135.514 60.5525 135.55 60.9397 137.299 62.506C139.696 64.6515 140.169 65.9851 139.199 67.868C138.298 69.6153 136.944 70.1894 134.487 69.8657C133.803 69.7756 133.206 69.7384 133.161 69.7831C133.116 69.8278 132.99 70.5681 132.881 71.4283C132.772 72.2884 132.554 73.2728 132.396 73.6158C132.135 74.185 132.162 74.2842 132.712 74.7535C133.074 75.0623 133.778 75.3307 134.474 75.4256C135.578 75.5763 135.659 75.6348 136.191 76.6763C136.545 77.3701 137.124 78.0245 137.775 78.4689C138.339 78.8539 138.801 79.2554 138.801 79.3612C138.801 79.467 139.149 79.7572 139.574 80.006C140.099 80.3136 140.398 80.6905 140.507 81.1839C140.697 82.0404 140.418 82.2955 139.286 82.3006C138.681 82.3033 138.347 82.1151 137.689 81.4021ZM101.62 76.9022C101.694 76.7836 101.49 76.5148 101.167 76.3049C100.707 76.0056 100.521 75.9824 100.307 76.1975C100.095 76.411 100.132 76.5431 100.476 76.7947C100.987 77.1686 101.428 77.2101 101.62 76.9022ZM98.7843 72.0643C98.7843 71.7321 99.0609 71.2898 99.495 70.9275C100.141 70.3884 100.241 70.3661 100.593 70.682C101.239 71.2619 101.319 71.0762 100.831 70.1276C100.575 69.6315 100.237 69.2256 100.079 69.2256C99.5479 69.2256 98.3296 71.0601 98.3296 71.8597C98.3296 72.2712 98.4319 72.6079 98.557 72.6079C98.682 72.6079 98.7843 72.3633 98.7843 72.0643ZM108.271 62.5494C108.005 62.2851 107.441 62.9282 107.209 63.7607C106.854 65.0374 107.196 65.0816 107.837 63.8415C108.161 63.2149 108.356 62.6334 108.271 62.5494ZM39.7278 81.8936C39.503 81.7521 39.505 81.5105 39.7378 80.7133C39.9816 79.878 40.1235 79.7109 40.5888 79.7109C41.0486 79.7109 41.1368 79.8105 41.0884 80.2746C41.001 81.1115 40.5596 82.079 40.267 82.0751C40.1259 82.0732 39.8832 81.9915 39.7278 81.8936ZM141.331 81.4585C141.192 81.1174 141.052 80.5847 141.019 80.2746C140.971 79.8105 141.059 79.7109 141.519 79.7109C141.984 79.7109 142.126 79.878 142.37 80.7133C142.603 81.5105 142.605 81.7521 142.38 81.8936C141.877 82.2105 141.589 82.0912 141.331 81.4585ZM139.383 78.6784C138.568 77.9681 138.505 77.5624 139.212 77.5762C139.728 77.5863 140.62 78.3458 140.62 78.7754C140.62 79.4185 140.195 79.3852 139.383 78.6784ZM41.5293 78.6801C41.6214 78.088 42.6627 77.4483 43.201 77.6531C43.5661 77.7921 43.5418 77.8748 42.9597 78.4774C42.1904 79.2738 41.42 79.3829 41.5293 78.6801ZM67.4798 78.0761C67.2659 77.611 67.0494 77.1484 66.9986 77.0481C66.9479 76.9477 67.396 76.897 67.9945 76.9353C68.983 76.9986 69.099 77.0658 69.2604 77.668C69.4738 78.4644 69.1622 78.9217 68.4063 78.9217C68.0059 78.9217 67.7696 78.706 67.4798 78.0761ZM112.917 78.6264C112.765 78.4452 112.738 78.0748 112.847 77.668C113.009 77.0658 113.125 76.9986 114.113 76.9353C114.712 76.897 115.16 76.9477 115.109 77.0481C115.058 77.1484 114.842 77.611 114.628 78.0761C114.338 78.706 114.102 78.9217 113.702 78.9217C113.406 78.9217 113.053 78.7888 112.917 78.6264ZM141.188 42.4075C136.746 41.6902 133.432 39.6023 131.928 36.5735L131.184 35.0744L131.119 26.4441L131.055 17.8138H134.928H138.801V25.0893C138.801 32.3131 138.804 32.3721 139.34 33.3761C140.775 36.063 144.362 36.6827 146.7 34.6472C148.295 33.2584 148.339 32.9967 148.345 24.9731L148.35 17.8138H152.223H156.096L156.031 26.4388L155.967 35.0638L155.339 36.3313C153.468 40.109 149.566 42.3569 144.598 42.5175C143.348 42.558 141.813 42.5084 141.188 42.4075ZM39.5557 41.5737C34.6286 40.8137 30.4427 36.8561 28.8619 31.4632C28.4122 29.9291 28.5091 27.1751 29.0879 25.0397C30.3079 20.5389 33.7357 17.2932 38.5326 16.0968C40.5855 15.5847 44.6648 15.7603 46.7177 16.449C49.7914 17.4802 52.108 19.52 53.411 22.3427C54.2036 24.0596 54.7094 26.6845 54.6292 28.6645L54.5618 30.3285L45.7514 30.3875L36.941 30.4465L36.946 31.064C36.967 33.6616 40.4506 36.0307 43.3444 35.4152C44.9962 35.0638 45.9075 34.5826 46.8222 33.5785L47.6195 32.7032L50.7966 34.0906L53.9738 35.4781L53.5857 36.155C52.3528 38.3055 49.4595 40.3678 46.5897 41.1417C45.2454 41.5043 40.8539 41.774 39.5557 41.5737ZM46.7177 25.1332C46.7177 23.6254 44.9778 21.6916 43.1693 21.1894C40.4349 20.4301 37.4516 22.2219 37.0158 24.8851L36.8815 25.7059H41.7996H46.7177V25.1332ZM67.8627 41.3047C65.6196 40.5584 64.1413 39.6527 62.5007 38.0197C60.616 36.1436 59.642 34.337 59.119 31.7473C58.1383 26.8906 59.1692 23.05 62.2873 19.944C65.1047 17.1374 67.6015 16.1181 71.2475 16.286C73.806 16.4039 75.4264 16.9139 77.4047 18.2241C78.1455 18.7147 78.8082 19.0598 78.8775 18.991C78.9468 18.9223 79.0043 15.3061 79.0052 10.9551C79.0061 6.60405 79.072 2.35919 79.1517 1.52206L79.2967 0H83.0153H86.734V20.5196V41.0393H82.7551H78.7762V39.7991C78.7762 38.4509 78.6222 38.3065 77.9591 39.0332C76.1176 41.0513 70.7385 42.2615 67.8627 41.3047ZM75.5431 34.3698C80.0213 32.1566 80.067 25.4829 75.6198 23.1788C71.0752 20.8242 66.0006 25.3985 67.4964 30.5013C68.5711 34.1678 72.3124 35.9664 75.5431 34.3698ZM160.683 21.027L160.741 0.563726L164.55 0.501902L168.358 0.440077V20.9652V41.4903H164.492H160.625L160.683 21.027ZM174.27 20.9706V0.450981H178.135H182V20.9706V41.4903H178.135H174.27V20.9706ZM106.685 41.0978L98.3296 41.0337V21.6259V2.21818L107.14 2.30915C114.821 2.38845 116.111 2.45183 117.201 2.80337C121.105 4.06242 123.001 5.92299 124.174 9.64791C124.655 11.173 124.743 11.82 124.656 13.1681C124.525 15.1892 123.616 17.2694 122.235 18.7092C121.717 19.2492 121.296 19.7507 121.298 19.8235C121.3 19.8963 121.831 20.2603 122.477 20.6324C124.38 21.7284 126.415 23.8517 127.261 25.6217C127.931 27.025 127.999 27.3635 127.987 29.201C127.97 31.7157 127.608 33.2698 126.579 35.236C125.154 37.9601 122.417 39.9725 119.165 40.6881C117.154 41.1304 115.978 41.169 106.685 41.0978ZM116.583 33.9696C117.57 33.5584 118.72 32.3483 119.063 31.3619C119.453 30.2377 119.4 27.9917 118.965 27.1716C118.521 26.3353 117.548 25.4231 116.588 24.9428C115.733 24.5151 111.642 24.0294 110.227 24.1876L109.243 24.2976V20.976V17.6544L110.892 17.5152C113.095 17.3292 114.469 16.8312 115.396 15.8827C116.087 15.1754 116.172 14.9448 116.251 13.561C116.359 11.6725 115.824 10.4562 114.536 9.66244C113.744 9.1736 113.389 9.12618 109.982 9.05282L106.287 8.97327V21.6239V34.2746H111.069C114.575 34.2746 116.047 34.1932 116.583 33.9696ZM18.6463 39.9678C18.2756 39.3789 16.3572 36.3733 14.3832 33.2885L10.794 27.68V23.2141V18.7482L12.1013 18.6133C13.77 18.4411 15.7026 17.8915 16.6507 17.3195C19.058 15.8672 19.1798 11.7819 16.8756 9.77549C15.5778 8.64541 14.0529 8.25333 10.9077 8.24105L8.17929 8.2304L8.12094 24.4093L8.0626 40.5883H4.08394H0.105286L0.163397 21.2525L0.221508 1.91667L8.29297 1.84744C13.79 1.80029 16.7633 1.86144 17.6149 2.03917C20.9837 2.74216 23.8796 5.04233 25.5413 8.33502C28.3063 13.8137 26.9039 19.0192 21.751 22.4039C20.9143 22.9535 19.6193 23.6571 18.8733 23.9674C18.1274 24.2777 17.4898 24.6182 17.4565 24.7241C17.4233 24.83 19.9519 28.4682 23.0758 32.8089C26.1998 37.1496 28.7557 40.7771 28.7558 40.8702C28.7558 40.9632 26.6328 41.0391 24.038 41.0389L19.3202 41.0385L18.6463 39.9678Z" fill="#7B8899"/>
</g>
<defs>
<clipPath id="clip0">
<rect width="181.895" height="87.1579" fill="white" transform="translate(0.105286)"/>
</clipPath>
</defs>
</svg>
