<svg width="237" height="56" viewBox="0 0 237 56" fill="none" xmlns="http://www.w3.org/2000/svg">
<g clip-path="url(#clip0)">
<path fill-rule="evenodd" clip-rule="evenodd" d="M234.996 3.35168L236.174 0.283661H34.4061L33.8294 0.285658C29.8811 0.247696 26.1936 1.08888 22.8633 3.38365C20.5012 5.083 18.4853 8.00017 17.2222 11.0142C16.0658 13.6217 3.8577 45.7495 1.58114 51.7467L0.418709 54.8077H203.009C207.883 54.8077 211.013 53.4091 213.12 52.0074C215.552 50.343 217.674 48.1831 219.152 44.4518C220.246 41.7514 230.708 14.5198 234.996 3.35168ZM32.8025 42.5602C32.5167 43.1447 31.478 44.2666 30.1938 43.871C29.4903 43.6482 28.8855 42.7421 29.131 42.0527C29.591 40.5302 32.8599 31.503 32.8599 31.503L22.408 31.5L16.4761 48.5075C20.1237 49.9299 26.0246 49.9253 28.6823 49.9232L29.0163 49.9231C31.4861 49.9221 35.0509 49.8172 37.4593 48.7642C39.8254 47.7832 42.9192 45.902 44.8616 40.4643C45.1509 39.6778 45.4189 38.9589 45.6651 38.2986L45.6655 38.2974C47.1102 34.4217 47.8019 32.5659 47.6334 30.9245C47.3948 29.1093 46.1247 27.8765 44.8888 26.9344C43.7344 25.9524 39.6956 22.3639 39.6956 22.3639C39.6956 22.3639 38.4959 21.4907 38.2564 19.7904C38.1553 18.3728 39.3314 15.5496 40.0212 13.8938L40.0213 13.8936C40.1968 13.4724 40.3408 13.1268 40.4243 12.899C40.8822 11.6642 42.2147 11.5194 42.9112 11.8121C44.3328 12.5446 44.0454 13.377 43.4998 14.9574L43.4345 15.1469C42.7733 16.9231 40.8772 21.8204 40.8772 21.8204L51.177 21.8224L56.7658 6.08366C54.3171 5.25047 49.4691 4.92179 46.0251 4.91879L45.707 4.91881C42.4469 4.91861 38.6679 4.91839 36.4488 6.00574C34.0787 7.09368 31.3392 9.08774 29.1622 14.3097C26.9088 19.4227 26.4479 21.0891 26.6522 22.5417C27.0447 24.6107 29.5789 27.1092 31.2758 28.4539C31.6964 28.7866 32.1351 29.1137 32.5676 29.4362L32.5678 29.4363C34.3549 30.7688 36.0378 32.0235 35.9195 33.2783C35.4464 37.5581 32.8025 42.5602 32.8025 42.5602ZM193.313 43.9109C194.593 44.3065 195.634 43.1846 195.919 42.6032C195.919 42.6032 198.563 37.6001 199.039 33.3192C199.155 32.0645 197.471 30.8091 195.685 29.4781C195.253 29.1558 194.814 28.8291 194.394 28.4969C192.697 27.1532 190.159 24.6496 189.77 22.5816C189.564 21.1301 190.027 19.4617 192.28 14.3516C194.453 9.1287 197.194 7.13364 199.566 6.04969C201.8 4.95553 205.605 4.95877 208.878 4.96155L209.143 4.96175C212.582 4.96175 217.435 5.28943 219.883 6.12562L214.295 21.8643L203.993 21.8603C203.993 21.8603 205.892 16.9651 206.553 15.1888L206.619 14.994C207.16 13.4171 207.446 12.5848 206.033 11.8531C205.328 11.5623 204.001 11.7062 203.543 12.939C203.459 13.1655 203.317 13.5083 203.143 13.926L203.142 13.9266C202.453 15.5818 201.275 18.4113 201.378 19.8303C201.616 21.5327 202.812 22.4048 202.812 22.4048C202.812 22.4048 206.853 25.9953 208.005 26.9754C209.243 27.9185 210.509 29.1523 210.748 30.9635C210.917 32.6112 210.223 34.4713 208.771 38.363L208.769 38.3699C208.526 39.021 208.262 39.729 207.977 40.5022C206.033 45.942 202.944 47.8251 200.574 48.8082C198.167 49.8562 194.603 49.9661 192.136 49.9631L191.805 49.9633C189.148 49.9664 183.242 49.9733 179.589 48.5434L185.522 31.5389L195.978 31.5439C195.978 31.5439 192.709 40.5722 192.249 42.0927C192.001 42.783 192.608 43.6891 193.313 43.9109ZM44.3031 47.3476L50.7171 47.3496L59.1702 24.1012L56.1458 47.3176L67.2166 47.3206L82.0837 7.87892L75.6697 7.87792L67.1693 31.5489L70.4855 7.87592L59.2044 7.87292L44.3031 47.3476ZM70.3064 47.3196L80.2148 47.3256L95.1905 7.84795L84.8947 7.87792L70.3064 47.3196ZM114.135 23.7235L105.004 23.7215C105.004 23.7215 107.719 16.6684 108.014 15.8512C108.273 15.1369 108.436 13.958 107.142 13.5015C105.672 13.0779 105.052 14.1199 104.753 14.9351C104.304 16.1449 95.7914 39.0037 95.3808 39.9807C95.0879 40.734 95.4552 41.6811 96.5392 42.0058C97.3836 42.2665 98.3477 41.6471 98.6094 40.8959C99.1257 39.6531 102.698 30.0244 102.698 30.0244H112.18C112.18 30.0244 108.947 38.679 108.161 40.8659C106.635 45.0458 102.579 46.904 100.986 47.2956C98.4353 47.915 95.1241 47.8811 92.6221 47.7492C91.2845 47.6543 86.7173 46.8691 85.7914 45.5963C84.4773 43.7161 85.8469 40.136 86.3566 38.8037C86.3794 38.7442 86.4004 38.6892 86.4194 38.639C86.4839 38.4689 86.7539 37.7538 87.1649 36.6655C89.3524 30.8729 95.533 14.506 95.9685 13.4345C96.4526 12.1588 97.5798 10.3335 100.606 8.70112C103.35 7.29648 106.311 7.32845 110.255 7.39739C114.132 7.46332 117.551 7.52926 119.707 8.90092L114.135 23.7235ZM165.891 7.89889L163.7 13.6473L155.451 13.5814L151.574 24.4518L158.097 24.4528L155.761 30.2652L149.416 30.2942L145.463 41.4633L153.573 41.4293L151.375 47.3406L133.364 47.3376L147.844 7.8959L165.891 7.89889ZM129.816 27.7336C133.661 28.0773 133.364 47.3376 133.364 47.3376L124.439 47.3406L123.432 29.8026L117.51 47.3276L107.687 47.3056L121.489 7.9978L131.347 8.01878L125.182 24.271L138.629 7.98981L147.261 7.99381L129.816 27.7336ZM176.288 22.4438C176.653 21.7884 177.361 20.0271 177.623 19.107C177.697 18.9132 177.812 18.6495 177.991 18.3567C178.057 18.1491 178.131 17.9232 178.209 17.6886L178.209 17.6877L178.209 17.6875C178.535 16.7031 178.913 15.5633 178.871 14.956C178.782 13.976 178.269 13.2527 177.28 13.2877C177.139 13.2537 176.258 13.2877 176.258 13.2877L172.234 24.0772C172.234 24.0772 172.761 24.1062 173.929 24.1102C175.411 24.0772 175.922 23.194 176.288 22.4438ZM188.252 9.06149L188.265 9.07675C188.923 9.76109 189.211 11.2956 189.122 12.3126C188.999 13.2917 187.834 16.8892 187.129 18.5236C186.648 19.7014 185.875 21.4308 184.919 23.3279C184.517 24.1771 182.644 26.0053 181.965 26.365C181.216 26.8585 179.655 27.38 179.655 27.38C180.948 27.9374 181.492 29.0134 181.829 29.7986C182.135 30.3861 182.053 31.0744 181.814 32.3821C181.607 33.8217 180.487 37.1245 179.744 39.0157C179.681 39.1891 179.612 39.3745 179.54 39.5692C178.85 41.4314 177.844 44.1477 177.818 45.3605C177.799 46.6003 178.104 47.3196 178.104 47.3196L168.325 47.3496C168.325 47.3496 167.786 47.5474 167.782 46.2407C167.803 45.193 168.125 44.3937 168.443 43.6083C168.542 43.3632 168.64 43.1194 168.729 42.8699C169.103 41.76 170.969 36.2344 171.569 34.7338C171.631 34.5633 171.688 34.4061 171.742 34.2598C172.14 33.1712 172.319 32.6807 172.368 31.7587C172.387 30.7137 172.011 30.1563 171.235 29.9565C170.779 29.8286 170.248 30.0953 170.248 30.0953C169.052 33.3931 164.159 47.3176 164.159 47.3176H154.418L168.88 7.794C168.88 7.794 180.878 7.797 183.385 7.79899C187.202 7.83172 187.669 8.37924 188.252 9.06149Z" fill="#7B8899"/>
</g>
<defs>
<clipPath id="clip0">
<rect width="235.895" height="54.9474" fill="white" transform="translate(0.315796 0.157898)"/>
</clipPath>
</defs>
</svg>
