<svg width="28" height="20" viewBox="0 0 28 20" fill="none" xmlns="http://www.w3.org/2000/svg">
<rect x="0.25" y="0.25" width="27.5" height="19.5" rx="1.75" fill="white" stroke="#F5F5F5" stroke-width="0.5"/>
<mask id="mask0" mask-type="alpha" maskUnits="userSpaceOnUse" x="0" y="0" width="28" height="20">
<rect x="0.25" y="0.25" width="27.5" height="19.5" rx="1.75" fill="white" stroke="white" stroke-width="0.5"/>
</mask>
<g mask="url(#mask0)">
<path fill-rule="evenodd" clip-rule="evenodd" d="M28 2.66669H13.3333V5.33335H28V2.66669ZM13.3333 8.00002V10.6667H28V8.00002H13.3333ZM13.3333 13.3334L0 13.3334V16H28V13.3334H13.3333ZM0 20V18.6667H28V20H0Z" fill="#0E4DC5"/>
<path fill-rule="evenodd" clip-rule="evenodd" d="M6.66675 9.3213L5.77666 10.6499L5.55121 9.06668L4.17279 9.87756L4.65661 8.35327L3.06287 8.48577L4.16015 7.32235L2.66675 6.75024L4.16015 6.17812L3.06287 5.0147L4.65661 5.14721L4.17279 3.62291L5.55121 4.43379L5.77666 2.85052L6.66675 4.17917L7.55683 2.85052L7.78229 4.43379L9.16071 3.62291L8.67689 5.14721L10.2706 5.0147L9.17335 6.17812L10.6667 6.75024L9.17335 7.32235L10.2706 8.48577L8.67689 8.35327L9.16071 9.87756L7.78229 9.06668L7.55683 10.6499L6.66675 9.3213ZM6.66675 9.29569C8.07256 9.29569 9.2122 8.15605 9.2122 6.75024C9.2122 5.34442 8.07256 4.20478 6.66675 4.20478C5.26093 4.20478 4.12129 5.34442 4.12129 6.75024C4.12129 8.15605 5.26093 9.29569 6.66675 9.29569ZM8.66675 6.66666C8.66675 7.77123 7.77132 8.66666 6.66675 8.66666C5.56218 8.66666 4.66675 7.77123 4.66675 6.66666C4.66675 5.56209 5.56218 4.66666 6.66675 4.66666C7.77132 4.66666 8.66675 5.56209 8.66675 6.66666Z" fill="#FED443"/>
</g>
</svg>
