<svg width="28" height="20" viewBox="0 0 28 20" fill="none" xmlns="http://www.w3.org/2000/svg">
<rect width="28" height="20" rx="2" fill="white"/>
<mask id="mask0" mask-type="alpha" maskUnits="userSpaceOnUse" x="0" y="0" width="28" height="20">
<rect width="28" height="20" rx="2" fill="white"/>
</mask>
<g mask="url(#mask0)">
<path fill-rule="evenodd" clip-rule="evenodd" d="M0 20H28V0H0V20Z" fill="#079D7B"/>
<path fill-rule="evenodd" clip-rule="evenodd" d="M15.8851 8.66659C15.8851 8.95844 15.8639 9.24154 15.8241 9.51132C15.9263 9.47989 16.0305 9.44991 16.1364 9.42154C17.9146 8.94507 19.5017 9.10228 19.6814 9.77268C19.8437 10.3786 18.8009 11.1962 17.286 11.6997C17.0184 10.9061 15.6491 10.6666 14.0001 10.6666C12.3492 10.6666 10.9787 10.9066 10.7132 11.7024C9.2189 11.1979 8.19476 10.3888 8.35574 9.78799C8.53538 9.11759 10.1225 8.96038 11.9008 9.43685C11.9941 9.46187 12.0862 9.48814 12.1767 9.51555C12.1365 9.2445 12.115 8.95997 12.115 8.66659C12.115 6.82564 12.959 5.33325 14.0001 5.33325C15.0411 5.33325 15.8851 6.82564 15.8851 8.66659ZM10.6667 11.9999L11.8332 11.9999C11.6485 11.9637 11.4599 11.9203 11.2692 11.8696C11.4837 11.876 11.7483 11.8943 12.051 11.9153C12.5992 11.9533 13.2724 11.9999 14.0001 11.9999C14.7278 11.9999 15.401 11.9533 15.9491 11.9153C16.2405 11.8951 16.4965 11.8774 16.7065 11.8704C16.5091 11.9214 16.3143 11.9645 16.1237 11.9999L17.3334 11.9999L19.3334 11.9999C19.1753 12.4746 18.9624 12.9219 18.7029 13.3333H9.29724C9.03772 12.9219 8.82488 12.4746 8.66674 11.9999L10.6667 11.9999ZM14.0001 15.9999C15.3468 15.9999 16.5836 15.5005 17.5548 14.6666H10.4453C11.4166 15.5005 12.6533 15.9999 14.0001 15.9999Z" fill="white"/>
<path fill-rule="evenodd" clip-rule="evenodd" d="M14 3.99996C14.3682 3.99996 14.6667 3.70148 14.6667 3.33329C14.6667 2.9651 14.3682 2.66663 14 2.66663C13.6318 2.66663 13.3333 2.9651 13.3333 3.33329C13.3333 3.70148 13.6318 3.99996 14 3.99996ZM8.66667 7.33329C9.03486 7.33329 9.33333 7.03482 9.33333 6.66663C9.33333 6.29844 9.03486 5.99996 8.66667 5.99996C8.29848 5.99996 8 6.29844 8 6.66663C8 7.03482 8.29848 7.33329 8.66667 7.33329ZM20 6.66663C20 7.03482 19.7015 7.33329 19.3333 7.33329C18.9651 7.33329 18.6667 7.03482 18.6667 6.66663C18.6667 6.29844 18.9651 5.99996 19.3333 5.99996C19.7015 5.99996 20 6.29844 20 6.66663ZM17.3333 5.33329C17.7015 5.33329 18 5.03482 18 4.66663C18 4.29844 17.7015 3.99996 17.3333 3.99996C16.9651 3.99996 16.6667 4.29844 16.6667 4.66663C16.6667 5.03482 16.9651 5.33329 17.3333 5.33329ZM11.3333 4.66663C11.3333 5.03482 11.0349 5.33329 10.6667 5.33329C10.2985 5.33329 10 5.03482 10 4.66663C10 4.29844 10.2985 3.99996 10.6667 3.99996C11.0349 3.99996 11.3333 4.29844 11.3333 4.66663Z" fill="#FCD117"/>
</g>
</svg>
