<svg width="28" height="20" viewBox="0 0 28 20" fill="none" xmlns="http://www.w3.org/2000/svg">
<rect width="28" height="20" rx="2" fill="white"/>
<mask id="mask0" mask-type="alpha" maskUnits="userSpaceOnUse" x="0" y="0" width="28" height="20">
<rect width="28" height="20" rx="2" fill="white"/>
</mask>
<g mask="url(#mask0)">
<rect width="28" height="20" fill="#19BFBF"/>
<path fill-rule="evenodd" clip-rule="evenodd" d="M14.0001 17.3334C18.0502 17.3334 21.3334 14.0501 21.3334 10C21.3334 5.94993 18.0502 2.66669 14.0001 2.66669C9.94999 2.66669 6.66675 5.94993 6.66675 10C6.66675 14.0501 9.94999 17.3334 14.0001 17.3334ZM19.9635 10.6667C19.7159 12.9059 18.2362 14.7737 16.2174 15.577C16.8675 14.253 17.2472 12.5281 17.3204 10.6667H19.9635ZM15.9857 10.6667C15.8884 12.9157 15.3012 14.9034 14.3856 15.9878C14.2581 15.9959 14.1296 16 14.0001 16C13.8706 16 13.742 15.9959 13.6146 15.9878C12.699 14.9034 12.1118 12.9157 12.0144 10.6667H15.9857ZM10.6798 10.6667C10.7529 12.5281 11.1327 14.253 11.7828 15.577C9.76394 14.7737 8.28423 12.9059 8.0367 10.6667H10.6798ZM12.0144 9.33335H15.9857C15.8884 7.08431 15.3012 5.09659 14.3856 4.01221C14.2581 4.00412 14.1296 4.00002 14.0001 4.00002C13.8706 4.00002 13.742 4.00412 13.6146 4.01221C12.699 5.09659 12.1118 7.08431 12.0144 9.33335ZM11.7828 4.42304C11.1327 5.74707 10.7529 7.47199 10.6798 9.33335H8.0367C8.28423 7.09419 9.76394 5.22639 11.7828 4.42304ZM19.9635 9.33335H17.3204C17.2472 7.47199 16.8675 5.74707 16.2174 4.42304C18.2362 5.22639 19.7159 7.09419 19.9635 9.33335Z" fill="white"/>
</g>
</svg>
