<svg width="28" height="20" viewBox="0 0 28 20" fill="none" xmlns="http://www.w3.org/2000/svg">
<rect width="28" height="20" rx="2" fill="white"/>
<mask id="mask0" mask-type="alpha" maskUnits="userSpaceOnUse" x="0" y="0" width="28" height="20">
<rect width="28" height="20" rx="2" fill="white"/>
</mask>
<g mask="url(#mask0)">
<path fill-rule="evenodd" clip-rule="evenodd" d="M0 5.33333H28V0H0V5.33333Z" fill="#0F3EB6"/>
<path fill-rule="evenodd" clip-rule="evenodd" d="M0 20H28V14.6666H0V20Z" fill="#0F3EB6"/>
<path fill-rule="evenodd" clip-rule="evenodd" d="M0 14.6667H28V5.33337H0V14.6667Z" fill="#ED1A3C"/>
<path fill-rule="evenodd" clip-rule="evenodd" d="M12.0001 8.72725H13.3334V8.00004C13.3334 7.63185 13.6319 7.33337 14.0001 7.33337C14.3683 7.33337 14.6667 7.63185 14.6667 8.00004V8.72725H16.0001V10H12.0001V8.72725ZM17.3334 8.00004C16.9652 8.00004 16.6667 8.29852 16.6667 8.66671V10H18.0001V8.66671C18.0001 8.29852 17.7016 8.00004 17.3334 8.00004ZM11.3334 13.3334V10.6667H10.0001L8.66675 13.3334H11.3334ZM16.0001 10.6667H12.0001V13.3334H16.0001V10.6667ZM16.6667 10.6667H18.0001L19.3334 13.3334H16.6667V10.6667ZM10.6667 8.00004C10.2986 8.00004 10.0001 8.29852 10.0001 8.66671V10H11.3334V8.66671C11.3334 8.29852 11.0349 8.00004 10.6667 8.00004Z" fill="white"/>
</g>
</svg>
