<svg width="28" height="20" viewBox="0 0 28 20" fill="none" xmlns="http://www.w3.org/2000/svg">
<rect x="0.25" y="0.25" width="27.5" height="19.5" rx="1.75" fill="white" stroke="#F5F5F5" stroke-width="0.5"/>
<mask id="mask0" mask-type="alpha" maskUnits="userSpaceOnUse" x="0" y="0" width="28" height="20">
<rect x="0.25" y="0.25" width="27.5" height="19.5" rx="1.75" fill="white" stroke="white" stroke-width="0.5"/>
</mask>
<g mask="url(#mask0)">
<path fill-rule="evenodd" clip-rule="evenodd" d="M0 6.66667H28V0H0V6.66667Z" fill="#FF202D"/>
<path opacity="0.5" fill-rule="evenodd" clip-rule="evenodd" d="M10.6667 5.33329L11.3334 4.66663L12.0001 5.33329V6.66663H10.6667V5.33329ZM13.3334 5.33329L14.0001 4.66663L14.6667 5.33329V6.66663H13.3334V5.33329ZM16.6667 4.66663L16.0001 5.33329V6.66663H17.3334V5.33329L16.6667 4.66663Z" fill="#1895DB"/>
<path opacity="0.5" fill-rule="evenodd" clip-rule="evenodd" d="M12.6667 4.66663L12 5.33329V6.66663H13.3333V5.33329L12.6667 4.66663ZM15.3333 4.66663L14.6667 5.33329V6.66663H16V5.33329L15.3333 4.66663Z" fill="#191F94"/>
<path fill-rule="evenodd" clip-rule="evenodd" d="M0 20H28V13.3334H0V20Z" fill="#2027AC"/>
<path fill-rule="evenodd" clip-rule="evenodd" d="M12.0001 6.66663H11.3334L10.6667 7.99996H12.0001V9.33329H10.6667V10.6666H12.0001V12H10.6667V13.3333H12.0001V14.6666H13.3334V13.3333H14.6667V14.6666H16.0001V13.3333H17.3334V12H16.0001V10.6666H17.3334V9.33329H16.0001V7.99996H17.3334L16.6667 6.66663H16.0001V7.99996H14.6667V6.66663H13.3334V7.99996H12.0001V6.66663ZM13.3334 9.33329V7.99996H14.6667V9.33329H13.3334ZM13.3334 10.6666V9.33329H12.0001V10.6666H13.3334ZM14.6667 10.6666H13.3334V12H12.0001V13.3333H13.3334V12H14.6667V13.3333H16.0001V12H14.6667V10.6666ZM14.6667 10.6666H16.0001V9.33329H14.6667V10.6666Z" fill="url(#paint0_linear)"/>
</g>
<defs>
<linearGradient id="paint0_linear" x1="10.6667" y1="6.66663" x2="10.6667" y2="14.6666" gradientUnits="userSpaceOnUse">
<stop stop-color="#FF212E"/>
<stop offset="1" stop-color="#FD0D1B"/>
</linearGradient>
</defs>
</svg>
