<svg width="28" height="20" viewBox="0 0 28 20" fill="none" xmlns="http://www.w3.org/2000/svg">
<rect width="28" height="20" rx="2" fill="white"/>
<mask id="mask0" mask-type="alpha" maskUnits="userSpaceOnUse" x="0" y="0" width="28" height="20">
<rect width="28" height="20" rx="2" fill="white"/>
</mask>
<g mask="url(#mask0)">
<rect width="28" height="20" fill="#07319C"/>
<path fill-rule="evenodd" clip-rule="evenodd" d="M17.3333 10C17.3333 8.9063 17.3333 7.61319 17.3333 6.66586C17.3333 5.92948 17.9302 5.33337 18.6666 5.33337H22.6666C23.403 5.33337 23.9999 5.92948 23.9999 6.66586C23.9999 7.61319 23.9999 8.9063 23.9999 10C23.9999 13.3334 20.6666 14.6667 20.6666 14.6667C20.6666 14.6667 17.3333 13.3334 17.3333 10Z" fill="#0072C4"/>
<mask id="mask1" mask-type="alpha" maskUnits="userSpaceOnUse" x="17" y="5" width="7" height="10">
<path fill-rule="evenodd" clip-rule="evenodd" d="M17.3333 10C17.3333 8.9063 17.3333 7.61319 17.3333 6.66586C17.3333 5.92948 17.9302 5.33337 18.6666 5.33337H22.6666C23.403 5.33337 23.9999 5.92948 23.9999 6.66586C23.9999 7.61319 23.9999 8.9063 23.9999 10C23.9999 13.3334 20.6666 14.6667 20.6666 14.6667C20.6666 14.6667 17.3333 13.3334 17.3333 10Z" fill="white"/>
</mask>
<g mask="url(#mask1)">
<path fill-rule="evenodd" clip-rule="evenodd" d="M18.869 9.26775C18.1858 9.95781 19.5247 9.87029 19.5247 9.87029L20.4783 9.56496C20.4783 9.56496 20.9071 9.61683 21.1965 9.70407C21.3882 9.76186 21.9216 10.0001 21.9216 10.0001C21.9216 10.0001 23.0484 9.77512 22.6522 9.26775C22.256 8.76037 19.5522 8.57768 18.869 9.26775Z" fill="#005121"/>
<path fill-rule="evenodd" clip-rule="evenodd" d="M21.7098 8.55089C21.7372 8.54466 21.8012 8.54606 21.8251 8.57514C21.8626 8.6206 21.9393 8.60549 21.9768 8.6493C22.0141 8.69323 22.0575 8.73374 22.0575 8.79622C22.0575 8.8587 22.0503 9.01362 22.0516 9.04765C22.0535 9.10009 22.0626 9.10822 22.1165 9.10682C22.1815 9.10517 22.2713 9.10009 22.2741 8.98365C22.276 8.9025 22.1953 8.85184 22.1718 8.5632C22.2072 8.53285 22.2387 8.50581 22.2269 8.46543C22.215 8.42492 22.2938 8.4046 22.286 8.34377C22.278 8.28308 22.3646 8.24587 22.3292 8.17844C22.2938 8.11089 22.3725 8.10758 22.3411 8.05349C22.3095 7.99952 22.3922 7.95216 22.3568 7.90504C22.3214 7.85768 22.404 7.81387 22.3608 7.75647C22.3174 7.69908 22.3843 7.6653 22.3411 7.62136C22.3686 7.57755 22.3449 7.4526 22.2583 7.38174C22.1718 7.31076 22.0497 7.27368 21.9787 7.24663C21.8467 7.19635 21.6006 7.21958 21.4273 7.2399C21.254 7.26009 20.931 7.28041 20.8325 7.26695C20.7341 7.25349 20.5018 7.2399 20.3186 7.27025C20.2559 7.28066 20.1846 7.26187 20.1473 7.22644C20.1174 7.19812 20.1 7.20117 20.0725 7.20282C20.0449 7.20447 20.0291 7.19596 20.0153 7.16219C19.991 7.10276 19.9366 7.14365 19.911 7.06936C19.8938 7.01971 19.8045 7.06263 19.7771 7.02047C19.7494 6.97831 19.716 6.97323 19.6411 6.97831C19.6372 6.95292 19.5959 6.93438 19.5584 6.94111C19.5643 6.89895 19.523 6.86517 19.4541 6.86682C19.462 6.8145 19.3655 6.774 19.3162 6.80612C19.2848 6.76727 19.2217 6.77565 19.206 6.80612C19.1725 6.76727 19.0661 6.77908 19.0405 6.82123C18.9953 6.79596 18.9073 6.85806 18.9146 6.95635C18.9165 6.98339 18.9183 7.01146 18.8731 7.02047C18.7885 7.03736 18.7393 7.13184 18.6663 7.1453C18.5935 7.15889 18.5206 7.1825 18.5069 7.22301C18.4931 7.26352 18.5187 7.30581 18.4912 7.326C18.4636 7.34631 18.5088 7.36485 18.5226 7.37489C18.5363 7.38504 18.558 7.40193 18.562 7.42555C18.5676 7.45908 18.6229 7.46911 18.6802 7.43228C18.7038 7.41717 18.7451 7.46276 18.812 7.43063C18.879 7.39863 18.9741 7.41552 18.9578 7.46784C18.95 7.49311 18.9676 7.52016 18.9894 7.54543C19.011 7.5707 19.0435 7.64701 19.0248 7.69057C18.9972 7.75469 19.0523 7.79025 19.0386 7.84752C19.0248 7.90504 19.0464 7.95736 19.0169 8.03495C18.9873 8.11254 18.9869 8.20968 19.0307 8.23749C19.0918 8.27635 19.0549 8.3533 19.1075 8.38606C19.1507 8.41298 19.1252 8.47889 19.206 8.49908C19.2867 8.51939 19.2395 8.57336 19.324 8.58517C19.4088 8.59698 19.4383 8.65781 19.5269 8.64422C19.5922 8.63431 19.6266 8.65019 19.6646 8.66517C19.6725 8.71927 19.655 8.91774 19.651 8.96841C19.6475 9.01323 19.6235 9.08473 19.6235 9.12879C19.6235 9.15571 19.6786 9.16244 19.7417 9.16244C19.8045 9.16244 19.8322 9.13717 19.8163 9.06631C19.8006 8.99533 19.7968 8.8225 19.8008 8.71444C19.8555 8.74073 19.9075 8.77755 19.9051 8.81819C19.9011 8.88396 19.9021 9.00206 19.8912 9.06289C19.8835 9.10682 19.8952 9.17603 19.8992 9.22162C19.9032 9.23838 20.0094 9.23673 20.0528 9.22162C20.096 9.20638 20.096 9.16587 20.092 8.98187C20.0901 8.89082 19.9935 8.79774 20.1158 8.75228C20.1749 8.73031 20.2575 8.67965 20.2891 8.63254C20.3205 8.58517 20.3895 8.60371 20.4387 8.62746C20.4879 8.65108 20.5667 8.68714 20.616 8.67127C20.679 8.65108 20.746 8.70162 20.8011 8.67127C20.8562 8.64092 20.9272 8.69323 20.9723 8.65616C21.0177 8.61895 21.0965 8.65438 21.13 8.61895C21.1635 8.58352 21.3012 8.63927 21.3506 8.59203C21.3998 8.54466 21.4667 8.60549 21.512 8.57006C21.5239 8.56066 21.538 8.55863 21.5534 8.55977C21.5516 8.63965 21.5366 8.76676 21.5337 8.80638C21.5301 8.85133 21.5061 8.92269 21.5061 8.96663C21.5061 8.99368 21.5612 9.00041 21.6242 9.00041C21.6873 9.00041 21.7149 8.97514 21.6992 8.90428C21.6833 8.83343 21.706 8.65908 21.7098 8.55089Z" fill="#A3A3A3"/>
<path fill-rule="evenodd" clip-rule="evenodd" d="M18.5232 7.31999C18.5496 7.30082 18.5252 7.26095 18.5384 7.2226C18.5515 7.18437 18.6213 7.16203 18.6911 7.14933C18.7609 7.1365 18.808 7.04723 18.8892 7.03123C18.9324 7.02272 18.9307 6.99618 18.9287 6.97066C18.9219 6.87783 19.0061 6.81917 19.0495 6.84317C19.0739 6.80317 19.1758 6.79199 19.2078 6.82869C19.2229 6.79999 19.2832 6.79199 19.3135 6.82869C19.3606 6.79847 19.453 6.83669 19.4455 6.88609C19.5115 6.88457 19.5511 6.91644 19.5455 6.95631C19.5813 6.94996 19.6209 6.96749 19.6247 6.99136C19.6187 7.0306 19.7083 7.04063 19.6668 7.06603C19.6305 7.08825 19.596 7.07949 19.5547 7.04914C19.5133 7.01866 19.3754 7.04571 19.3557 7.06095C19.336 7.07618 19.3144 7.08291 19.2985 7.0711C19.2828 7.0593 19.2455 7.04063 19.2277 7.04241C19.2099 7.04406 19.1726 7.04406 19.1508 7.00863C19.1292 6.9732 19.0741 6.96812 19.0643 6.98158C19.0545 6.99504 19.0859 7.04406 19.1175 7.0626C19.1489 7.08126 19.1332 7.11669 19.1707 7.13688C19.1951 7.15022 19.1726 7.19593 19.1588 7.22298C19.145 7.25003 19.0918 7.24152 19.0878 7.22133C19.084 7.20114 19.0701 7.18755 19.0387 7.2179C19.0071 7.24837 18.9403 7.23987 18.9244 7.23149C18.9087 7.22298 18.8653 7.20787 18.8358 7.21625C18.8062 7.22476 18.8496 7.23822 18.8536 7.25003C18.8575 7.26183 18.8062 7.26691 18.7767 7.26691C18.7472 7.26691 18.7373 7.28368 18.7551 7.2871C18.7729 7.29053 18.8416 7.29396 18.8693 7.28037C18.8969 7.26691 18.9815 7.28037 18.9895 7.30577C18.9973 7.33104 18.9403 7.3412 18.9067 7.33777C18.8572 7.33282 18.7846 7.35974 18.7492 7.36812C18.7138 7.37663 18.6192 7.35466 18.5818 7.36482C18.5444 7.37485 18.5075 7.3351 18.5232 7.31999Z" fill="#A3A3A3"/>
<path fill-rule="evenodd" clip-rule="evenodd" d="M19.1567 7.52693C19.1213 7.54039 19.1331 7.5809 19.1647 7.59778C19.1962 7.61467 19.267 7.6214 19.3124 7.61302C19.3576 7.60451 19.3675 7.6181 19.338 7.63499C19.3084 7.65175 19.3832 7.65518 19.3773 7.68223C19.3715 7.70915 19.4048 7.70407 19.4364 7.70242C19.4679 7.70077 19.5093 7.68045 19.5447 7.66191C19.5801 7.64337 19.6057 7.65683 19.5722 7.68896C19.5389 7.72096 19.4266 7.76159 19.338 7.75651C19.2493 7.75144 19.202 7.77163 19.2217 7.80032C19.2414 7.82902 19.3359 7.8341 19.3851 7.81886C19.4345 7.80375 19.4266 7.8308 19.3891 7.84921C19.3516 7.86788 19.2985 7.86953 19.2533 7.86788C19.2079 7.86623 19.1685 7.90509 19.2276 7.92693C19.2868 7.9489 19.3656 7.93544 19.395 7.95397C19.4247 7.97251 19.5152 7.94382 19.5171 7.97594C19.519 8.00794 19.4915 8.01975 19.4383 8.01645C19.3851 8.01302 19.4008 8.03702 19.4404 8.0501C19.4758 8.06204 19.5389 8.06204 19.5722 8.05861C19.6057 8.05531 19.5959 8.08896 19.5625 8.10077C19.529 8.11258 19.4207 8.12947 19.3675 8.12782C19.3143 8.12617 19.3398 8.15994 19.4088 8.15994C19.6195 8.15994 19.6905 8.06026 19.7436 7.99105C19.7697 7.95715 19.8204 7.93874 19.8322 7.95905C19.8441 7.97924 19.846 7.98432 19.8225 8.00121C19.7988 8.0181 19.8045 8.02826 19.8479 8.02991C19.8912 8.03156 19.9543 8.01975 19.9918 8.00972C20.0291 7.99956 20.1393 8.06344 20.0488 8.06534C19.8893 8.06877 19.6924 8.12617 19.6275 8.14978C19.5625 8.1734 19.454 8.21785 19.3872 8.21556C19.338 8.21391 19.3182 8.23245 19.338 8.25442C19.3576 8.27639 19.4207 8.27639 19.4561 8.26623C19.4915 8.25607 19.4993 8.26623 19.4758 8.28642C19.4522 8.30674 19.3931 8.31512 19.3516 8.32197C19.3105 8.3287 19.29 8.35512 19.3222 8.36578C19.3832 8.3861 19.3281 8.40464 19.3715 8.4148C19.4148 8.42496 19.3675 8.45696 19.4148 8.46712C19.462 8.47728 19.4896 8.4722 19.525 8.44858C19.5605 8.42496 19.5801 8.41137 19.6176 8.4148C19.655 8.41823 19.6807 8.40121 19.7023 8.37594C19.7239 8.35067 19.7968 8.30509 19.8204 8.32705C19.8441 8.34902 19.8933 8.30839 19.9032 8.33036C19.913 8.35232 19.9543 8.33886 19.9642 8.36921C19.975 8.40299 20.0213 8.40972 20.0528 8.39791C20.0842 8.3861 20.1099 8.3574 20.1099 8.31512C20.1099 8.27296 20.1217 8.25607 20.1336 8.30166C20.1453 8.34724 20.1887 8.3607 20.2103 8.33886C20.2319 8.3169 20.2398 8.24096 20.2241 8.20553C20.2084 8.16997 20.2063 8.12439 20.2222 8.11601C20.2379 8.10763 20.2753 8.18521 20.291 8.21899C20.3069 8.25277 20.3481 8.24261 20.3502 8.20883C20.3521 8.17505 20.3896 8.15817 20.4171 8.18356C20.4447 8.20883 20.429 8.29328 20.4368 8.33378C20.4447 8.37429 20.5214 8.32363 20.5294 8.33709C20.5373 8.35067 20.5668 8.35397 20.5786 8.32528C20.5905 8.29658 20.618 8.27131 20.6337 8.2882C20.6496 8.30509 20.6731 8.33378 20.6829 8.36578C20.6928 8.39791 20.7282 8.4148 20.7499 8.38102C20.7715 8.34724 20.7873 8.28147 20.7795 8.23575C20.7715 8.19029 20.7854 8.16159 20.805 8.18521C20.8247 8.20883 20.8228 8.27296 20.8247 8.32528C20.8268 8.37759 20.8916 8.37264 20.8916 8.29493C20.8916 8.2595 20.9113 8.25277 20.9173 8.27296C20.9232 8.29328 20.9232 8.32705 20.9291 8.34217C20.9436 8.37963 20.9942 8.35905 20.9999 8.33378C21.0059 8.30839 20.9961 8.21721 20.9842 8.17683C20.9724 8.1362 20.9961 8.10763 21.0158 8.12947C21.0355 8.15144 21.0393 8.20883 21.0433 8.27296C21.0472 8.33709 21.0885 8.34051 21.1103 8.32197C21.1319 8.30331 21.1319 8.24934 21.1222 8.21048C21.1122 8.17175 21.1438 8.17175 21.1576 8.19537C21.1713 8.21899 21.195 8.20375 21.191 8.18521C21.1872 8.16667 21.2068 8.14978 21.2265 8.17505C21.2462 8.20045 21.2402 8.25785 21.2305 8.30331C21.2205 8.34902 21.2796 8.34382 21.3072 8.30509C21.3348 8.26623 21.321 8.15994 21.2974 8.12617C21.2737 8.09239 21.2758 8.04845 21.2894 8.00972C21.3033 7.97086 21.329 7.96909 21.3309 7.9861C21.3328 8.00286 21.3447 8.03156 21.3663 8.05353C21.3879 8.0755 21.3998 8.07893 21.4036 8.04502C21.4076 8.01137 21.4273 8.01975 21.4352 8.04502C21.4432 8.07042 21.4568 8.09061 21.4765 8.06877C21.4962 8.0468 21.5219 8.06369 21.5062 8.09747C21.4903 8.13124 21.4903 8.16159 21.5022 8.19537C21.514 8.22915 21.5553 8.22407 21.5593 8.18521C21.5675 8.10445 21.579 8.15817 21.5888 8.19359C21.5986 8.22915 21.6282 8.22737 21.6342 8.20718C21.6401 8.18686 21.646 8.18191 21.646 8.20375C21.646 8.22572 21.6558 8.24426 21.6814 8.24426C21.707 8.24426 21.7011 8.20045 21.7128 8.1734C21.7247 8.14636 21.7463 8.18356 21.7759 8.24591C21.8054 8.30839 21.827 8.24934 21.8961 8.39118C21.9242 8.44896 21.965 8.39956 21.963 8.37937C21.961 8.35905 21.9669 8.34559 22.0004 8.34559C22.0339 8.34559 22.0614 8.33886 22.0497 8.3169C22.0379 8.29493 22.0457 8.25442 22.0438 8.20883C22.0419 8.16324 22.0476 8.13797 22.0536 8.16324C22.0595 8.18851 22.0792 8.22407 22.1106 8.24261C22.1422 8.26115 22.1638 8.21048 22.1382 8.17848C22.1127 8.14636 22.0773 8.07042 22.0792 8.00629C22.0807 7.95905 22.1028 7.97417 22.1028 8.00794C22.1028 8.04172 22.1225 8.10255 22.1521 8.11601C22.1816 8.12947 22.1934 8.06699 22.1796 8.03499C22.1659 8.00286 22.158 7.95905 22.1875 7.95055C22.217 7.94217 22.1796 7.90674 22.154 7.88134C22.1284 7.85607 22.1127 7.8308 22.158 7.83245C22.2032 7.8341 22.1659 7.8054 22.1441 7.78686C22.1225 7.76832 22.0851 7.73112 22.1441 7.7362C22.2032 7.74128 22.1836 7.71093 22.1599 7.69404C22.1362 7.67715 22.1225 7.64502 22.1638 7.6468C22.2053 7.64845 22.2308 7.62813 22.2269 7.61302C22.2118 7.55448 22.1127 7.48642 22.0516 7.4341C21.9906 7.38178 21.8921 7.32947 21.8389 7.32096C21.7857 7.31245 21.7838 7.34636 21.7976 7.36655C21.8113 7.38674 21.8389 7.40032 21.8429 7.38001C21.8468 7.35982 21.8881 7.38178 21.9078 7.4087C21.9275 7.43575 21.9945 7.46953 22.0359 7.49988C22.0773 7.53023 21.9807 7.51512 21.9334 7.47461C21.9065 7.45137 21.9097 7.47956 21.9453 7.51169C21.9807 7.54382 21.9353 7.55728 21.898 7.53023C21.8605 7.50331 21.7641 7.42737 21.703 7.37836C21.642 7.32947 21.6321 7.34128 21.6302 7.37328C21.6282 7.4054 21.6499 7.42737 21.6893 7.45429C21.7287 7.48134 21.7779 7.5235 21.8153 7.5522C21.8527 7.5809 21.8213 7.59944 21.7976 7.57912C21.7739 7.55893 21.6933 7.50331 21.646 7.46445C21.5986 7.42559 21.5553 7.40705 21.5259 7.41213C21.4962 7.41721 21.4983 7.44591 21.5337 7.47626C21.5691 7.50661 21.6125 7.56401 21.6125 7.59778C21.6125 7.63156 21.581 7.65518 21.5651 7.59448C21.5494 7.53366 21.4746 7.4628 21.4195 7.4087C21.3644 7.35474 21.3091 7.34458 21.2678 7.34801C21.2265 7.35131 21.2284 7.39182 21.2284 7.42394C21.2284 7.45594 21.2008 7.4374 21.1989 7.41378C21.197 7.39017 21.1654 7.36997 21.1476 7.37163C21.13 7.37328 21.1359 7.42229 21.13 7.44426C21.1241 7.4661 21.0965 7.48642 21.0965 7.43575C21.0965 7.38509 21.0315 7.35982 21.0039 7.35804C20.9764 7.35639 20.9508 7.36655 20.9645 7.38851C20.9783 7.41036 20.9724 7.46953 20.9626 7.50331C20.9527 7.53696 20.9232 7.47791 20.9173 7.41544C20.9113 7.35309 20.8189 7.30915 20.7539 7.32769C20.6888 7.34636 20.7382 7.38674 20.7263 7.42559C20.7145 7.46445 20.6967 7.42902 20.6908 7.38851C20.685 7.34801 20.6534 7.32261 20.6102 7.33277C20.5668 7.34293 20.5373 7.36312 20.5392 7.39017C20.5411 7.41721 20.5411 7.44083 20.5313 7.48464C20.5214 7.52858 20.5038 7.50661 20.5057 7.47791C20.5078 7.44921 20.4979 7.40197 20.4879 7.37493C20.4782 7.34801 20.4623 7.37328 20.4663 7.40705C20.4703 7.44083 20.4604 7.51842 20.4447 7.56578C20.429 7.61302 20.4053 7.61467 20.4171 7.55055C20.429 7.48642 20.3993 7.39182 20.3699 7.34801C20.3487 7.31664 20.301 7.30585 20.301 7.34966C20.301 7.39359 20.3148 7.42559 20.3502 7.45772C20.3856 7.48972 20.358 7.56909 20.3226 7.61137C20.287 7.65353 20.2891 7.5927 20.301 7.54712C20.3127 7.50153 20.2478 7.48642 20.2222 7.47791C20.1965 7.46953 20.2497 7.42394 20.2616 7.36312C20.2673 7.33315 20.2595 7.31423 20.2359 7.31245C20.2122 7.3108 20.1493 7.3682 20.1217 7.41036C20.1296 7.36655 20.1217 7.32769 20.098 7.32769C20.0745 7.32769 20.0488 7.36997 20.0312 7.40032C20.0134 7.43067 19.9956 7.41378 20.0134 7.38178C20.0312 7.34966 20.0586 7.26356 20.0232 7.24502C19.9878 7.22648 19.9562 7.30242 19.9189 7.28883C19.8977 7.28121 19.9268 7.23321 19.9386 7.21124C19.9503 7.18928 19.9268 7.17239 19.8736 7.2129C19.8204 7.25353 19.7968 7.31931 19.7829 7.35982C19.7693 7.40032 19.6748 7.4661 19.6235 7.50153C19.5722 7.53696 19.5506 7.5235 19.5762 7.50826C19.6019 7.49315 19.653 7.44591 19.6786 7.42737C19.7042 7.4087 19.6924 7.39778 19.6432 7.42978C19.594 7.46191 19.5044 7.5202 19.4127 7.54039C19.3589 7.55232 19.3516 7.54217 19.4048 7.52693C19.458 7.51169 19.5801 7.43905 19.6097 7.4054C19.6282 7.3842 19.5801 7.40197 19.5565 7.40705C19.533 7.41213 19.5133 7.4054 19.5605 7.38851C19.6076 7.37163 19.7574 7.23829 19.789 7.18928C19.8204 7.14039 19.7928 7.12172 19.7731 7.1235C19.7534 7.12515 19.7259 7.13696 19.7318 7.11677C19.7377 7.09645 19.7239 7.0694 19.6983 7.07791C19.6727 7.08629 19.6748 7.13531 19.6648 7.16223C19.655 7.18928 19.5998 7.22483 19.5644 7.22483C19.529 7.22483 19.4798 7.23156 19.4423 7.25683C19.4048 7.2821 19.3872 7.25848 19.4048 7.23829C19.4226 7.21797 19.462 7.2129 19.5014 7.21124C19.5408 7.20959 19.5841 7.20451 19.6176 7.17239C19.651 7.14039 19.653 7.11499 19.6275 7.11334C19.6019 7.11169 19.5585 7.08299 19.5447 7.07118C19.4748 7.01112 19.3466 7.0948 19.2965 7.14369C19.269 7.17074 19.1745 7.24845 19.145 7.26864C19.1153 7.28883 19.1272 7.31753 19.1764 7.2788C19.2257 7.23994 19.2414 7.26699 19.1962 7.29569C19.1508 7.32439 19.1174 7.36655 19.1331 7.38178C19.1488 7.3969 19.2099 7.37836 19.2433 7.35982C19.2768 7.34128 19.2927 7.38674 19.2099 7.40197C19.1543 7.41226 19.1349 7.43182 19.1785 7.4341C19.2119 7.43575 19.263 7.42229 19.3105 7.39867C19.3576 7.37493 19.395 7.38851 19.3556 7.41213C19.3162 7.43575 19.2296 7.46788 19.1863 7.46788C19.15 7.46788 19.1922 7.51347 19.1567 7.52693Z" fill="white"/>
<path fill-rule="evenodd" clip-rule="evenodd" d="M19.3851 7.14956C19.4325 7.10023 19.4739 7.07863 19.5171 7.1141C19.5564 7.14623 19.5605 7.16023 19.5112 7.14956C19.462 7.1389 19.4285 7.14956 19.3991 7.18143C19.3694 7.21343 19.3359 7.2009 19.3851 7.14956Z" fill="#A3A3A3"/>
<path fill-rule="evenodd" clip-rule="evenodd" d="M18.6054 7.2749C18.6408 7.23943 18.6979 7.23943 18.7235 7.2005C18.7491 7.16143 18.7767 7.1757 18.7451 7.2129C18.7137 7.2501 18.6527 7.2573 18.6271 7.28383C18.6014 7.31037 18.5877 7.29263 18.6054 7.2749Z" fill="#A3A3A3"/>
<path fill-rule="evenodd" clip-rule="evenodd" d="M18.8259 7.13938C18.8473 7.13645 18.8889 7.11098 18.9145 7.08085C18.9402 7.05072 18.9953 7.04005 19.0286 7.07552C19.0621 7.11098 19.0799 7.12338 19.0976 7.13058C19.1153 7.13765 19.1153 7.16072 19.0877 7.16765C19.0602 7.17485 19.0228 7.18018 19.0031 7.17125C18.9834 7.16245 18.9538 7.15538 18.9302 7.16072C18.9065 7.16592 18.8967 7.15538 18.9164 7.14645C18.9362 7.13765 18.9597 7.11098 18.9716 7.10032C18.9834 7.08978 19.0148 7.09858 18.9972 7.10925C18.9794 7.11992 18.9873 7.14285 19.005 7.15178C19.0228 7.16072 19.0582 7.16072 19.0739 7.14472C19.0504 7.12165 19.011 7.09152 18.9953 7.08272C18.9794 7.07378 18.9656 7.07018 18.9459 7.09152C18.9262 7.11285 18.879 7.16418 18.8338 7.16245C18.7884 7.16072 18.8003 7.14285 18.8259 7.13938Z" fill="#A3A3A3"/>
<path fill-rule="evenodd" clip-rule="evenodd" d="M20.0704 7.45733C20.053 7.48173 20.037 7.51319 20.035 7.53799C20.0331 7.56279 20.0558 7.57973 20.0586 7.54866C20.0615 7.51759 20.0645 7.49906 20.0891 7.47599C20.1138 7.45293 20.0901 7.42986 20.0704 7.45733Z" fill="#A3A3A3"/>
<path fill-rule="evenodd" clip-rule="evenodd" d="M19.8292 7.45686C19.8496 7.44859 19.8843 7.42939 19.901 7.41166C19.9178 7.39406 19.9286 7.40552 19.9118 7.42499C19.8951 7.44446 19.8567 7.46752 19.839 7.47286C19.8213 7.47819 19.8076 7.46579 19.8292 7.45686Z" fill="#A3A3A3"/>
<path fill-rule="evenodd" clip-rule="evenodd" d="M19.8598 7.5555C19.8315 7.58954 19.7199 7.67042 19.6865 7.68554C19.653 7.70077 19.6648 7.72274 19.7023 7.71093C19.6748 7.73277 19.6136 7.76833 19.5743 7.77836C19.5349 7.78852 19.5269 7.81887 19.586 7.80033C19.6451 7.78179 19.7278 7.73277 19.7494 7.71093C19.7712 7.68896 19.7437 7.67881 19.7771 7.65519C19.8106 7.63157 19.8725 7.58839 19.8814 7.57074C19.8952 7.54382 19.8795 7.53188 19.8598 7.5555Z" fill="#A3A3A3"/>
<path fill-rule="evenodd" clip-rule="evenodd" d="M19.7377 7.83076C19.78 7.81019 19.8588 7.73742 19.8814 7.69565C19.8952 7.67038 19.9228 7.67368 19.9011 7.71253C19.8795 7.75139 19.7988 7.8206 19.7712 7.83914C19.7437 7.85768 19.6924 7.8526 19.7377 7.83076Z" fill="#A3A3A3"/>
<path fill-rule="evenodd" clip-rule="evenodd" d="M20.6337 7.43057C20.6221 7.45432 20.6199 7.50994 20.6239 7.53686C20.6278 7.5639 20.6515 7.58422 20.6475 7.54371C20.6436 7.50321 20.6436 7.4627 20.6572 7.45089C20.6712 7.43895 20.6534 7.39006 20.6337 7.43057Z" fill="#A3A3A3"/>
<path fill-rule="evenodd" clip-rule="evenodd" d="M20.8739 7.53024C20.8939 7.54866 20.9034 7.63501 20.9015 7.66701C20.8996 7.69913 20.933 7.69913 20.931 7.65355C20.929 7.60796 20.925 7.55056 20.9074 7.52021C20.8896 7.48974 20.8464 7.50497 20.8739 7.53024Z" fill="#A3A3A3"/>
<path fill-rule="evenodd" clip-rule="evenodd" d="M21.0847 7.58594C21.0968 7.60804 21.1122 7.65007 21.1122 7.68042C21.1122 7.7109 21.1379 7.69731 21.1398 7.66188C21.1417 7.62645 21.1359 7.5961 21.1222 7.57248C21.1084 7.54886 21.0669 7.55382 21.0847 7.58594Z" fill="#A3A3A3"/>
<path fill-rule="evenodd" clip-rule="evenodd" d="M21.2146 7.55958C21.2038 7.53238 21.187 7.50811 21.175 7.51171C21.1633 7.51531 21.1712 7.54011 21.187 7.56664C21.2026 7.59331 21.2263 7.58971 21.2146 7.55958Z" fill="#A3A3A3"/>
<path fill-rule="evenodd" clip-rule="evenodd" d="M20.3915 7.74793C20.3856 7.81866 20.3481 7.88126 20.3029 7.90323C20.2576 7.9252 20.2654 7.96062 20.3205 7.9252C20.3758 7.88977 20.4171 7.82894 20.429 7.77497C20.4407 7.72088 20.3955 7.70069 20.3915 7.74793Z" fill="#A3A3A3"/>
<path fill-rule="evenodd" clip-rule="evenodd" d="M20.2929 7.71591C20.2694 7.73953 20.2556 7.7902 20.2556 7.82893C20.2556 7.86779 20.2713 7.83909 20.2753 7.81712C20.2793 7.79515 20.287 7.7648 20.3069 7.75464C20.3264 7.74448 20.3167 7.69229 20.2929 7.71591Z" fill="#A3A3A3"/>
<path fill-rule="evenodd" clip-rule="evenodd" d="M21.9984 7.76489C22.0192 7.79905 22.0497 7.85441 22.0595 7.88641C22.0694 7.91854 22.0457 7.92692 22.0378 7.89822C22.0298 7.86953 21.9925 7.8054 21.9787 7.78343C21.9649 7.76159 21.9747 7.72603 21.9984 7.76489Z" fill="#A3A3A3"/>
<path d="M16 9.33333C16 9.33333 18.2679 10.0071 18.6507 10.0071C18.7583 10.0071 20.2273 9.67023 20.6677 9.67023C20.8324 9.67023 22.353 9.90101 22.75 10.0071C23.1471 10.1132 25.3354 9.33333 25.3354 9.33333" stroke="white" stroke-width="0.666667" stroke-linecap="round" stroke-linejoin="round"/>
<path d="M16 10.6667C16 10.6667 18.2679 11.3405 18.6507 11.3405C18.7583 11.3405 20.2273 11.0036 20.6677 11.0036C20.8324 11.0036 22.353 11.2344 22.75 11.3405C23.1471 11.4466 25.3354 10.6667 25.3354 10.6667" stroke="white" stroke-width="0.666667" stroke-linecap="round" stroke-linejoin="round"/>
<path d="M16 13.3333C16 13.3333 18.2679 14.0071 18.6507 14.0071C18.7583 14.0071 19.634 13.4619 20.6677 13.4619C21.7014 13.4619 22.353 13.901 22.75 14.0071C23.1471 14.1132 25.3354 13.3333 25.3354 13.3333L32.5128 14.4813" stroke="white" stroke-width="1.33333" stroke-linecap="round" stroke-linejoin="round"/>
</g>
<path d="M17.6666 10V9.94863V9.89693V9.84498V9.79276V9.7403V9.68762V9.63472V9.58161V9.52831V9.47483V9.42118V9.36738V9.31343V9.28641V9.27965V9.27289V9.25936V9.20517V9.15087V9.09648V9.04201V8.98748V8.93289V8.87825V8.82359V8.76891V8.74156V8.73473V8.72789V8.72106V8.71422V8.70739V8.70055V8.69372V8.68688V8.68005V8.67321V8.66638V8.65954V8.65271V8.64588V8.63904V8.63221V8.62538V8.61855V8.61171V8.60488V8.59805V8.59122V8.58439V8.57757V8.57074V8.56391V8.55708V8.55026V8.54343V8.53661V8.52978V8.52296V8.51614V8.50932V8.50249V8.49567V8.48886V8.48204V8.47522V8.4684V8.46159V8.45478V8.44796V8.44115V8.43434V8.42753V8.42072V8.41391V8.40711V8.4003V8.3935V8.3867V8.37989V8.37309V8.3663V8.3595V8.3527V8.34591V8.33911V8.33232V8.32553V8.31874V8.31196V8.30517V8.29839V8.29161V8.28482V8.27805V8.27127V8.26449V8.25772V8.25095V8.24418V8.23741V8.23064V8.22388V8.21711V8.21035V8.20359V8.19683V8.19008V8.18333V8.17657V8.16982V8.16308V8.15633V8.14959V8.14285V8.13611V8.12937V8.12264V8.11591V8.10918V8.10245V8.09572V8.089V8.08228V8.07556V8.06885V8.06213V8.05542V8.04871V8.04201V8.0353V8.0286V8.0219V8.01521V8.00852V8.00182V7.99514V7.98845V7.98177V7.97509V7.96841V7.96174V7.95507V7.9484V7.94173V7.93507V7.92841V7.92176V7.9151V7.90845V7.9018V7.89516V7.88852V7.87524V7.84873V7.79587V7.74323V7.69081V7.63865V7.58674V7.53509V7.48374V7.43267V7.38191V7.33148V7.28137V7.23161V7.1822V7.13317V7.08451V7.03625V6.94096V6.8474V6.75567V6.66586C17.6666 6.11385 18.114 5.66671 18.6666 5.66671H22.6666C23.2191 5.66671 23.6666 6.11385 23.6666 6.66586V6.67142V6.67698V6.68255V6.68813V6.69371V6.69931V6.70491V6.71052V6.71613V6.72176V6.72739V6.73303V6.73868V6.74434V6.75V6.75567V6.76135V6.76703V6.77273V6.77843V6.78413V6.78985V6.79557V6.8013V6.80704V6.81278V6.81854V6.82429V6.83006V6.83583V6.84162V6.8474V6.8532V6.859V6.86481V6.87063V6.87645V6.88228V6.88812V6.89396V6.89981V6.90567V6.91154V6.91741V6.92329V6.92917V6.93507V6.94096V6.94687V6.95278V6.9587V6.96463V6.97056V6.9765V6.98245V6.9884V6.99436V7.00032V7.0063V7.01227V7.01826V7.02425V7.03025V7.03625V7.04226V7.04828V7.0543V7.06033V7.06637V7.07241V7.07846V7.08451V7.09057V7.09664V7.10271V7.10879V7.11488V7.12097V7.12706V7.13317V7.13928V7.14539V7.15151V7.15764V7.16377V7.16991V7.17605V7.1822V7.18836V7.19452V7.20069V7.20686V7.21304V7.21922V7.22541V7.23161V7.23781V7.24402V7.25023V7.25645V7.26267V7.2689V7.27513V7.28137V7.28761V7.29386V7.30012V7.30638V7.31265V7.31892V7.32519V7.33148V7.33776V7.34406V7.35035V7.35665V7.36296V7.36927V7.37559V7.38191V7.38824V7.39457V7.40091V7.40725V7.4136V7.41995V7.42631V7.43267V7.43904V7.44541V7.45179V7.45817V7.46455V7.47094V7.47734V7.48374V7.49014V7.49655V7.50296V7.50938V7.5158V7.52223V7.52866V7.5351V7.54154V7.54798V7.55443V7.56088V7.56734V7.5738V7.58027V7.58674V7.59321V7.59969V7.60617V7.61266V7.61915V7.62564V7.63214V7.63865V7.64515V7.65167V7.65818V7.6647V7.67122V7.67775V7.68428V7.69081V7.69735V7.70389V7.71044V7.71699V7.72354V7.7301V7.73666V7.74323V7.74979V7.75637V7.76294V7.76952V7.7761V7.78269V7.78928V7.79587V7.80247V7.80907V7.81567V7.82227V7.82888V7.8355V7.84211V7.84873V7.85536V7.86198V7.86861V7.87524V7.88188V7.88852V7.89516V7.9018V7.90845V7.9151V7.92176V7.92841V7.93507V7.94174V7.9484V7.95507V7.96174V7.96841V7.97509V7.98177V7.98845V7.99514V8.00183V8.00852V8.01521V8.0219V8.0286V8.0353V8.04201V8.04871V8.05542V8.06213V8.06885V8.07556V8.08228V8.089V8.09572V8.10245V8.10918V8.11591V8.12264V8.12937V8.13611V8.14285V8.14959V8.15633V8.16308V8.16982V8.17657V8.18333V8.19008V8.19683V8.20359V8.21035V8.21711V8.22388V8.23064V8.23741V8.24418V8.25095V8.25772V8.26449V8.27127V8.27805V8.28483V8.29161V8.29839V8.30517V8.31196V8.31874V8.32553V8.33232V8.33912V8.34591V8.3527V8.3595V8.3663V8.37309V8.37989V8.3867V8.3935V8.4003V8.40711V8.41391V8.42072V8.42753V8.43434V8.44115V8.44796V8.45478V8.46159V8.46841V8.47522V8.48204V8.48886V8.49568V8.5025V8.50932V8.51614V8.52296V8.52978V8.53661V8.54343V8.55026V8.55708V8.56391V8.57074V8.57757V8.58439V8.59122V8.59805V8.60488V8.61171V8.61855V8.62538V8.63221V8.63904V8.64588V8.65271V8.65954V8.66638V8.67321V8.68005V8.68688V8.69372V8.70055V8.70739V8.71422V8.72106V8.72789V8.73473V8.74156V8.7484V8.75524V8.76207V8.76891V8.77574V8.78258V8.78941V8.79625V8.80309V8.80992V8.81675V8.82359V8.83042V8.83726V8.84409V8.85092V8.85776V8.86459V8.87142V8.87825V8.88508V8.89191V8.89874V8.90557V8.9124V8.91923V8.92606V8.93289V8.93971V8.94654V8.95336V8.96019V8.96701V8.97383V8.98066V8.98748V8.9943V9.00112V9.00794V9.01475V9.02157V9.02839V9.0352V9.04201V9.04883V9.05564V9.06245V9.06926V9.07607V9.08287V9.08968V9.09648V9.10329V9.11009V9.11689V9.12369V9.13049V9.13728V9.14408V9.15087V9.15766V9.16446V9.17124V9.17803V9.18482V9.1916V9.19839V9.20517V9.21195V9.21873V9.2255V9.23228V9.23905V9.24582V9.25259V9.25936V9.26613V9.27289V9.27965V9.28641V9.29317V9.29993V9.30668V9.31343V9.32018V9.32693V9.33368V9.34042V9.34717V9.35391V9.36064V9.36738V9.37411V9.38084V9.38757V9.3943V9.40102V9.40774V9.41446V9.42118V9.4279V9.43461V9.44132V9.44802V9.45473V9.46143V9.46813V9.47483V9.48152V9.48821V9.4949V9.50159V9.50827V9.51495V9.52163V9.52831V9.53498V9.54165V9.54832V9.55498V9.56164V9.5683V9.57496V9.58161V9.58826V9.5949V9.60155V9.60819V9.61482V9.62146V9.62809V9.63472V9.64134V9.64796V9.65458V9.66119V9.6678V9.67441V9.68102V9.68762V9.69422V9.70081V9.7074V9.71399V9.72057V9.72715V9.73373V9.7403V9.74687V9.75344V9.76V9.76656V9.77312V9.77967V9.78622V9.79276V9.7993V9.80584V9.81237V9.8189V9.82542V9.83195V9.83846V9.84498V9.85148V9.85799V9.86449V9.87099V9.87748V9.88397V9.89045V9.89693V9.90341V9.90988V9.91635V9.92282V9.92928V9.93573V9.94218V9.94863V9.95507V9.96151V9.96794V9.97437V9.98079V9.98721V9.99363V10C23.6666 11.5427 22.8988 12.626 22.1103 13.3356C21.7158 13.6907 21.3201 13.948 21.0231 14.1163C20.8749 14.2003 20.7522 14.2616 20.6677 14.3014C20.6673 14.3016 20.6669 14.3017 20.6666 14.3019C20.6662 14.3017 20.6659 14.3016 20.6655 14.3014C20.581 14.2616 20.4583 14.2003 20.3101 14.1163C20.0131 13.948 19.6174 13.6907 19.2229 13.3356C18.4344 12.626 17.6666 11.5427 17.6666 10Z" stroke="white" stroke-width="0.666667"/>
<mask id="mask2" mask-type="alpha" maskUnits="userSpaceOnUse" x="17" y="5" width="7" height="10">
<path d="M17.6666 10V9.94863V9.89693V9.84498V9.79276V9.7403V9.68762V9.63472V9.58161V9.52831V9.47483V9.42118V9.36738V9.31343V9.28641V9.27965V9.27289V9.25936V9.20517V9.15087V9.09648V9.04201V8.98748V8.93289V8.87825V8.82359V8.76891V8.74156V8.73473V8.72789V8.72106V8.71422V8.70739V8.70055V8.69372V8.68688V8.68005V8.67321V8.66638V8.65954V8.65271V8.64588V8.63904V8.63221V8.62538V8.61855V8.61171V8.60488V8.59805V8.59122V8.58439V8.57757V8.57074V8.56391V8.55708V8.55026V8.54343V8.53661V8.52978V8.52296V8.51614V8.50932V8.50249V8.49567V8.48886V8.48204V8.47522V8.4684V8.46159V8.45478V8.44796V8.44115V8.43434V8.42753V8.42072V8.41391V8.40711V8.4003V8.3935V8.3867V8.37989V8.37309V8.3663V8.3595V8.3527V8.34591V8.33911V8.33232V8.32553V8.31874V8.31196V8.30517V8.29839V8.29161V8.28482V8.27805V8.27127V8.26449V8.25772V8.25095V8.24418V8.23741V8.23064V8.22388V8.21711V8.21035V8.20359V8.19683V8.19008V8.18333V8.17657V8.16982V8.16308V8.15633V8.14959V8.14285V8.13611V8.12937V8.12264V8.11591V8.10918V8.10245V8.09572V8.089V8.08228V8.07556V8.06885V8.06213V8.05542V8.04871V8.04201V8.0353V8.0286V8.0219V8.01521V8.00852V8.00182V7.99514V7.98845V7.98177V7.97509V7.96841V7.96174V7.95507V7.9484V7.94173V7.93507V7.92841V7.92176V7.9151V7.90845V7.9018V7.89516V7.88852V7.87524V7.84873V7.79587V7.74323V7.69081V7.63865V7.58674V7.53509V7.48374V7.43267V7.38191V7.33148V7.28137V7.23161V7.1822V7.13317V7.08451V7.03625V6.94096V6.8474V6.75567V6.66586C17.6666 6.11385 18.114 5.66671 18.6666 5.66671H22.6666C23.2191 5.66671 23.6666 6.11385 23.6666 6.66586V6.67142V6.67698V6.68255V6.68813V6.69371V6.69931V6.70491V6.71052V6.71613V6.72176V6.72739V6.73303V6.73868V6.74434V6.75V6.75567V6.76135V6.76703V6.77273V6.77843V6.78413V6.78985V6.79557V6.8013V6.80704V6.81278V6.81854V6.82429V6.83006V6.83583V6.84162V6.8474V6.8532V6.859V6.86481V6.87063V6.87645V6.88228V6.88812V6.89396V6.89981V6.90567V6.91154V6.91741V6.92329V6.92917V6.93507V6.94096V6.94687V6.95278V6.9587V6.96463V6.97056V6.9765V6.98245V6.9884V6.99436V7.00032V7.0063V7.01227V7.01826V7.02425V7.03025V7.03625V7.04226V7.04828V7.0543V7.06033V7.06637V7.07241V7.07846V7.08451V7.09057V7.09664V7.10271V7.10879V7.11488V7.12097V7.12706V7.13317V7.13928V7.14539V7.15151V7.15764V7.16377V7.16991V7.17605V7.1822V7.18836V7.19452V7.20069V7.20686V7.21304V7.21922V7.22541V7.23161V7.23781V7.24402V7.25023V7.25645V7.26267V7.2689V7.27513V7.28137V7.28761V7.29386V7.30012V7.30638V7.31265V7.31892V7.32519V7.33148V7.33776V7.34406V7.35035V7.35665V7.36296V7.36927V7.37559V7.38191V7.38824V7.39457V7.40091V7.40725V7.4136V7.41995V7.42631V7.43267V7.43904V7.44541V7.45179V7.45817V7.46455V7.47094V7.47734V7.48374V7.49014V7.49655V7.50296V7.50938V7.5158V7.52223V7.52866V7.5351V7.54154V7.54798V7.55443V7.56088V7.56734V7.5738V7.58027V7.58674V7.59321V7.59969V7.60617V7.61266V7.61915V7.62564V7.63214V7.63865V7.64515V7.65167V7.65818V7.6647V7.67122V7.67775V7.68428V7.69081V7.69735V7.70389V7.71044V7.71699V7.72354V7.7301V7.73666V7.74323V7.74979V7.75637V7.76294V7.76952V7.7761V7.78269V7.78928V7.79587V7.80247V7.80907V7.81567V7.82227V7.82888V7.8355V7.84211V7.84873V7.85536V7.86198V7.86861V7.87524V7.88188V7.88852V7.89516V7.9018V7.90845V7.9151V7.92176V7.92841V7.93507V7.94174V7.9484V7.95507V7.96174V7.96841V7.97509V7.98177V7.98845V7.99514V8.00183V8.00852V8.01521V8.0219V8.0286V8.0353V8.04201V8.04871V8.05542V8.06213V8.06885V8.07556V8.08228V8.089V8.09572V8.10245V8.10918V8.11591V8.12264V8.12937V8.13611V8.14285V8.14959V8.15633V8.16308V8.16982V8.17657V8.18333V8.19008V8.19683V8.20359V8.21035V8.21711V8.22388V8.23064V8.23741V8.24418V8.25095V8.25772V8.26449V8.27127V8.27805V8.28483V8.29161V8.29839V8.30517V8.31196V8.31874V8.32553V8.33232V8.33912V8.34591V8.3527V8.3595V8.3663V8.37309V8.37989V8.3867V8.3935V8.4003V8.40711V8.41391V8.42072V8.42753V8.43434V8.44115V8.44796V8.45478V8.46159V8.46841V8.47522V8.48204V8.48886V8.49568V8.5025V8.50932V8.51614V8.52296V8.52978V8.53661V8.54343V8.55026V8.55708V8.56391V8.57074V8.57757V8.58439V8.59122V8.59805V8.60488V8.61171V8.61855V8.62538V8.63221V8.63904V8.64588V8.65271V8.65954V8.66638V8.67321V8.68005V8.68688V8.69372V8.70055V8.70739V8.71422V8.72106V8.72789V8.73473V8.74156V8.7484V8.75524V8.76207V8.76891V8.77574V8.78258V8.78941V8.79625V8.80309V8.80992V8.81675V8.82359V8.83042V8.83726V8.84409V8.85092V8.85776V8.86459V8.87142V8.87825V8.88508V8.89191V8.89874V8.90557V8.9124V8.91923V8.92606V8.93289V8.93971V8.94654V8.95336V8.96019V8.96701V8.97383V8.98066V8.98748V8.9943V9.00112V9.00794V9.01475V9.02157V9.02839V9.0352V9.04201V9.04883V9.05564V9.06245V9.06926V9.07607V9.08287V9.08968V9.09648V9.10329V9.11009V9.11689V9.12369V9.13049V9.13728V9.14408V9.15087V9.15766V9.16446V9.17124V9.17803V9.18482V9.1916V9.19839V9.20517V9.21195V9.21873V9.2255V9.23228V9.23905V9.24582V9.25259V9.25936V9.26613V9.27289V9.27965V9.28641V9.29317V9.29993V9.30668V9.31343V9.32018V9.32693V9.33368V9.34042V9.34717V9.35391V9.36064V9.36738V9.37411V9.38084V9.38757V9.3943V9.40102V9.40774V9.41446V9.42118V9.4279V9.43461V9.44132V9.44802V9.45473V9.46143V9.46813V9.47483V9.48152V9.48821V9.4949V9.50159V9.50827V9.51495V9.52163V9.52831V9.53498V9.54165V9.54832V9.55498V9.56164V9.5683V9.57496V9.58161V9.58826V9.5949V9.60155V9.60819V9.61482V9.62146V9.62809V9.63472V9.64134V9.64796V9.65458V9.66119V9.6678V9.67441V9.68102V9.68762V9.69422V9.70081V9.7074V9.71399V9.72057V9.72715V9.73373V9.7403V9.74687V9.75344V9.76V9.76656V9.77312V9.77967V9.78622V9.79276V9.7993V9.80584V9.81237V9.8189V9.82542V9.83195V9.83846V9.84498V9.85148V9.85799V9.86449V9.87099V9.87748V9.88397V9.89045V9.89693V9.90341V9.90988V9.91635V9.92282V9.92928V9.93573V9.94218V9.94863V9.95507V9.96151V9.96794V9.97437V9.98079V9.98721V9.99363V10C23.6666 11.5427 22.8988 12.626 22.1103 13.3356C21.7158 13.6907 21.3201 13.948 21.0231 14.1163C20.8749 14.2003 20.7522 14.2616 20.6677 14.3014C20.6673 14.3016 20.6669 14.3017 20.6666 14.3019C20.6662 14.3017 20.6659 14.3016 20.6655 14.3014C20.581 14.2616 20.4583 14.2003 20.3101 14.1163C20.0131 13.948 19.6174 13.6907 19.2229 13.3356C18.4344 12.626 17.6666 11.5427 17.6666 10Z" fill="white" stroke="white" stroke-width="0.666667"/>
</mask>
<g mask="url(#mask2)">
</g>
<path d="M0 -0.333333H-0.901086L-0.21693 0.253086L4.33333 4.15331V5.16179L-0.193746 8.39542L-0.333333 8.49513V8.66667V9.33333V9.93475L0.176666 9.616L5.42893 6.33333H6.55984L11.0821 9.56351C11.176 9.6306 11.2886 9.66667 11.404 9.66667C11.9182 9.66667 12.1548 9.02698 11.7644 8.69237L7.66667 5.18002V4.17154L12.0542 1.03762C12.2294 0.912475 12.3333 0.710428 12.3333 0.495127V0V-0.601416L11.8233 -0.282666L6.57107 3H5.44016L0.860413 -0.271244L0.773488 -0.333333H0.666667H0Z" fill="#DB1E36" stroke="white" stroke-width="0.666667"/>
<path fill-rule="evenodd" clip-rule="evenodd" d="M0 3.33333V6H4.66667V9.33333C4.66667 9.70152 4.96514 10 5.33333 10H6.66667C7.03486 10 7.33333 9.70152 7.33333 9.33333V6H12C12.3682 6 12.6667 5.70152 12.6667 5.33333V4C12.6667 3.63181 12.3682 3.33333 12 3.33333H7.33333V0H4.66667V3.33333H0Z" fill="white"/>
<path fill-rule="evenodd" clip-rule="evenodd" d="M0 4H5.33333V3.33333V0H6.66667V3.33333V4H12V5.33333H6.66667V6V9.33333H5.33333V6V5.33333H0V4Z" fill="#DB1E36"/>
</g>
</svg>
