<svg width="28" height="20" viewBox="0 0 28 20" fill="none" xmlns="http://www.w3.org/2000/svg">
<rect width="28" height="20" rx="2" fill="white"/>
<mask id="mask0" mask-type="alpha" maskUnits="userSpaceOnUse" x="0" y="0" width="28" height="20">
<rect width="28" height="20" rx="2" fill="white"/>
</mask>
<g mask="url(#mask0)">
<rect width="28" height="20" fill="#19BFBF"/>
<path fill-rule="evenodd" clip-rule="evenodd" d="M17.0977 17.7643L16.0557 16.7223C16.0191 16.6857 15.9916 16.6411 15.9752 16.592L15.4093 14.8944C15.364 14.7584 15.2367 14.6667 15.0933 14.6667C14.8767 14.6667 14.7177 14.8703 14.7702 15.0805L15.2876 17.1503C15.316 17.2639 15.2828 17.384 15.2 17.4668L14.9025 17.7643C14.7723 17.8945 14.5612 17.8945 14.431 17.7643L14.0977 17.431C14.0352 17.3685 14.0001 17.2837 14.0001 17.1953V16.0787C14.0001 16.027 13.988 15.9759 13.9649 15.9296L13.4255 14.8509C13.3691 14.738 13.2537 14.6667 13.1274 14.6667H11.4121C11.3604 14.6667 11.3093 14.6787 11.263 14.7019L10.1236 15.2716C10.0445 15.3111 9.98438 15.3805 9.95642 15.4643L9.37708 17.2024C9.34912 17.2862 9.28899 17.3556 9.20992 17.3951L8.14915 17.9255C8.05531 17.9724 7.94485 17.9724 7.85101 17.9255L6.85101 17.4255C6.73808 17.369 6.66675 17.2536 6.66675 17.1273V15C6.66675 14.8159 6.81599 14.6667 7.00008 14.6667H8.33341C8.51751 14.6667 8.66675 14.5174 8.66675 14.3334V13.3874C8.66675 13.3516 8.67252 13.316 8.68385 13.282L9.25744 11.5613C9.30281 11.4252 9.43019 11.3334 9.57367 11.3334H10.5881C10.6398 11.3334 10.6908 11.3213 10.7371 11.2982L11.9297 10.7019C11.976 10.6787 12.027 10.6667 12.0788 10.6667H13.0001C13.1842 10.6667 13.3334 10.5174 13.3334 10.3334V10.1381C13.3334 10.0497 13.3685 9.9649 13.431 9.90239L13.6731 9.66037C13.8339 9.49949 14.1052 9.5435 14.2069 9.747L14.5746 10.4824C14.6311 10.5954 14.7465 10.6667 14.8728 10.6667H16.4265C16.57 10.6667 16.6974 10.5749 16.7427 10.4388L17.2574 8.89461C17.3028 8.7585 17.4302 8.66669 17.5737 8.66669H18.3334C18.5175 8.66669 18.6667 8.51745 18.6667 8.33335C18.6667 8.14926 18.5175 8.00002 18.3334 8.00002H17.6667C17.4827 8.00002 17.3334 7.85078 17.3334 7.66669V6.74538C17.3334 6.69363 17.3455 6.64259 17.3686 6.59631L17.8926 5.54824C17.9568 5.41991 17.9317 5.26492 17.8302 5.16347L17.5691 4.90239C17.4389 4.77221 17.2279 4.77221 17.0977 4.90239L16.0977 5.90239C16.0352 5.9649 16.0001 6.04969 16.0001 6.13809V7.27926C16.0001 7.31509 15.9943 7.35068 15.983 7.38467L15.4094 9.10543C15.364 9.24154 15.2366 9.33335 15.0932 9.33335H14.8048C14.7164 9.33335 14.6316 9.29823 14.5691 9.23572L14.0962 8.76277C14.0346 8.70125 14.0001 8.61781 14.0001 8.53081C14.0001 8.28694 13.7434 8.12834 13.5253 8.2374L12.8816 8.55924C12.7533 8.62341 12.5983 8.59826 12.4969 8.4968L12.0977 8.09765C12.0352 8.03514 12.0001 7.95035 12.0001 7.86195V6.80476C12.0001 6.71635 12.0352 6.63157 12.0977 6.56906L13.3334 5.33335L15.2778 3.389C15.3144 3.3524 15.359 3.32483 15.4081 3.30847L17.2821 2.68379C17.3161 2.67246 17.3517 2.66669 17.3875 2.66669H18.4607C18.587 2.66669 18.7024 2.73802 18.7589 2.85095L19.2982 3.92964C19.3214 3.97592 19.3334 4.02696 19.3334 4.07871V5.86195C19.3334 5.95035 19.3685 6.03514 19.431 6.09765L19.8544 6.52101C19.9437 6.61029 19.9749 6.74235 19.9349 6.86213L19.4139 8.42515C19.3664 8.56776 19.4202 8.72453 19.5453 8.80791L21.3334 10L22.329 10.4978C22.5083 10.5875 22.5685 10.814 22.4573 10.9809L21.3894 12.5827C21.3529 12.6375 21.3334 12.7018 21.3334 12.7676V14.4264C21.3334 14.5699 21.2416 14.6973 21.1055 14.7427L19.4644 15.2897C19.3805 15.3176 19.3112 15.3778 19.2717 15.4568L18.6909 16.6183C18.6749 16.6503 18.6538 16.6796 18.6285 16.7049L17.5691 17.7643C17.4389 17.8945 17.2279 17.8945 17.0977 17.7643ZM11.3334 17.3334C11.7016 17.3334 12.0001 17.0349 12.0001 16.6667C12.0001 16.2985 11.7016 16 11.3334 16C10.9652 16 10.6667 16.2985 10.6667 16.6667C10.6667 17.0349 10.9652 17.3334 11.3334 17.3334ZM9.33341 8.66669C9.33341 9.03488 9.03494 9.33335 8.66675 9.33335C8.29856 9.33335 8.00008 9.03488 8.00008 8.66669C8.00008 8.2985 8.29856 8.00002 8.66675 8.00002C9.03494 8.00002 9.33341 8.2985 9.33341 8.66669Z" fill="white"/>
<path fill-rule="evenodd" clip-rule="evenodd" d="M9.96473 8.73707C9.98787 8.69078 9.99992 8.63975 9.99992 8.588V8.07871C9.99992 8.02696 9.98787 7.97592 9.96473 7.92964L9.57445 7.14909C9.46364 6.92746 9.6248 6.66669 9.8726 6.66669H10.3333C10.5173 6.66669 10.6666 6.81593 10.6666 7.00002V8.588C10.6666 8.63975 10.6786 8.69078 10.7018 8.73707L11.092 9.51762C11.2029 9.73925 11.0417 10 10.7939 10H9.8726C9.6248 10 9.46364 9.73925 9.57445 9.51762L9.96473 8.73707Z" fill="white"/>
</g>
</svg>
