<svg width="28" height="20" viewBox="0 0 28 20" fill="none" xmlns="http://www.w3.org/2000/svg">
<rect x="0.25" y="0.25" width="27.5" height="19.5" rx="1.75" fill="white" stroke="#F5F5F5" stroke-width="0.5"/>
<mask id="mask0" mask-type="alpha" maskUnits="userSpaceOnUse" x="0" y="0" width="28" height="20">
<rect x="0.25" y="0.25" width="27.5" height="19.5" rx="1.75" fill="white" stroke="white" stroke-width="0.5"/>
</mask>
<g mask="url(#mask0)">
<path fill-rule="evenodd" clip-rule="evenodd" d="M19.9999 3.33329C20.363 3.15174 20.7315 3.56919 20.5064 3.90697L20.0672 4.56576C20.0228 4.63234 19.9656 4.68948 19.8991 4.73387L18.0548 5.96334C18.0183 5.98769 17.9843 6.01559 17.9532 6.04664L17.8047 6.19522C17.5443 6.45557 17.5443 6.87768 17.8047 7.13803L18.1952 7.52855C18.4555 7.7889 18.4555 8.21101 18.1952 8.47136L17.673 8.99352C17.4701 9.19643 17.1601 9.24673 16.9035 9.1184L16.5962 8.96477C16.2669 8.80011 15.8664 8.93359 15.7018 9.26291L15.4567 9.75297C15.3777 9.91111 15.239 10.0314 15.0713 10.0873L13.4359 10.6324C13.3679 10.6551 13.2967 10.6666 13.2251 10.6666H12.4119C12.1594 10.6666 11.9286 10.8093 11.8157 11.0352L11.6314 11.4037C11.4667 11.733 11.0663 11.8665 10.737 11.7018L8.76335 10.715C8.69926 10.683 8.64075 10.6408 8.59009 10.5901L7.52851 9.52855C7.40349 9.40353 7.33325 9.23396 7.33325 9.05715V8.47136C7.33325 8.21101 7.54431 7.99996 7.80466 7.99996C7.92968 7.99996 8.04958 7.95029 8.13799 7.86189L9.13799 6.86189C9.26301 6.73686 9.43258 6.66663 9.60939 6.66663H10.1861C10.473 6.66663 10.7278 6.48301 10.8185 6.21078L11.1471 5.22495C11.2535 4.90598 11.5807 4.71611 11.9103 4.78204L14.5196 5.30389C14.6164 5.32325 14.7163 5.32087 14.812 5.29693L17.2623 4.68438C17.3094 4.67258 17.3552 4.65565 17.3987 4.6339L18.6666 3.99996L19.9999 3.33329Z" fill="#E7832C"/>
<path fill-rule="evenodd" clip-rule="evenodd" d="M13.9999 16C14.3681 16 14.6666 15.7015 14.6666 15.3333C14.6666 14.9651 14.3681 14.6666 13.9999 14.6666C13.6317 14.6666 13.3333 14.9651 13.3333 15.3333C13.3333 15.7015 13.6317 16 13.9999 16Z" fill="#445128"/>
<path opacity="0.75" d="M16 14.6666C16 14.6666 18 14 18.6667 12.6666" stroke="#445128" stroke-width="1.33333" stroke-linecap="round"/>
<path opacity="0.75" d="M12 14.6666C12 14.6666 10 14 9.33333 12.6666" stroke="#445128" stroke-width="1.33333" stroke-linecap="round"/>
</g>
</svg>
