<svg width="28" height="20" viewBox="0 0 28 20" fill="none" xmlns="http://www.w3.org/2000/svg">
<rect x="0.25" y="0.25" width="27.5" height="19.5" rx="1.75" fill="white" stroke="#F5F5F5" stroke-width="0.5"/>
<mask id="mask0" mask-type="alpha" maskUnits="userSpaceOnUse" x="0" y="0" width="28" height="20">
<rect x="0.25" y="0.25" width="27.5" height="19.5" rx="1.75" fill="white" stroke="white" stroke-width="0.5"/>
</mask>
<g mask="url(#mask0)">
<path fill-rule="evenodd" clip-rule="evenodd" d="M0 6.66667H28V0H0V6.66667Z" fill="#38BB56"/>
<path fill-rule="evenodd" clip-rule="evenodd" d="M0 20H28V13.3334H0V20Z" fill="#DE1B27"/>
<path fill-rule="evenodd" clip-rule="evenodd" d="M1.66659 5.33337C1.48249 5.33337 1.33325 5.48261 1.33325 5.66671V6.33337C1.33325 6.51747 1.48249 6.66671 1.66659 6.66671H2.33325C2.51735 6.66671 2.66659 6.51747 2.66659 6.33337V5.66671C2.66659 5.48261 2.51735 5.33337 2.33325 5.33337H1.66659ZM4.33325 5.33337C4.14916 5.33337 3.99992 5.48261 3.99992 5.66671V6.33337C3.99992 6.51747 4.14916 6.66671 4.33325 6.66671H4.99992C5.18401 6.66671 5.33325 6.51747 5.33325 6.33337V5.66671C5.33325 5.48261 5.18401 5.33337 4.99992 5.33337H4.33325ZM6.66659 5.66671C6.66659 5.48261 6.81582 5.33337 6.99992 5.33337H7.66658C7.85068 5.33337 7.99992 5.48261 7.99992 5.66671V6.33337C7.99992 6.51747 7.85068 6.66671 7.66659 6.66671H6.99992C6.81582 6.66671 6.66659 6.51747 6.66659 6.33337V5.66671ZM9.66658 5.33337C9.48249 5.33337 9.33325 5.48261 9.33325 5.66671V6.33337C9.33325 6.51747 9.48249 6.66671 9.66659 6.66671H10.3333C10.5173 6.66671 10.6666 6.51747 10.6666 6.33337V5.66671C10.6666 5.48261 10.5173 5.33337 10.3333 5.33337H9.66658ZM11.9999 5.66671C11.9999 5.48261 12.1492 5.33337 12.3333 5.33337H12.9999C13.184 5.33337 13.3333 5.48261 13.3333 5.66671V6.33337C13.3333 6.51747 13.184 6.66671 12.9999 6.66671H12.3333C12.1492 6.66671 11.9999 6.51747 11.9999 6.33337V5.66671ZM14.9999 5.33337C14.8158 5.33337 14.6666 5.48261 14.6666 5.66671V6.33337C14.6666 6.51747 14.8158 6.66671 14.9999 6.66671H15.6666C15.8507 6.66671 15.9999 6.51747 15.9999 6.33337V5.66671C15.9999 5.48261 15.8507 5.33337 15.6666 5.33337H14.9999ZM17.3333 5.66671C17.3333 5.48261 17.4825 5.33337 17.6666 5.33337H18.3333C18.5173 5.33337 18.6666 5.48261 18.6666 5.66671V6.33337C18.6666 6.51747 18.5173 6.66671 18.3333 6.66671H17.6666C17.4825 6.66671 17.3333 6.51747 17.3333 6.33337V5.66671ZM20.3333 5.33337C20.1492 5.33337 19.9999 5.48261 19.9999 5.66671V6.33337C19.9999 6.51747 20.1492 6.66671 20.3333 6.66671H20.9999C21.184 6.66671 21.3333 6.51747 21.3333 6.33337V5.66671C21.3333 5.48261 21.184 5.33337 20.9999 5.33337H20.3333ZM22.6666 5.66671C22.6666 5.48261 22.8158 5.33337 22.9999 5.33337H23.6666C23.8507 5.33337 23.9999 5.48261 23.9999 5.66671V6.33337C23.9999 6.51747 23.8507 6.66671 23.6666 6.66671H22.9999C22.8158 6.66671 22.6666 6.51747 22.6666 6.33337V5.66671ZM25.6666 5.33337C25.4825 5.33337 25.3333 5.48261 25.3333 5.66671V6.33337C25.3333 6.51747 25.4825 6.66671 25.6666 6.66671H26.3333C26.5173 6.66671 26.6666 6.51747 26.6666 6.33337V5.66671C26.6666 5.48261 26.5173 5.33337 26.3333 5.33337H25.6666ZM1.33325 13.6667C1.33325 13.4826 1.48249 13.3334 1.66659 13.3334H2.33325C2.51735 13.3334 2.66659 13.4826 2.66659 13.6667V14.3334C2.66659 14.5175 2.51735 14.6667 2.33325 14.6667H1.66659C1.48249 14.6667 1.33325 14.5175 1.33325 14.3334V13.6667ZM4.33325 13.3334C4.14916 13.3334 3.99992 13.4826 3.99992 13.6667V14.3334C3.99992 14.5175 4.14916 14.6667 4.33325 14.6667H4.99992C5.18401 14.6667 5.33325 14.5175 5.33325 14.3334V13.6667C5.33325 13.4826 5.18401 13.3334 4.99992 13.3334H4.33325ZM6.66659 13.6667C6.66659 13.4826 6.81582 13.3334 6.99992 13.3334H7.66658C7.85068 13.3334 7.99992 13.4826 7.99992 13.6667V14.3334C7.99992 14.5175 7.85068 14.6667 7.66659 14.6667H6.99992C6.81582 14.6667 6.66659 14.5175 6.66659 14.3334V13.6667ZM9.66658 13.3334C9.48249 13.3334 9.33325 13.4826 9.33325 13.6667V14.3334C9.33325 14.5175 9.48249 14.6667 9.66659 14.6667H10.3333C10.5173 14.6667 10.6666 14.5175 10.6666 14.3334V13.6667C10.6666 13.4826 10.5173 13.3334 10.3333 13.3334H9.66658ZM11.9999 13.6667C11.9999 13.4826 12.1492 13.3334 12.3333 13.3334H12.9999C13.184 13.3334 13.3333 13.4826 13.3333 13.6667V14.3334C13.3333 14.5175 13.184 14.6667 12.9999 14.6667H12.3333C12.1492 14.6667 11.9999 14.5175 11.9999 14.3334V13.6667ZM14.9999 13.3334C14.8158 13.3334 14.6666 13.4826 14.6666 13.6667V14.3334C14.6666 14.5175 14.8158 14.6667 14.9999 14.6667H15.6666C15.8507 14.6667 15.9999 14.5175 15.9999 14.3334V13.6667C15.9999 13.4826 15.8507 13.3334 15.6666 13.3334H14.9999ZM17.3333 13.6667C17.3333 13.4826 17.4825 13.3334 17.6666 13.3334H18.3333C18.5173 13.3334 18.6666 13.4826 18.6666 13.6667V14.3334C18.6666 14.5175 18.5173 14.6667 18.3333 14.6667H17.6666C17.4825 14.6667 17.3333 14.5175 17.3333 14.3334V13.6667ZM20.3333 13.3334C20.1492 13.3334 19.9999 13.4826 19.9999 13.6667V14.3334C19.9999 14.5175 20.1492 14.6667 20.3333 14.6667H20.9999C21.184 14.6667 21.3333 14.5175 21.3333 14.3334V13.6667C21.3333 13.4826 21.184 13.3334 20.9999 13.3334H20.3333ZM22.6666 13.6667C22.6666 13.4826 22.8158 13.3334 22.9999 13.3334H23.6666C23.8507 13.3334 23.9999 13.4826 23.9999 13.6667V14.3334C23.9999 14.5175 23.8507 14.6667 23.6666 14.6667H22.9999C22.8158 14.6667 22.6666 14.5175 22.6666 14.3334V13.6667ZM25.6666 13.3334C25.4825 13.3334 25.3333 13.4826 25.3333 13.6667V14.3334C25.3333 14.5175 25.4825 14.6667 25.6666 14.6667H26.3333C26.5173 14.6667 26.6666 14.5175 26.6666 14.3334V13.6667C26.6666 13.4826 26.5173 13.3334 26.3333 13.3334H25.6666Z" fill="white" fill-opacity="0.5"/>
<mask id="path-6-inside-1" fill="white">
<path fill-rule="evenodd" clip-rule="evenodd" d="M12.6535 8.52112C12.252 8.88691 12 9.41402 12 9.99998C12 11.1045 12.8954 12 14 12C15.1046 12 16 11.1045 16 9.99998C16 9.42508 15.7574 8.90683 15.3691 8.542"/>
</mask>
<path d="M12.2045 8.0283C11.6702 8.5151 11.3333 9.21867 11.3333 9.99998H12.6667C12.6667 9.60936 12.8338 9.25872 13.1025 9.01394L12.2045 8.0283ZM11.3333 9.99998C11.3333 11.4727 12.5272 12.6666 14 12.6666V11.3333C13.2636 11.3333 12.6667 10.7364 12.6667 9.99998H11.3333ZM14 12.6666C15.4728 12.6666 16.6667 11.4727 16.6667 9.99998H15.3333C15.3333 10.7364 14.7364 11.3333 14 11.3333V12.6666ZM16.6667 9.99998C16.6667 9.23349 16.3424 8.54167 15.8255 8.0561L14.9126 9.0279C15.1724 9.27199 15.3333 9.61666 15.3333 9.99998H16.6667Z" fill="#D80915" mask="url(#path-6-inside-1)"/>
<rect x="13.3333" y="9.33337" width="1.33333" height="2.66667" rx="0.666667" fill="#D80915"/>
</g>
</svg>
