<svg width="28" height="20" viewBox="0 0 28 20" fill="none" xmlns="http://www.w3.org/2000/svg">
<rect x="0.25" y="0.25" width="27.5" height="19.5" rx="1.75" fill="white" stroke="#F5F5F5" stroke-width="0.5"/>
<mask id="mask0" mask-type="alpha" maskUnits="userSpaceOnUse" x="0" y="0" width="28" height="20">
<rect x="0.25" y="0.25" width="27.5" height="19.5" rx="1.75" fill="white" stroke="white" stroke-width="0.5"/>
</mask>
<g mask="url(#mask0)">
<path fill-rule="evenodd" clip-rule="evenodd" d="M0 5.33333H28V0H0V5.33333Z" fill="#D82332"/>
<path fill-rule="evenodd" clip-rule="evenodd" d="M0 20H28V14.6666H0V20Z" fill="#D82332"/>
<path fill-rule="evenodd" clip-rule="evenodd" d="M13.0676 10.7527L12.7832 11.018C13.0403 11.0901 13.3971 11.0061 13.5391 10.7527H13.0676Z" fill="#064A89"/>
<path fill-rule="evenodd" clip-rule="evenodd" d="M10.7725 10.9334C10.9649 11.1259 11.2838 11.1034 11.4763 10.9816C11.6689 10.8597 11.8103 10.8519 11.9303 10.8647C11.943 10.9733 11.9714 11.1126 12.0201 11.2502H10.8782C10.8498 11.1797 10.7945 11.0152 10.7725 10.9334Z" fill="#064A89"/>
<path fill-rule="evenodd" clip-rule="evenodd" d="M10.9841 11.4478C11.2083 11.3419 11.4374 11.4258 11.5365 11.5022C11.7196 11.6434 12.022 11.6051 12.1704 11.525C12.227 11.6173 12.2958 11.7082 12.3787 11.7776H11.1569C11.1073 11.6974 11 11.5006 10.9841 11.4478Z" fill="#064A89"/>
<path fill-rule="evenodd" clip-rule="evenodd" d="M16.2983 12.3248C16.3519 12.2703 16.4245 12.1805 16.4719 12.1164C16.393 12.1068 16.3012 12.0497 16.2037 12.001C16.0237 11.9111 15.8517 11.9111 15.6986 12.017C15.4714 12.1741 15.1873 12.2126 14.9663 12.0555C14.7239 11.883 14.4992 11.9207 14.3098 12.0299C14.1204 12.1388 14.0005 12.1453 13.8868 12.1453C13.7732 12.1453 13.6533 12.1388 13.4639 12.0299C13.2745 11.9207 13.0498 11.883 12.8074 12.0555C12.5864 12.2126 12.3023 12.1741 12.0751 12.017C11.922 11.9111 11.75 11.9111 11.57 12.001C11.4723 12.0497 11.3807 12.1068 11.3018 12.1164C11.3492 12.1805 11.4218 12.2703 11.4754 12.3248H16.2983Z" fill="#064A89"/>
<path fill-rule="evenodd" clip-rule="evenodd" d="M15.7068 12.8611C15.7573 12.829 15.8962 12.7232 15.9656 12.6687C15.8899 12.6847 15.7172 12.6285 15.628 12.5821C15.369 12.4473 15.1986 12.4602 15.0062 12.5628C14.8136 12.6655 14.5421 12.72 14.3433 12.611C14.1445 12.5019 14.0023 12.473 13.8982 12.473C13.7941 12.473 13.652 12.5019 13.4531 12.611C13.2543 12.72 12.9829 12.6655 12.7903 12.5628C12.5978 12.4602 12.4274 12.4473 12.1685 12.5821C12.0793 12.6285 11.9066 12.6847 11.8308 12.6687C11.9002 12.7232 12.0392 12.829 12.0896 12.8611H15.7068Z" fill="#064A89"/>
<path fill-rule="evenodd" clip-rule="evenodd" d="M14.5684 11.795C14.5148 11.7662 14.452 11.699 14.3948 11.6128C14.3033 11.4748 14.1581 11.3978 13.9403 11.3978C13.7225 11.3978 13.5773 11.4748 13.4858 11.6128C13.4286 11.699 13.3658 11.7662 13.3123 11.795H14.5684Z" fill="#064A89"/>
<path fill-rule="evenodd" clip-rule="evenodd" d="M14.2104 11.2998C14.1883 11.2613 14.141 11.1394 14.1252 11.0752C14.0746 11.0913 13.9768 11.0977 13.92 11.0977C13.8632 11.0977 13.7654 11.0913 13.7148 11.0752C13.6991 11.1394 13.6518 11.2613 13.6296 11.2998H14.2104Z" fill="#064A89"/>
<path fill-rule="evenodd" clip-rule="evenodd" d="M14.7361 10.7527L15.0205 11.018C14.7634 11.0901 14.4067 11.0061 14.2646 10.7527H14.7361Z" fill="#064A89"/>
<path fill-rule="evenodd" clip-rule="evenodd" d="M17.0997 10.9334C16.9072 11.1259 16.5883 11.1034 16.3959 10.9816C16.2033 10.8597 16.0618 10.8519 15.9418 10.8647C15.929 10.9733 15.9007 11.1126 15.8521 11.2502H16.994C17.0223 11.1797 17.0776 11.0152 17.0997 10.9334Z" fill="#064A89"/>
<path fill-rule="evenodd" clip-rule="evenodd" d="M16.929 11.4478C16.7049 11.3419 16.4758 11.4258 16.3766 11.5022C16.1936 11.6434 15.8911 11.6051 15.7428 11.525C15.6862 11.6173 15.6174 11.7082 15.5344 11.7776H16.7562C16.8059 11.6974 16.9133 11.5006 16.929 11.4478Z" fill="#064A89"/>
<path fill-rule="evenodd" clip-rule="evenodd" d="M15.1588 13.0715C14.7761 13.2302 14.3572 13.3179 13.9183 13.3179C13.4789 13.3179 13.0603 13.2304 12.6772 13.0713C12.7593 13.0618 12.8679 13.0215 12.9556 12.972C13.0977 12.8918 13.3564 12.8757 13.4796 12.9559C13.6026 13.0362 13.751 13.1163 13.9183 13.1163C14.0856 13.1163 14.234 13.0362 14.357 12.9559C14.4801 12.8757 14.7389 12.8918 14.8811 12.972C14.9686 13.0215 15.0767 13.062 15.1588 13.0715Z" fill="#064A89"/>
<path fill-rule="evenodd" clip-rule="evenodd" d="M14.6253 6.72688C13.9341 6.58258 13.3123 6.66591 13.3123 7.32667C13.3123 7.97452 13.3123 8.93667 13.3123 9.13559C13.3123 9.33441 13.3162 9.35957 13.549 9.41462C14.0539 9.53409 14.1013 9.54613 14.6505 9.6743V7.81419C14.2213 7.76602 14.0571 7.52129 14.0571 7.23688C14.0571 6.96107 14.2464 6.7814 14.6253 6.72688Z" fill="#514537"/>
<path fill-rule="evenodd" clip-rule="evenodd" d="M12.854 11.8285C12.4689 11.8285 12.0649 11.4885 12.0649 10.8406C12.0649 10.1927 12.0649 9.37804 12.0649 9.23051C12.0649 9.08459 12.0811 9.06406 12.0476 9.03008C12.0279 9.01008 12.0697 8.9804 12.098 8.95148C12.1407 8.90814 12.1699 8.87212 12.1123 8.81352C12.0547 8.75502 12.0792 8.73976 12.1155 8.70298C12.1518 8.66599 12.166 8.62922 12.1313 8.59384C12.0966 8.55857 12.0886 8.54739 12.1265 8.5089C12.1644 8.4704 12.1486 8.45438 12.1171 8.42223C12.0855 8.39019 12.0705 8.36696 12.1107 8.3261C12.1502 8.28599 12.1533 8.27954 12.1991 8.27954C12.2449 8.27954 12.3443 8.27954 12.3885 8.27954C12.4328 8.27954 12.4335 8.2932 12.3964 8.33094C12.3482 8.37976 12.334 8.399 12.3885 8.45438C12.4429 8.50965 12.4406 8.52814 12.4059 8.56341C12.3537 8.61632 12.3309 8.65244 12.3838 8.70621C12.4367 8.75986 12.4413 8.78395 12.4011 8.82481C12.3609 8.86567 12.3569 8.9018 12.4011 8.94664C12.4351 8.98115 12.4374 9.00126 12.4374 9.06212C12.4374 9.42943 12.4374 10.4301 12.4374 10.7059C12.4374 10.9817 12.6331 11.1485 13.0056 11.1485C13.378 11.1485 13.5043 10.9945 13.6116 10.8919C13.5422 11.3858 13.3402 11.8285 12.854 11.8285Z" fill="#514537"/>
<path fill-rule="evenodd" clip-rule="evenodd" d="M13.9408 10.2549C13.9929 10.2708 14.0434 10.3478 14.0434 10.4313H14.146C14.146 10.3607 14.1159 10.2517 14.0616 10.1843C14.0607 10.1666 14.0584 10.1515 14.0545 10.1362C14.0923 10.088 14.1476 10.0111 14.146 9.93729C14.1449 9.89074 14.0908 9.89246 14.0844 9.92934C14.0792 9.95966 14.0592 10.0063 14.0213 10.0223C14.0213 9.96299 13.9881 9.89246 13.9408 9.89246C13.8935 9.89246 13.8603 9.96299 13.8603 10.0223C13.8224 10.0063 13.8024 9.95966 13.7972 9.92934C13.7909 9.89246 13.7366 9.89074 13.7356 9.93729C13.734 10.0111 13.7893 10.088 13.8272 10.1362C13.8232 10.1515 13.8209 10.1666 13.8201 10.1843C13.7657 10.2517 13.7356 10.3607 13.7356 10.4313H13.8383C13.8383 10.3478 13.8888 10.2708 13.9408 10.2549Z" fill="#514537"/>
<path fill-rule="evenodd" clip-rule="evenodd" d="M13.4118 10.2549C13.4638 10.2708 13.5144 10.3478 13.5144 10.4313H13.6169C13.6169 10.3607 13.587 10.2517 13.5325 10.1843C13.5318 10.1666 13.5293 10.1515 13.5254 10.1362C13.5633 10.088 13.6185 10.0111 13.6169 9.93729C13.616 9.89074 13.5617 9.89246 13.5554 9.92934C13.5502 9.95966 13.5301 10.0063 13.4923 10.0223C13.4923 9.96299 13.4592 9.89246 13.4118 9.89246C13.3645 9.89246 13.3313 9.96299 13.3313 10.0223C13.2935 10.0063 13.2733 9.95966 13.2682 9.92934C13.2618 9.89246 13.2076 9.89074 13.2066 9.93729C13.205 10.0111 13.2602 10.088 13.2981 10.1362C13.2942 10.1515 13.2919 10.1666 13.291 10.1843C13.2366 10.2517 13.2066 10.3607 13.2066 10.4313H13.3092C13.3092 10.3478 13.3597 10.2708 13.4118 10.2549Z" fill="#514537"/>
<path fill-rule="evenodd" clip-rule="evenodd" d="M12.8825 10.2549C12.9345 10.2708 12.985 10.3478 12.985 10.4313H13.0876C13.0876 10.3607 13.0576 10.2517 13.0032 10.1843C13.0024 10.1666 13 10.1515 12.9961 10.1362C13.034 10.088 13.0892 10.0111 13.0876 9.93729C13.0866 9.89074 13.0324 9.89246 13.0261 9.92934C13.0209 9.95966 13.0008 10.0063 12.9629 10.0223C12.9629 9.96299 12.9298 9.89246 12.8825 9.89246C12.8351 9.89246 12.8019 9.96299 12.8019 10.0223C12.7641 10.0063 12.7441 9.95966 12.7389 9.92934C12.7325 9.89246 12.6782 9.89074 12.6773 9.93729C12.6757 10.0111 12.7309 10.088 12.7688 10.1362C12.7649 10.1515 12.7625 10.1666 12.7617 10.1843C12.7072 10.2517 12.6773 10.3607 12.6773 10.4313H12.7798C12.7798 10.3478 12.8304 10.2708 12.8825 10.2549Z" fill="#514537"/>
<path fill-rule="evenodd" clip-rule="evenodd" d="M14.4699 10.2549C14.4178 10.2708 14.3673 10.3478 14.3673 10.4313H14.2647C14.2647 10.3607 14.2946 10.2517 14.3491 10.1843C14.3499 10.1666 14.3523 10.1515 14.3563 10.1362C14.3183 10.088 14.2631 10.0111 14.2647 9.93729C14.2657 9.89074 14.3199 9.89246 14.3263 9.92934C14.3315 9.95966 14.3516 10.0063 14.3893 10.0223C14.3893 9.96299 14.4226 9.89246 14.4699 9.89246C14.5173 9.89246 14.5504 9.96299 14.5504 10.0223C14.5882 10.0063 14.6083 9.95966 14.6135 9.92934C14.6198 9.89246 14.674 9.89074 14.6751 9.93729C14.6766 10.0111 14.6214 10.088 14.5835 10.1362C14.5874 10.1515 14.5899 10.1666 14.5906 10.1843C14.6451 10.2517 14.6751 10.3607 14.6751 10.4313H14.5724C14.5724 10.3478 14.5219 10.2708 14.4699 10.2549Z" fill="#514537"/>
<path fill-rule="evenodd" clip-rule="evenodd" d="M14.9989 10.2549C14.9469 10.2708 14.8964 10.3478 14.8964 10.4313H14.7937C14.7937 10.3607 14.8238 10.2517 14.8782 10.1843C14.879 10.1666 14.8814 10.1515 14.8853 10.1362C14.8474 10.088 14.7921 10.0111 14.7937 9.93729C14.7947 9.89074 14.849 9.89246 14.8553 9.92934C14.8605 9.95966 14.8805 10.0063 14.9184 10.0223C14.9184 9.96299 14.9516 9.89246 14.9989 9.89246C15.0463 9.89246 15.0794 9.96299 15.0794 10.0223C15.1173 10.0063 15.1373 9.95966 15.1425 9.92934C15.1489 9.89246 15.203 9.89074 15.2041 9.93729C15.2057 10.0111 15.1505 10.088 15.1126 10.1362C15.1165 10.1515 15.1188 10.1666 15.1197 10.1843C15.1742 10.2517 15.2041 10.3607 15.2041 10.4313H15.1016C15.1016 10.3478 15.051 10.2708 14.9989 10.2549Z" fill="#514537"/>
<path fill-rule="evenodd" clip-rule="evenodd" d="M12.5715 10.5376H15.3491V10.6709H12.5715V10.5376Z" fill="#514537"/>
<path fill-rule="evenodd" clip-rule="evenodd" d="M15.0222 11.8285C15.4073 11.8285 15.8113 11.4885 15.8113 10.8406C15.8113 10.1927 15.8113 9.37804 15.8113 9.23051C15.8113 9.08459 15.7951 9.06406 15.8287 9.03008C15.8484 9.01008 15.8066 8.9804 15.7782 8.95148C15.7355 8.90814 15.7063 8.87212 15.7639 8.81352C15.8216 8.75502 15.797 8.73976 15.7608 8.70298C15.7244 8.66599 15.7103 8.62922 15.745 8.59384C15.7797 8.55857 15.7876 8.54739 15.7497 8.5089C15.7118 8.4704 15.7276 8.45438 15.7591 8.42223C15.7908 8.39019 15.8057 8.36696 15.7655 8.3261C15.726 8.28599 15.723 8.27954 15.6771 8.27954C15.6313 8.27954 15.532 8.27954 15.4877 8.27954C15.4436 8.27954 15.4427 8.2932 15.4799 8.33094C15.528 8.37976 15.5422 8.399 15.4877 8.45438C15.4333 8.50965 15.4357 8.52814 15.4704 8.56341C15.5225 8.61632 15.5453 8.65244 15.4925 8.70621C15.4396 8.75986 15.4348 8.78395 15.4751 8.82481C15.5153 8.86567 15.5194 8.9018 15.4751 8.94664C15.4412 8.98115 15.4388 9.00126 15.4388 9.06212C15.4388 9.42943 15.4388 10.4301 15.4388 10.7059C15.4388 10.9817 15.2431 11.1485 14.8707 11.1485C14.4982 11.1485 14.3721 10.9945 14.2646 10.8919C14.3341 11.3858 14.5361 11.8285 15.0222 11.8285Z" fill="#514537"/>
<path fill-rule="evenodd" clip-rule="evenodd" d="M12.5715 9.67422C12.5715 9.67422 12.5716 9.57959 12.5716 9.46228L13.1269 9.67432L12.5715 9.67422Z" fill="#EEA339"/>
<path fill-rule="evenodd" clip-rule="evenodd" d="M11.9092 9.77273L10.6667 9.60252C10.7028 9.33198 10.7711 9.06821 10.8693 8.81714L11.9092 9.2366V9.77273Z" fill="#EEA339"/>
<path fill-rule="evenodd" clip-rule="evenodd" d="M14.4763 7.69589L14.6972 6.77417C14.9556 6.83783 15.2068 6.93374 15.4449 7.06019L14.7326 8.44557L14.7352 7.74998C14.6529 7.75041 14.5268 7.73761 14.4763 7.69589Z" fill="#EEA339"/>
<path fill-rule="evenodd" clip-rule="evenodd" d="M11.9385 9.86298L10.6729 9.78491C10.6566 10.0546 10.6728 10.3267 10.7215 10.5952C10.7215 10.5952 11.9385 10.603 11.9385 10.5952V9.86298Z" fill="#EEA339"/>
<path fill-rule="evenodd" clip-rule="evenodd" d="M11.9258 8.99549C11.8849 8.94098 11.9102 8.91195 11.9543 8.88302C11.9985 8.8542 11.9922 8.83173 11.9702 8.79012C11.948 8.7484 11.9259 8.70345 11.967 8.65861C12.008 8.61367 11.9922 8.59442 11.9606 8.56238C11.9291 8.53033 11.9259 8.49506 11.9543 8.46937C11.9828 8.44367 11.9764 8.42442 11.9576 8.39883C11.9385 8.37313 11.9014 8.32109 11.9346 8.28743L11.4183 7.84937C11.2477 8.05668 11.1017 8.28549 10.9841 8.53087L11.9258 8.99549Z" fill="#EEA339"/>
<path fill-rule="evenodd" clip-rule="evenodd" d="M13.1628 9.23433L12.5475 8.62799C12.6343 8.53981 12.643 8.52541 12.5815 8.46283C12.5144 8.39465 12.5119 8.38756 12.6485 8.24874C12.695 8.20154 12.669 8.16852 12.6027 8.16852C12.5365 8.16852 12.2318 8.16852 12.1971 8.16852C12.1624 8.16852 12.1351 8.17035 12.1097 8.19616L11.6191 7.71358C11.8063 7.51777 12.0154 7.34691 12.2413 7.20422L13.1628 8.71014V9.23433Z" fill="#EEA339"/>
<path fill-rule="evenodd" clip-rule="evenodd" d="M12.5227 9.3266C12.5227 9.17596 12.5228 9.02682 12.5228 9.00563C12.5228 8.96069 12.5197 8.94305 12.485 8.90778C12.4503 8.87252 12.4676 8.85563 12.4945 8.81714L13.0782 9.31122V9.60133L12.5227 9.3266Z" fill="#EEA339"/>
<path fill-rule="evenodd" clip-rule="evenodd" d="M13.0696 8.44632C13.0696 8.15697 13.0696 7.88933 13.0696 7.73514C13.0696 7.27331 13.0951 7.04234 13.1613 6.99589L13.1083 6.77417C12.8492 6.84503 12.598 6.94094 12.3599 7.0674L13.0696 8.44632Z" fill="#EEA339"/>
<path fill-rule="evenodd" clip-rule="evenodd" d="M15.349 9.67422C15.349 9.67422 15.3489 9.57959 15.3489 9.46228L14.7937 9.67432L15.349 9.67422Z" fill="#EEA339"/>
<path fill-rule="evenodd" clip-rule="evenodd" d="M15.9578 9.77273L17.2002 9.60252C17.1641 9.33198 17.0959 9.06821 16.9977 8.81714L15.9578 9.2366V9.77273Z" fill="#EEA339"/>
<path fill-rule="evenodd" clip-rule="evenodd" d="M15.9578 9.86298L17.2233 9.78491C17.2396 10.0546 17.2235 10.3267 17.1747 10.5952C17.1747 10.5952 15.9578 10.603 15.9578 10.5952V9.86298Z" fill="#EEA339"/>
<path fill-rule="evenodd" clip-rule="evenodd" d="M15.9179 8.99549C15.9589 8.94098 15.9335 8.91195 15.8894 8.88302C15.8452 8.8542 15.8515 8.83173 15.8735 8.79012C15.8957 8.7484 15.9178 8.70345 15.8767 8.65861C15.8357 8.61367 15.8515 8.59442 15.8831 8.56238C15.9146 8.53033 15.9178 8.49506 15.8894 8.46937C15.861 8.44367 15.8673 8.42442 15.8861 8.39883C15.9052 8.37313 15.9422 8.32109 15.9091 8.28743L16.4254 7.84937C16.596 8.05668 16.7419 8.28549 16.8595 8.53087L15.9179 8.99549Z" fill="#EEA339"/>
<path fill-rule="evenodd" clip-rule="evenodd" d="M14.7937 9.23433L15.409 8.62799C15.3222 8.53981 15.3135 8.52541 15.3751 8.46283C15.4422 8.39465 15.4446 8.38756 15.3081 8.24874C15.2614 8.20154 15.2876 8.16852 15.3538 8.16852C15.4201 8.16852 15.7247 8.16852 15.7594 8.16852C15.7941 8.16852 15.8214 8.17035 15.8468 8.19616L16.3374 7.71358C16.1502 7.51777 15.9411 7.34691 15.7153 7.20422L14.7937 8.71014V9.23433Z" fill="#EEA339"/>
<path fill-rule="evenodd" clip-rule="evenodd" d="M15.3492 9.3266C15.3492 9.17596 15.349 9.02682 15.349 9.00563C15.349 8.96069 15.3522 8.94305 15.3869 8.90778C15.4216 8.87252 15.4043 8.85563 15.3774 8.81714L14.7937 9.31122V9.60133L15.3492 9.3266Z" fill="#EEA339"/>
<path fill-rule="evenodd" clip-rule="evenodd" d="M12.1482 9.03223C12.1703 9.0547 12.1798 9.07707 12.1798 9.13158C12.1798 9.1861 12.1798 10.3792 12.1798 10.8475C12.1798 11.4184 12.5207 11.7359 12.8711 11.7359C13.193 11.7359 13.4045 11.4376 13.515 11.0913C13.373 11.2035 13.1646 11.2388 12.9657 11.2388C12.7353 11.2388 12.3629 11.0817 12.3629 10.7417C12.3629 10.4274 12.3629 9.26309 12.3629 9.07707C12.3629 9.03223 12.3187 9.03223 12.1482 9.03223Z" fill="#D82332"/>
<path fill-rule="evenodd" clip-rule="evenodd" d="M14.1611 6.78402C13.721 6.73875 13.3128 6.83176 13.3128 7.44186C13.3128 8.08337 13.3128 8.86584 13.3128 9.06283C13.3128 9.33348 13.2918 9.30133 13.5175 9.35821C13.9271 9.46143 13.9735 9.47455 14.4702 9.58982V7.94057C14.0461 7.89337 13.8623 7.61111 13.8623 7.29853C13.8623 7.04982 13.9704 6.81574 14.1611 6.78402Z" fill="#D82332"/>
<path fill-rule="evenodd" clip-rule="evenodd" d="M15.7371 9.03223C15.715 9.0547 15.7055 9.07707 15.7055 9.13158C15.7055 9.1861 15.7055 10.3792 15.7055 10.8475C15.7055 11.4184 15.3646 11.7359 15.0143 11.7359C14.6924 11.7359 14.4808 11.4376 14.3704 11.0913C14.5125 11.2035 14.7207 11.2388 14.9197 11.2388C15.15 11.2388 15.5224 11.0817 15.5224 10.7417C15.5224 10.4274 15.5224 9.26309 15.5224 9.07707C15.5224 9.03223 15.5667 9.03223 15.7371 9.03223Z" fill="#D82332"/>
<mask id="mask1" mask-type="alpha" maskUnits="userSpaceOnUse" x="10" y="6" width="8" height="8">
<path fill-rule="evenodd" clip-rule="evenodd" d="M14.0001 13.3333C15.841 13.3333 17.3334 11.8409 17.3334 9.99996C17.3334 8.15901 15.841 6.66663 14.0001 6.66663C12.1591 6.66663 10.6667 8.15901 10.6667 9.99996C10.6667 11.8409 12.1591 13.3333 14.0001 13.3333Z" fill="white"/>
</mask>
<g mask="url(#mask1)">
<path fill-rule="evenodd" clip-rule="evenodd" d="M14.0001 18.6667C15.841 18.6667 17.3334 17.1743 17.3334 15.3333C17.3334 13.4924 15.841 12 14.0001 12C12.1591 12 10.6667 13.4924 10.6667 15.3333C10.6667 17.1743 12.1591 18.6667 14.0001 18.6667Z" fill="#064A89"/>
</g>
</g>
</svg>
