<svg width="28" height="20" viewBox="0 0 28 20" fill="none" xmlns="http://www.w3.org/2000/svg">
<rect width="28" height="20" rx="2" fill="white"/>
<mask id="mask0" mask-type="alpha" maskUnits="userSpaceOnUse" x="0" y="0" width="28" height="20">
<rect width="28" height="20" rx="2" fill="white"/>
</mask>
<g mask="url(#mask0)">
<path fill-rule="evenodd" clip-rule="evenodd" d="M0 4H28V0H0V4Z" fill="#1461B6"/>
<path fill-rule="evenodd" clip-rule="evenodd" d="M0 20H28V16H0V20Z" fill="#1461B6"/>
<path fill-rule="evenodd" clip-rule="evenodd" d="M0 16H28V4H0V16Z" fill="white"/>
<path fill-rule="evenodd" clip-rule="evenodd" d="M0 14.6667H28V5.33337H0V14.6667Z" fill="#F53846"/>
<path fill-rule="evenodd" clip-rule="evenodd" d="M13.3334 9.99996C13.3334 11.8409 11.841 13.3333 10.0001 13.3333C8.15913 13.3333 6.66675 11.8409 6.66675 9.99996C6.66675 8.15901 8.15913 6.66663 10.0001 6.66663L9.21387 8.91784L6.82989 8.9699L8.72797 10.4133L8.0408 12.6967L10.0001 11.3375L11.9594 12.6967L11.2722 10.4133L13.1703 8.9699L10.7863 8.91784L10.0001 6.66663C11.841 6.66663 13.3334 8.15901 13.3334 9.99996Z" fill="white"/>
</g>
</svg>
