<svg width="28" height="20" viewBox="0 0 28 20" fill="none" xmlns="http://www.w3.org/2000/svg">
<rect width="28" height="20" rx="2" fill="white"/>
<mask id="mask0" mask-type="alpha" maskUnits="userSpaceOnUse" x="0" y="0" width="28" height="20">
<rect width="28" height="20" rx="2" fill="white"/>
</mask>
<g mask="url(#mask0)">
<path fill-rule="evenodd" clip-rule="evenodd" d="M28 0H0V1.33333H28V0ZM28 2.66667H0V4H28V2.66667ZM0 5.33333H28V6.66667H0V5.33333ZM28 8H0V9.33333H28V8ZM0 10.6667H28V12H0V10.6667ZM28 13.3333H0V14.6667H28V13.3333ZM0 16H28V17.3333H0V16ZM28 18.6667H0V20H28V18.6667Z" fill="#D02F44"/>
<rect width="12" height="9.33333" fill="#46467F"/>
<g filter="url(#filter0_d)">
<path fill-rule="evenodd" clip-rule="evenodd" d="M2.66659 1.99998C2.66659 2.36817 2.36811 2.66665 1.99992 2.66665C1.63173 2.66665 1.33325 2.36817 1.33325 1.99998C1.33325 1.63179 1.63173 1.33331 1.99992 1.33331C2.36811 1.33331 2.66659 1.63179 2.66659 1.99998ZM5.33325 1.99998C5.33325 2.36817 5.03478 2.66665 4.66659 2.66665C4.2984 2.66665 3.99992 2.36817 3.99992 1.99998C3.99992 1.63179 4.2984 1.33331 4.66659 1.33331C5.03478 1.33331 5.33325 1.63179 5.33325 1.99998ZM7.33325 2.66665C7.70144 2.66665 7.99992 2.36817 7.99992 1.99998C7.99992 1.63179 7.70144 1.33331 7.33325 1.33331C6.96506 1.33331 6.66659 1.63179 6.66659 1.99998C6.66659 2.36817 6.96506 2.66665 7.33325 2.66665ZM10.6666 1.99998C10.6666 2.36817 10.3681 2.66665 9.99992 2.66665C9.63173 2.66665 9.33325 2.36817 9.33325 1.99998C9.33325 1.63179 9.63173 1.33331 9.99992 1.33331C10.3681 1.33331 10.6666 1.63179 10.6666 1.99998ZM3.33325 3.99998C3.70144 3.99998 3.99992 3.7015 3.99992 3.33331C3.99992 2.96512 3.70144 2.66665 3.33325 2.66665C2.96506 2.66665 2.66659 2.96512 2.66659 3.33331C2.66659 3.7015 2.96506 3.99998 3.33325 3.99998ZM6.66659 3.33331C6.66659 3.7015 6.36811 3.99998 5.99992 3.99998C5.63173 3.99998 5.33325 3.7015 5.33325 3.33331C5.33325 2.96512 5.63173 2.66665 5.99992 2.66665C6.36811 2.66665 6.66659 2.96512 6.66659 3.33331ZM8.66658 3.99998C9.03477 3.99998 9.33325 3.7015 9.33325 3.33331C9.33325 2.96512 9.03477 2.66665 8.66658 2.66665C8.2984 2.66665 7.99992 2.96512 7.99992 3.33331C7.99992 3.7015 8.2984 3.99998 8.66658 3.99998ZM10.6666 4.66665C10.6666 5.03484 10.3681 5.33331 9.99992 5.33331C9.63173 5.33331 9.33325 5.03484 9.33325 4.66665C9.33325 4.29846 9.63173 3.99998 9.99992 3.99998C10.3681 3.99998 10.6666 4.29846 10.6666 4.66665ZM7.33325 5.33331C7.70144 5.33331 7.99992 5.03484 7.99992 4.66665C7.99992 4.29846 7.70144 3.99998 7.33325 3.99998C6.96506 3.99998 6.66659 4.29846 6.66659 4.66665C6.66659 5.03484 6.96506 5.33331 7.33325 5.33331ZM5.33325 4.66665C5.33325 5.03484 5.03478 5.33331 4.66659 5.33331C4.2984 5.33331 3.99992 5.03484 3.99992 4.66665C3.99992 4.29846 4.2984 3.99998 4.66659 3.99998C5.03478 3.99998 5.33325 4.29846 5.33325 4.66665ZM1.99992 5.33331C2.36811 5.33331 2.66659 5.03484 2.66659 4.66665C2.66659 4.29846 2.36811 3.99998 1.99992 3.99998C1.63173 3.99998 1.33325 4.29846 1.33325 4.66665C1.33325 5.03484 1.63173 5.33331 1.99992 5.33331ZM3.99992 5.99998C3.99992 6.36817 3.70144 6.66665 3.33325 6.66665C2.96506 6.66665 2.66659 6.36817 2.66659 5.99998C2.66659 5.63179 2.96506 5.33331 3.33325 5.33331C3.70144 5.33331 3.99992 5.63179 3.99992 5.99998ZM5.99992 6.66665C6.36811 6.66665 6.66659 6.36817 6.66659 5.99998C6.66659 5.63179 6.36811 5.33331 5.99992 5.33331C5.63173 5.33331 5.33325 5.63179 5.33325 5.99998C5.33325 6.36817 5.63173 6.66665 5.99992 6.66665ZM9.33325 5.99998C9.33325 6.36817 9.03477 6.66665 8.66658 6.66665C8.2984 6.66665 7.99992 6.36817 7.99992 5.99998C7.99992 5.63179 8.2984 5.33331 8.66658 5.33331C9.03477 5.33331 9.33325 5.63179 9.33325 5.99998ZM9.99992 7.99998C10.3681 7.99998 10.6666 7.7015 10.6666 7.33331C10.6666 6.96512 10.3681 6.66665 9.99992 6.66665C9.63173 6.66665 9.33325 6.96512 9.33325 7.33331C9.33325 7.7015 9.63173 7.99998 9.99992 7.99998ZM7.99992 7.33331C7.99992 7.7015 7.70144 7.99998 7.33325 7.99998C6.96506 7.99998 6.66659 7.7015 6.66659 7.33331C6.66659 6.96512 6.96506 6.66665 7.33325 6.66665C7.70144 6.66665 7.99992 6.96512 7.99992 7.33331ZM4.66659 7.99998C5.03478 7.99998 5.33325 7.7015 5.33325 7.33331C5.33325 6.96512 5.03478 6.66665 4.66659 6.66665C4.2984 6.66665 3.99992 6.96512 3.99992 7.33331C3.99992 7.7015 4.2984 7.99998 4.66659 7.99998ZM2.66659 7.33331C2.66659 7.7015 2.36811 7.99998 1.99992 7.99998C1.63173 7.99998 1.33325 7.7015 1.33325 7.33331C1.33325 6.96512 1.63173 6.66665 1.99992 6.66665C2.36811 6.66665 2.66659 6.96512 2.66659 7.33331Z" fill="url(#paint0_linear)"/>
</g>
</g>
<defs>
<filter id="filter0_d" x="1.33325" y="1.33331" width="9.33333" height="7.66667" filterUnits="userSpaceOnUse" color-interpolation-filters="sRGB">
<feFlood flood-opacity="0" result="BackgroundImageFix"/>
<feColorMatrix in="SourceAlpha" type="matrix" values="0 0 0 0 0 0 0 0 0 0 0 0 0 0 0 0 0 0 127 0" result="hardAlpha"/>
<feOffset dy="1"/>
<feColorMatrix type="matrix" values="0 0 0 0 0 0 0 0 0 0 0 0 0 0 0 0 0 0 0.06 0"/>
<feBlend mode="normal" in2="BackgroundImageFix" result="effect1_dropShadow"/>
<feBlend mode="normal" in="SourceGraphic" in2="effect1_dropShadow" result="shape"/>
</filter>
<linearGradient id="paint0_linear" x1="1.33325" y1="1.33331" x2="1.33325" y2="7.99998" gradientUnits="userSpaceOnUse">
<stop stop-color="white"/>
<stop offset="1" stop-color="#F0F0F0"/>
</linearGradient>
</defs>
</svg>
