<svg width="28" height="20" viewBox="0 0 28 20" fill="none" xmlns="http://www.w3.org/2000/svg">
<rect width="28" height="20" rx="2" fill="white"/>
<mask id="mask0" mask-type="alpha" maskUnits="userSpaceOnUse" x="0" y="0" width="28" height="20">
<rect width="28" height="20" rx="2" fill="white"/>
</mask>
<g mask="url(#mask0)">
<rect width="28" height="20" fill="#128C4B"/>
<path fill-rule="evenodd" clip-rule="evenodd" d="M6.66675 12H17.3334V11.0787C17.3334 10.5831 17.855 10.2608 18.2982 10.4824L18.6667 10.6667V12H20.6667C21.0349 12 21.3334 12.2985 21.3334 12.6667V13.3334C21.3334 14.0697 20.7365 14.6667 20.0001 14.6667H18.0001C17.6319 14.6667 17.3334 14.3682 17.3334 14V13.3334H8.27622C8.09941 13.3334 7.92984 13.2631 7.80482 13.1381L6.66675 12Z" fill="white"/>
<path fill-rule="evenodd" clip-rule="evenodd" d="M6.66675 8.13811C6.66675 8.04971 6.70187 7.96492 6.76438 7.90241L7.09771 7.56908C7.22789 7.4389 7.22789 7.22785 7.09771 7.09767L6.76438 6.76434C6.70187 6.70183 6.66675 6.61704 6.66675 6.52864V5.66671C6.66675 5.48261 6.81599 5.33337 7.00008 5.33337H7.74544C7.88607 5.33337 8.00008 5.44738 8.00008 5.58802C8.00008 5.85672 8.36232 5.94224 8.48249 5.7019L8.58187 5.50314C8.63389 5.39909 8.74023 5.33337 8.85655 5.33337H10.3334C10.5175 5.33337 10.6667 5.48261 10.6667 5.66671C10.6667 5.8508 10.5175 6.00004 10.3334 6.00004H9.66675C9.48265 6.00004 9.33341 6.14928 9.33341 6.33337C9.33341 6.51747 9.48265 6.66671 9.66675 6.66671H10.3334C10.5175 6.66671 10.6667 6.81595 10.6667 7.00004V9.00004C10.6667 9.18414 10.5175 9.33337 10.3334 9.33337H9.66675C9.48265 9.33337 9.33341 9.18414 9.33341 9.00004V8.33337C9.33341 8.14928 9.48265 8.00004 9.66675 8.00004C9.85084 8.00004 10.0001 7.8508 10.0001 7.66671C10.0001 7.48261 9.85084 7.33337 9.66675 7.33337H9.00008C8.81599 7.33337 8.66675 7.48261 8.66675 7.66671V9.00004C8.66675 9.18414 8.51751 9.33337 8.33341 9.33337C8.14932 9.33337 8.00008 9.18414 8.00008 9.00004V8.33337C8.00008 8.14928 7.85084 8.00004 7.66675 8.00004C7.48265 8.00004 7.33341 8.14928 7.33341 8.33337V9.00004C7.33341 9.18414 7.18418 9.33337 7.00008 9.33337C6.81599 9.33337 6.66675 9.18414 6.66675 9.00004V8.13811Z" fill="white"/>
<path fill-rule="evenodd" clip-rule="evenodd" d="M17.3333 8.13811C17.3333 8.04971 17.3684 7.96492 17.4309 7.90241L17.7642 7.56908C17.8944 7.4389 17.8944 7.22785 17.7642 7.09767L17.4309 6.76434C17.3684 6.70183 17.3333 6.61704 17.3333 6.52864V5.66671C17.3333 5.48261 17.4825 5.33337 17.6666 5.33337H18.4119C18.5526 5.33337 18.6666 5.44738 18.6666 5.58802C18.6666 5.85672 19.0288 5.94224 19.149 5.7019L19.2484 5.50314C19.3004 5.39909 19.4067 5.33337 19.5231 5.33337H20.9999C21.184 5.33337 21.3333 5.48261 21.3333 5.66671C21.3333 5.8508 21.184 6.00004 20.9999 6.00004H20.3333C20.1492 6.00004 19.9999 6.14928 19.9999 6.33337C19.9999 6.51747 20.1492 6.66671 20.3333 6.66671H20.9999C21.184 6.66671 21.3333 6.81595 21.3333 7.00004V9.00004C21.3333 9.18414 21.184 9.33337 20.9999 9.33337H20.3333C20.1492 9.33337 19.9999 9.18414 19.9999 9.00004V8.33337C19.9999 8.14928 20.1492 8.00004 20.3333 8.00004C20.5173 8.00004 20.6666 7.8508 20.6666 7.66671C20.6666 7.48261 20.5173 7.33337 20.3333 7.33337H19.6666C19.4825 7.33337 19.3333 7.48261 19.3333 7.66671V9.00004C19.3333 9.18414 19.184 9.33337 18.9999 9.33337C18.8158 9.33337 18.6666 9.18414 18.6666 9.00004V8.33337C18.6666 8.14928 18.5173 8.00004 18.3333 8.00004C18.1492 8.00004 17.9999 8.14928 17.9999 8.33337V9.00004C17.9999 9.18414 17.8507 9.33337 17.6666 9.33337C17.4825 9.33337 17.3333 9.18414 17.3333 9.00004V8.13811Z" fill="white"/>
<path fill-rule="evenodd" clip-rule="evenodd" d="M16 6.33025C16 6.51607 15.8958 6.77087 15.7593 6.90739L15.574 7.09269C15.4411 7.22562 15.4375 7.43754 15.574 7.57406L15.7593 7.75936C15.8922 7.89228 16 8.14273 16 8.3365V8.99692C16 9.18274 15.8573 9.33337 15.6635 9.33337H15.0031C14.8173 9.33337 14.6667 9.19068 14.6667 8.99692V8.3365C14.6667 8.15068 14.6051 8.12309 14.512 8.30929L14.1546 9.02413C14.0692 9.19492 13.8431 9.33337 13.6697 9.33337H12.3303C12.1479 9.33337 12 9.17875 12 9.00004C12 8.81595 12.1427 8.66671 12.3365 8.66671H12.9969C13.1827 8.66671 13.3333 8.51208 13.3333 8.33337C13.3333 8.14928 13.1906 8.00004 12.9969 8.00004H12.3365C12.1506 8.00004 12 7.85667 12 7.67305V5.66036C12 5.47977 12.1427 5.33337 12.3365 5.33337H12.9969C13.1827 5.33337 13.3333 5.47606 13.3333 5.66983V6.33025C13.3333 6.51607 13.1787 6.66671 13 6.66671C12.8159 6.66671 12.6667 6.82133 12.6667 7.00004C12.6667 7.18414 12.8094 7.33337 13.0031 7.33337H13.6635C13.8494 7.33337 14 7.17644 14 7.00311V5.66363C14 5.48124 14.1546 5.33337 14.3333 5.33337C14.5174 5.33337 14.6667 5.47606 14.6667 5.66983V6.33025C14.6667 6.51607 14.8213 6.66671 15 6.66671C15.1841 6.66671 15.3333 6.52402 15.3333 6.33025V5.66983C15.3333 5.48401 15.488 5.33337 15.6667 5.33337C15.8508 5.33337 16 5.47606 16 5.66983V6.33025Z" fill="white"/>
</g>
</svg>
