<svg width="28" height="20" viewBox="0 0 28 20" fill="none" xmlns="http://www.w3.org/2000/svg">
<rect width="28" height="20" rx="2" fill="white"/>
<mask id="mask0" mask-type="alpha" maskUnits="userSpaceOnUse" x="0" y="0" width="28" height="20">
<rect width="28" height="20" rx="2" fill="white"/>
</mask>
<g mask="url(#mask0)">
<rect width="28" height="20" fill="#19BFBF"/>
<path fill-rule="evenodd" clip-rule="evenodd" d="M9.99992 16.0411C9.99992 16.0138 10.0033 15.9867 10.0099 15.9602L10.6666 13.3334L11.3097 10.7609C11.3251 10.6994 11.3226 10.6347 11.3026 10.5746L10.7102 8.79767C10.6823 8.7138 10.6222 8.64448 10.5431 8.60494L9.51751 8.09215C9.40459 8.03569 9.33325 7.92027 9.33325 7.79401V5.41204C9.33325 5.36029 9.3453 5.30926 9.36844 5.26297L9.99992 4.00002L10.5745 2.85095C10.6309 2.73802 10.7463 2.66669 10.8726 2.66669H14.3333C14.5173 2.66669 14.6666 2.81593 14.6666 3.00002V3.66669C14.6666 3.85078 14.8158 4.00002 14.9999 4.00002H15.6666C15.8507 4.00002 15.9999 4.14926 15.9999 4.33335V5.12734C15.9999 5.2536 16.0713 5.36902 16.1842 5.42548L18.4823 6.57456C18.5953 6.63102 18.6666 6.74644 18.6666 6.8727V7.92133C18.6666 7.97308 18.6545 8.02412 18.6314 8.0704L18.0395 9.25418C18.0136 9.30606 17.9745 9.35028 17.9263 9.38246L16.0736 10.6176C16.0253 10.6498 15.9863 10.694 15.9603 10.7459L14.7062 13.2542C14.6802 13.3061 14.6412 13.3503 14.5929 13.3825L12.7402 14.6176C12.692 14.6498 12.6529 14.694 12.627 14.7459L11.4254 17.1491C11.3689 17.262 11.2535 17.3334 11.1272 17.3334H10.3333C10.1492 17.3334 9.99992 17.1841 9.99992 17V16.0411Z" fill="white"/>
</g>
</svg>
