<svg width="28" height="20" viewBox="0 0 28 20" fill="none" xmlns="http://www.w3.org/2000/svg">
<rect width="28" height="20" rx="2" fill="white"/>
<mask id="mask0" mask-type="alpha" maskUnits="userSpaceOnUse" x="0" y="0" width="28" height="20">
<rect width="28" height="20" rx="2" fill="white"/>
</mask>
<g mask="url(#mask0)">
<rect width="28" height="20" fill="#E4233B"/>
<path fill-rule="evenodd" clip-rule="evenodd" d="M0 0L12 10L0 20V0Z" fill="#34CD4E"/>
<path fill-rule="evenodd" clip-rule="evenodd" d="M28 0L16 10L28 20V0Z" fill="#34CD4E"/>
<path fill-rule="evenodd" clip-rule="evenodd" d="M16.9621 6.39369C16.1563 5.7311 15.1246 5.33328 14 5.33328C12.8753 5.33328 11.8436 5.7311 11.0379 6.39369L-1.2825 -1.9165L-2.77368 0.294263L9.54573 8.60381C9.4077 9.04464 9.3333 9.5136 9.3333 9.99994C9.3333 10.4863 9.4077 10.9552 9.54573 11.3961L-2.77368 19.7056L-1.2825 21.9164L11.0379 13.6062C11.8436 14.2688 12.8753 14.6666 14 14.6666C15.1246 14.6666 16.1563 14.2688 16.9621 13.6062L29.2824 21.9164L30.7736 19.7056L18.4542 11.3961C18.5922 10.9552 18.6666 10.4863 18.6666 9.99994C18.6666 9.5136 18.5922 9.04464 18.4542 8.60381L30.7736 0.294263L29.2824 -1.9165L16.9621 6.39369Z" fill="white"/>
<path fill-rule="evenodd" clip-rule="evenodd" d="M13.9999 8.66673L13.0571 8.94287L13.3333 8.00006L13.0571 7.05725L13.9999 7.33339L14.9427 7.05725L14.6666 8.00006L14.9427 8.94287L13.9999 8.66673ZM11.9999 12.0001L11.0571 12.2762L11.3333 11.3334L11.0571 10.3906L11.9999 10.6667L12.9427 10.3906L12.6666 11.3334L12.9427 12.2762L11.9999 12.0001ZM15.0571 12.2762L15.9999 12.0001L16.9427 12.2762L16.6666 11.3334L16.9427 10.3906L15.9999 10.6667L15.0571 10.3906L15.3333 11.3334L15.0571 12.2762Z" fill="#DF2239"/>
</g>
</svg>
