<svg width="28" height="20" viewBox="0 0 28 20" fill="none" xmlns="http://www.w3.org/2000/svg">
<rect width="28" height="20" rx="2" fill="white"/>
<mask id="mask0" mask-type="alpha" maskUnits="userSpaceOnUse" x="0" y="0" width="28" height="20">
<rect width="28" height="20" rx="2" fill="white"/>
</mask>
<g mask="url(#mask0)">
<rect width="28" height="20" fill="url(#paint0_linear)"/>
<g filter="url(#filter0_d)">
<path fill-rule="evenodd" clip-rule="evenodd" d="M0 20H28V10.6666H0V20Z" fill="#262626"/>
</g>
<g filter="url(#filter1_d)">
<path fill-rule="evenodd" clip-rule="evenodd" d="M0 10.6667H28V0H0V10.6667Z" fill="#DD2137"/>
</g>
<g filter="url(#filter2_d)">
<path fill-rule="evenodd" clip-rule="evenodd" d="M16.1977 11.5528C16.3641 11.2611 16.4961 10.9434 16.5871 10.6039C17.1589 8.47 15.8926 6.27666 13.7587 5.70489C13.403 5.60959 13.0375 5.82065 12.9422 6.17629C12.8469 6.53194 13.0579 6.89749 13.4136 6.99279C14.8362 7.37397 15.6804 8.8362 15.2992 10.2588C15.2469 10.4541 15.1742 10.6385 15.084 10.8103L13.0364 9.44526C12.7301 9.24102 12.3162 9.3238 12.1119 9.63016C11.9077 9.93651 11.9905 10.3504 12.2968 10.5547L14.1741 11.8062C13.5627 12.2023 12.7923 12.3478 12.0332 12.1444C11.6776 12.0491 11.312 12.2602 11.2167 12.6158C11.1214 12.9714 11.3325 13.337 11.6881 13.4323C13.0213 13.7895 14.3776 13.4293 15.3473 12.5883L16.2968 13.2213C16.6032 13.4256 17.0171 13.3428 17.2213 13.0364C17.4256 12.7301 17.3428 12.3162 17.0364 12.1119L16.1977 11.5528ZM12.6666 8.66662C13.0348 8.66662 13.3333 8.36815 13.3333 7.99996C13.3333 7.63177 13.0348 7.33329 12.6666 7.33329C12.2984 7.33329 12 7.63177 12 7.99996C12 8.36815 12.2984 8.66662 12.6666 8.66662Z" fill="#F8D84B"/>
</g>
</g>
<defs>
<filter id="filter0_d" x="0" y="10.6666" width="28" height="9.33333" filterUnits="userSpaceOnUse" color-interpolation-filters="sRGB">
<feFlood flood-opacity="0" result="BackgroundImageFix"/>
<feColorMatrix in="SourceAlpha" type="matrix" values="0 0 0 0 0 0 0 0 0 0 0 0 0 0 0 0 0 0 127 0" result="hardAlpha"/>
<feOffset/>
<feColorMatrix type="matrix" values="0 0 0 0 0 0 0 0 0 0 0 0 0 0 0 0 0 0 0.06 0"/>
<feBlend mode="normal" in2="BackgroundImageFix" result="effect1_dropShadow"/>
<feBlend mode="normal" in="SourceGraphic" in2="effect1_dropShadow" result="shape"/>
</filter>
<filter id="filter1_d" x="0" y="0" width="28" height="10.6667" filterUnits="userSpaceOnUse" color-interpolation-filters="sRGB">
<feFlood flood-opacity="0" result="BackgroundImageFix"/>
<feColorMatrix in="SourceAlpha" type="matrix" values="0 0 0 0 0 0 0 0 0 0 0 0 0 0 0 0 0 0 127 0" result="hardAlpha"/>
<feOffset/>
<feColorMatrix type="matrix" values="0 0 0 0 0 0 0 0 0 0 0 0 0 0 0 0 0 0 0.06 0"/>
<feBlend mode="normal" in2="BackgroundImageFix" result="effect1_dropShadow"/>
<feBlend mode="normal" in="SourceGraphic" in2="effect1_dropShadow" result="shape"/>
</filter>
<filter id="filter2_d" x="11.1938" y="5.68201" width="6.13951" height="8.88758" filterUnits="userSpaceOnUse" color-interpolation-filters="sRGB">
<feFlood flood-opacity="0" result="BackgroundImageFix"/>
<feColorMatrix in="SourceAlpha" type="matrix" values="0 0 0 0 0 0 0 0 0 0 0 0 0 0 0 0 0 0 127 0" result="hardAlpha"/>
<feOffset dy="1"/>
<feColorMatrix type="matrix" values="0 0 0 0 0 0 0 0 0 0 0 0 0 0 0 0 0 0 0.06 0"/>
<feBlend mode="normal" in2="BackgroundImageFix" result="effect1_dropShadow"/>
<feBlend mode="normal" in="SourceGraphic" in2="effect1_dropShadow" result="shape"/>
</filter>
<linearGradient id="paint0_linear" x1="0" y1="0" x2="0" y2="20" gradientUnits="userSpaceOnUse">
<stop stop-color="#FF323E"/>
<stop offset="1" stop-color="#FD0D1B"/>
</linearGradient>
</defs>
</svg>
