<svg width="28" height="20" viewBox="0 0 28 20" fill="none" xmlns="http://www.w3.org/2000/svg">
<rect width="28" height="20" rx="2" fill="white"/>
<mask id="mask0" mask-type="alpha" maskUnits="userSpaceOnUse" x="0" y="0" width="28" height="20">
<rect width="28" height="20" rx="2" fill="white"/>
</mask>
<g mask="url(#mask0)">
<path fill-rule="evenodd" clip-rule="evenodd" d="M0 5.33333H28V0H0V5.33333Z" fill="#262626"/>
<path fill-rule="evenodd" clip-rule="evenodd" d="M0 20H28V14.6666H0V20Z" fill="#018301"/>
<path fill-rule="evenodd" clip-rule="evenodd" d="M0 14.6667H28V5.33337H0V14.6667Z" fill="white"/>
<path fill-rule="evenodd" clip-rule="evenodd" d="M0 13.3333H28V6.66663H0V13.3333Z" fill="#DC0808"/>
<path fill-rule="evenodd" clip-rule="evenodd" d="M14.0001 16.6667C15.3334 16.6667 17.3334 14.0501 17.3334 10C17.3334 5.94995 15.3334 3.33337 14.0001 3.33337C12.6667 3.33337 10.6667 5.94995 10.6667 10C10.6667 14.0501 12.6667 16.6667 14.0001 16.6667Z" fill="#BC0000"/>
<mask id="mask1" mask-type="alpha" maskUnits="userSpaceOnUse" x="10" y="3" width="8" height="14">
<path fill-rule="evenodd" clip-rule="evenodd" d="M14.0001 16.6667C15.3334 16.6667 17.3334 14.0501 17.3334 10C17.3334 5.94995 15.3334 3.33337 14.0001 3.33337C12.6667 3.33337 10.6667 5.94995 10.6667 10C10.6667 14.0501 12.6667 16.6667 14.0001 16.6667Z" fill="white"/>
</mask>
<g mask="url(#mask1)">
<path fill-rule="evenodd" clip-rule="evenodd" d="M8.66683 17.3334C10.5078 17.3334 12.0002 14.0502 12.0002 10.0001C12.0002 5.94999 10.5078 2.66675 8.66683 2.66675C6.82588 2.66675 5.3335 5.94999 5.3335 10.0001C5.3335 14.0502 6.82588 17.3334 8.66683 17.3334Z" fill="#262626"/>
<path fill-rule="evenodd" clip-rule="evenodd" d="M19.3333 17.3334C21.1743 17.3334 22.6667 14.0502 22.6667 10.0001C22.6667 5.94999 21.1743 2.66675 19.3333 2.66675C17.4924 2.66675 16 5.94999 16 10.0001C16 14.0502 17.4924 17.3334 19.3333 17.3334Z" fill="#262626"/>
<g filter="url(#filter0_d)">
<path fill-rule="evenodd" clip-rule="evenodd" d="M14.0002 8.00008C14.3684 8.00008 14.6668 6.80617 14.6668 5.33341C14.6668 3.86066 14.3684 2.66675 14.0002 2.66675C13.632 2.66675 13.3335 3.86066 13.3335 5.33341C13.3335 6.80617 13.632 8.00008 14.0002 8.00008ZM14.0002 12.0001C14.3684 12.0001 14.6668 11.1047 14.6668 10.0001C14.6668 8.89551 14.3684 8.00008 14.0002 8.00008C13.632 8.00008 13.3335 8.89551 13.3335 10.0001C13.3335 11.1047 13.632 12.0001 14.0002 12.0001ZM14.0002 12.0001C13.632 12.0001 13.3335 13.194 13.3335 14.6667C13.3335 16.1395 13.632 17.3334 14.0002 17.3334C14.3684 17.3334 14.6668 16.1395 14.6668 14.6667C14.6668 13.194 14.3684 12.0001 14.0002 12.0001Z" fill="url(#paint0_linear)"/>
</g>
</g>
</g>
<defs>
<filter id="filter0_d" x="13.3335" y="2.66675" width="1.33333" height="15.6667" filterUnits="userSpaceOnUse" color-interpolation-filters="sRGB">
<feFlood flood-opacity="0" result="BackgroundImageFix"/>
<feColorMatrix in="SourceAlpha" type="matrix" values="0 0 0 0 0 0 0 0 0 0 0 0 0 0 0 0 0 0 127 0" result="hardAlpha"/>
<feOffset dy="1"/>
<feColorMatrix type="matrix" values="0 0 0 0 0 0 0 0 0 0 0 0 0 0 0 0 0 0 0.06 0"/>
<feBlend mode="normal" in2="BackgroundImageFix" result="effect1_dropShadow"/>
<feBlend mode="normal" in="SourceGraphic" in2="effect1_dropShadow" result="shape"/>
</filter>
<linearGradient id="paint0_linear" x1="13.3335" y1="2.66675" x2="13.3335" y2="17.3334" gradientUnits="userSpaceOnUse">
<stop stop-color="white"/>
<stop offset="1" stop-color="#F0F0F0"/>
</linearGradient>
</defs>
</svg>
