<svg width="28" height="20" viewBox="0 0 28 20" fill="none" xmlns="http://www.w3.org/2000/svg">
<rect x="0.25" y="0.25" width="27.5" height="19.5" rx="1.75" fill="white" stroke="#F5F5F5" stroke-width="0.5"/>
<mask id="mask0" mask-type="alpha" maskUnits="userSpaceOnUse" x="0" y="0" width="28" height="20">
<rect x="0.25" y="0.25" width="27.5" height="19.5" rx="1.75" fill="white" stroke="white" stroke-width="0.5"/>
</mask>
<g mask="url(#mask0)">
<path fill-rule="evenodd" clip-rule="evenodd" d="M0 6.66667H28V0H0V6.66667Z" fill="#04AAC8"/>
<path fill-rule="evenodd" clip-rule="evenodd" d="M0 20H28V13.3333H0V20Z" fill="#23C840"/>
<path fill-rule="evenodd" clip-rule="evenodd" d="M4.66675 5.33331C5.07803 5.33331 5.46031 5.20917 5.77817 4.99631C5.74135 4.99874 5.70419 4.99998 5.66675 4.99998C4.74627 4.99998 4.00008 4.25379 4.00008 3.33331C4.00008 2.41284 4.74627 1.66665 5.66675 1.66665C5.70419 1.66665 5.74135 1.66788 5.77817 1.67031C5.46031 1.45746 5.07803 1.33331 4.66675 1.33331C3.56218 1.33331 2.66675 2.22874 2.66675 3.33331C2.66675 4.43788 3.56218 5.33331 4.66675 5.33331ZM8.00008 4.66665C8.00008 5.03484 7.7016 5.33331 7.33341 5.33331C6.96522 5.33331 6.66675 5.03484 6.66675 4.66665C6.66675 4.29846 6.96522 3.99998 7.33341 3.99998C7.7016 3.99998 8.00008 4.29846 8.00008 4.66665ZM10.0001 2.66665C10.3683 2.66665 10.6667 2.36817 10.6667 1.99998C10.6667 1.63179 10.3683 1.33331 10.0001 1.33331C9.63189 1.33331 9.33341 1.63179 9.33341 1.99998C9.33341 2.36817 9.63189 2.66665 10.0001 2.66665ZM13.3334 1.99998C13.3334 2.36817 13.0349 2.66665 12.6667 2.66665C12.2986 2.66665 12.0001 2.36817 12.0001 1.99998C12.0001 1.63179 12.2986 1.33331 12.6667 1.33331C13.0349 1.33331 13.3334 1.63179 13.3334 1.99998ZM12.6667 5.33331C13.0349 5.33331 13.3334 5.03484 13.3334 4.66665C13.3334 4.29846 13.0349 3.99998 12.6667 3.99998C12.2986 3.99998 12.0001 4.29846 12.0001 4.66665C12.0001 5.03484 12.2986 5.33331 12.6667 5.33331ZM10.6667 4.66665C10.6667 5.03484 10.3683 5.33331 10.0001 5.33331C9.63189 5.33331 9.33341 5.03484 9.33341 4.66665C9.33341 4.29846 9.63189 3.99998 10.0001 3.99998C10.3683 3.99998 10.6667 4.29846 10.6667 4.66665Z" fill="white"/>
</g>
</svg>
