<svg width="28" height="20" viewBox="0 0 28 20" fill="none" xmlns="http://www.w3.org/2000/svg">
<rect width="28" height="20" rx="2" fill="white"/>
<mask id="mask0" mask-type="alpha" maskUnits="userSpaceOnUse" x="0" y="0" width="28" height="20">
<rect width="28" height="20" rx="2" fill="white"/>
</mask>
<g mask="url(#mask0)">
<rect width="28" height="20" fill="url(#paint0_linear)"/>
<path fill-rule="evenodd" clip-rule="evenodd" d="M13.4444 3.33335C13.3723 3.33335 13.3021 3.35675 13.2444 3.40002L10.7205 5.29297C10.6849 5.31962 10.6444 5.3389 10.6013 5.34968L8.03545 5.99115C8.01186 5.99704 7.98898 6.00551 7.96722 6.01638L5.43267 7.28366C5.36816 7.31592 5.31585 7.36823 5.28359 7.43273L4.08646 9.827C4.03297 9.93399 4.0409 10.0614 4.10725 10.161L5.2773 11.916C5.31381 11.9708 5.33329 12.0351 5.33329 12.1009V13.8619C5.33329 13.9504 5.3684 14.0351 5.43092 14.0977L6.49673 15.1635C6.59819 15.2649 6.75318 15.2901 6.88151 15.2259L10.5962 13.3685C10.6425 13.3454 10.6936 13.3334 10.7453 13.3334H13.2126C13.2906 13.3334 13.3661 13.3607 13.426 13.4106L17.2406 16.5894C17.3005 16.6393 17.376 16.6667 17.454 16.6667H19.8216C19.933 16.6667 20.0371 16.611 20.0989 16.5183L22.6106 12.7507C22.6471 12.6959 22.6666 12.6316 22.6666 12.5658V10.1009C22.6666 10.0351 22.6471 9.9708 22.6106 9.91605L20 6.00002L18.0971 2.82852C18.0368 2.72812 17.9283 2.66669 17.8112 2.66669H17.3927C17.1247 2.66669 16.9906 2.99063 17.18 3.18008C17.2715 3.27161 17.2942 3.41145 17.2363 3.52723L16.7587 4.48242C16.7023 4.59535 16.5869 4.66669 16.4606 4.66669H14.8726C14.7464 4.66669 14.631 4.59535 14.5745 4.48242L14.0921 3.51762C14.0356 3.40469 13.9202 3.33335 13.7939 3.33335H13.4444ZM19.3333 17.3334H18L18.4309 17.7643C18.5611 17.8945 18.7721 17.8945 18.9023 17.7643L19.3333 17.3334Z" fill="white"/>
</g>
<defs>
<linearGradient id="paint0_linear" x1="0" y1="0" x2="0" y2="20" gradientUnits="userSpaceOnUse">
<stop stop-color="#19BFBF"/>
<stop offset="1" stop-color="#10ACAC"/>
</linearGradient>
</defs>
</svg>
