<svg width="100" height="100" viewBox="0 0 100 100" fill="none" xmlns="http://www.w3.org/2000/svg">
<circle cx="50" cy="50" r="50" fill="#383E46"/>
<path d="M50 77.75C65.3259 77.75 77.75 65.3259 77.75 50C77.75 34.6741 65.3259 22.25 50 22.25C34.6741 22.25 22.25 34.6741 22.25 50C22.25 65.3259 34.6741 77.75 50 77.75Z" stroke="#7B8899" stroke-width="4" stroke-miterlimit="10"/>
<path d="M50 59.25C56.3858 59.25 61.5625 54.0733 61.5625 47.6875C61.5625 41.3017 56.3858 36.125 50 36.125C43.6142 36.125 38.4375 41.3017 38.4375 47.6875C38.4375 54.0733 43.6142 59.25 50 59.25Z" stroke="#7B8899" stroke-width="4" stroke-miterlimit="10"/>
<path d="M31.4419 70.6316C33.1838 67.2068 35.8395 64.3308 39.1149 62.322C42.3902 60.3133 46.1576 59.25 49.9999 59.25C53.8423 59.25 57.6096 60.3132 60.885 62.322C64.1604 64.3308 66.8161 67.2067 68.558 70.6315" stroke="#7B8899" stroke-width="4" stroke-linecap="round" stroke-linejoin="round"/>
</svg>
