<svg width="60" height="60" viewBox="0 0 60 60" fill="none" xmlns="http://www.w3.org/2000/svg">
<path d="M46.1859 56.9079V61.138C46.1859 61.6143 45.8001 62 45.3239 62H13.862C13.3857 62 13 61.6143 13 61.138V56.9079C13 52.4699 16.5977 48.8744 21.0368 48.8734C22.6056 48.8723 23.9869 48.0653 24.7821 46.8413C25.5809 45.6136 25.4986 44.5461 25.4986 43.6832L25.5147 43.6434C21.6466 42.0423 18.9261 38.2313 18.9261 33.7847V33.4474C17.3901 33.4474 16.2324 32.2337 16.2324 30.8033V26.3254C16.1979 24.7664 16.269 19.2681 20.2406 15.4399C24.8586 10.9889 32.1767 11.3531 37.4778 13.7343C37.6502 13.8119 37.6448 14.0586 37.4703 14.1308L36.0879 14.6997C35.881 14.7848 35.9252 15.0897 36.1472 15.1134L36.8184 15.1856C40.4301 15.5713 43.4351 17.7273 44.9339 20.282C44.9479 20.3068 44.9436 20.3391 44.9231 20.3606C43.7293 21.5782 43.0612 23.217 43.0612 24.9237V30.6471C43.0612 32.1911 41.8103 33.4474 40.2598 33.4474V33.7847C40.2598 38.2313 37.5392 42.0423 33.6711 43.6434L33.6873 43.6832C33.6873 44.5216 33.5983 45.6034 34.4038 46.8413C35.199 48.0653 36.5803 48.8723 38.1491 48.8734C42.5882 48.8744 46.1859 52.4699 46.1859 56.9079Z" fill="#FFD6A6"/>
<path d="M44.9331 20.2822C44.9475 20.3066 44.9432 20.3394 44.9223 20.3607C43.7292 21.5787 43.061 23.2177 43.061 24.924V30.6474C43.061 32.1913 41.8104 33.4477 40.2596 33.4477C40.2596 30.1872 40.2614 28.4833 40.2608 27.5675C40.2604 26.9892 39.7017 26.5737 39.1491 26.7437C37.412 27.2781 35.3858 27.5535 33.2563 27.0907C29.509 26.2762 28.4477 24.8076 25.391 24.0739C21.9755 23.255 18.8778 25.8711 18.8993 29.2176C18.9058 30.3177 18.9241 31.6925 18.9263 33.4477C17.3904 33.4477 16.2327 32.234 16.2327 30.8036V26.3257C16.1982 24.7667 16.2693 19.2684 20.2408 15.4402C24.8583 10.9891 32.177 11.3535 37.4772 13.7349C37.6496 13.8124 37.6451 14.0592 37.4702 14.1312L36.0877 14.7003C35.8811 14.7854 35.9246 15.09 36.1468 15.1138L36.8183 15.1859C40.4302 15.5721 43.435 17.7273 44.9331 20.2822Z" fill="#42434D"/>
<path d="M39.1488 26.7432C39.7015 26.5731 40.2601 26.9883 40.2606 27.5665C40.2613 28.5141 40.2594 30.3043 40.2594 33.7844C40.2594 38.2311 37.5388 42.0421 33.6707 43.6432C26.676 46.5466 18.9255 41.3887 18.9255 33.7844C18.9255 31.818 18.9057 30.4208 18.8985 29.2171C18.877 25.8705 21.9747 23.2545 25.3903 24.0733C28.4471 24.8071 29.5084 26.2757 33.2558 27.0902C35.3854 27.5529 37.4117 27.2776 39.1488 26.7432Z" fill="#FFDFBA"/>
<path d="M46.1859 56.9075V61.1377C46.1859 61.6137 45.7999 61.9997 45.3239 61.9997H13.862C13.3859 61.9997 13 61.6137 13 61.1377V56.9075C13 52.4694 16.5982 48.8744 21.0363 48.8728C22.6055 48.8723 23.9871 48.0643 24.7821 46.8407C27.557 49.2114 31.6273 49.2128 34.4038 46.8407C35.1987 48.0643 36.5804 48.8723 38.1496 48.8728C42.5877 48.8744 46.1859 52.4694 46.1859 56.9075Z" fill="#42434D"/>
<path d="M25.378 51.4757C24.9796 51.601 24.5523 51.67 24.0941 51.674C19.6447 51.7132 16.0169 55.2315 16.0169 59.6813V60.4912C16.0169 61.3243 15.3415 61.9997 14.5084 61.9997H13.862C13.3859 61.9997 13 61.6137 13 61.1377V56.9075C13 52.4694 16.5982 48.8744 21.0362 48.8728C22.6054 48.8723 23.987 48.0643 24.782 46.8407C25.1024 47.1144 25.4455 47.3604 25.8069 47.5757C27.3964 48.523 27.1431 50.9207 25.378 51.4757Z" fill="#4D4E59"/>
<path d="M33.8085 51.4757C34.207 51.601 34.6343 51.67 35.0924 51.674C39.5418 51.7132 43.1695 55.2315 43.1695 59.6813V60.4912C43.1695 61.3243 43.8449 61.9997 44.6779 61.9997H45.3244C45.8004 61.9997 46.1864 61.6137 46.1864 61.1377V56.9075C46.1864 52.4694 42.5883 48.8744 38.1503 48.8728C36.5811 48.8723 35.1995 48.0643 34.4046 46.8407C34.0842 47.1144 33.7411 47.3604 33.3797 47.5757C31.7903 48.523 32.0435 50.9207 33.8085 51.4757Z" fill="#2C2C33"/>
<path d="M33.8089 45.4525C31.1544 46.5638 28.2371 46.65 25.3767 45.4525C25.5228 44.8462 25.4985 44.4535 25.4985 43.6829L25.5146 43.6431C28.1094 44.7203 31.0712 44.7224 33.671 43.6431L33.6871 43.6829C33.6871 44.4538 33.6628 44.8464 33.8089 45.4525Z" fill="#F7C388"/>
<path d="M37.4699 14.1308C36.4541 14.5485 36.2292 14.6957 35.7627 14.6189C27.2134 13.2115 20.4814 17.6817 19.5604 26.4169C19.5443 26.5702 19.5049 26.7208 19.437 26.8591C18.7813 28.1938 18.8979 29.1817 18.9118 30.8239C18.9263 32.5516 16.3228 32.6623 16.2355 30.9367C16.23 30.829 16.2322 31.113 16.2322 26.3254C16.1977 24.7664 16.2688 19.2681 20.2403 15.4399C24.8583 10.9889 32.1764 11.3531 37.4774 13.7343C37.6498 13.8119 37.6444 14.0586 37.4699 14.1308Z" fill="#4D4E59"/>
<path d="M27.1792 40.6736C28.9324 41.7699 27.5488 44.4601 25.6298 43.6901C21.6887 42.1085 18.9262 38.2662 18.9262 33.7846C18.9262 31.8157 18.9064 30.4257 18.8993 29.2173C18.8925 28.1354 19.2113 27.13 19.7615 26.2924C20.453 25.2396 22.1225 25.6984 22.1317 27.0624C22.1388 28.2749 22.1586 29.6588 22.1586 31.6297C22.1585 35.562 24.226 38.8267 27.1792 40.6736Z" fill="#FFEBD2"/>
</svg>
