<svg width="22" height="22" viewBox="0 0 22 22" fill="none" xmlns="http://www.w3.org/2000/svg">
<path d="M17.4167 10.084H4.58333C3.57081 10.084 2.75 10.9048 2.75 11.9173V18.334C2.75 19.3465 3.57081 20.1673 4.58333 20.1673H17.4167C18.4292 20.1673 19.25 19.3465 19.25 18.334V11.9173C19.25 10.9048 18.4292 10.084 17.4167 10.084Z" stroke="white" stroke-width="1.5" stroke-linecap="round" stroke-linejoin="round"/>
<path d="M6.41675 10.084V6.41732C6.41675 5.20174 6.89963 4.03595 7.75918 3.17641C8.61872 2.31687 9.78451 1.83398 11.0001 1.83398C12.2157 1.83398 13.3814 2.31687 14.241 3.17641C15.1005 4.03595 15.5834 5.20174 15.5834 6.41732V10.084" stroke="white" stroke-width="1.5" stroke-linecap="round" stroke-linejoin="round"/>
</svg>
