<svg width="22" height="22" viewBox="0 0 22 22" fill="none" xmlns="http://www.w3.org/2000/svg">
<path d="M13.0625 9.28125H15.8125" stroke="#7B8899" stroke-width="1.5" stroke-linecap="round" stroke-linejoin="round"/>
<path d="M6.1875 9.28125H8.9375" stroke="#7B8899" stroke-width="1.5" stroke-linecap="round" stroke-linejoin="round"/>
<path d="M7.5625 7.90625V10.6562" stroke="#7B8899" stroke-width="1.5" stroke-linecap="round" stroke-linejoin="round"/>
<path d="M14.7829 4.79004L7.2192 4.8124C6.16854 4.81248 5.15149 5.18264 4.34658 5.85791C3.54166 6.53317 3.00033 7.47038 2.8176 8.50503L2.81834 8.50516L1.41202 15.7379C1.32319 16.2419 1.39734 16.761 1.62369 17.22C1.85004 17.679 2.2168 18.0538 2.67072 18.2901C3.12463 18.5264 3.64206 18.6119 4.14784 18.534C4.65363 18.4562 5.12144 18.2192 5.48333 17.8574L5.48319 17.8572L9.19875 13.7499L14.7829 13.7275C15.9681 13.7275 17.1047 13.2567 17.9428 12.4187C18.7808 11.5806 19.2516 10.444 19.2516 9.25879C19.2516 8.0736 18.7808 6.93696 17.9428 6.09891C17.1047 5.26085 15.9681 4.79004 14.7829 4.79004V4.79004Z" stroke="#7B8899" stroke-width="1.5" stroke-linecap="round" stroke-linejoin="round"/>
<path d="M19.1837 8.48291L20.5888 15.738C20.6777 16.242 20.6035 16.7612 20.3772 17.2201C20.1508 17.6791 19.7841 18.0539 19.3302 18.2902C18.8762 18.5265 18.3588 18.612 17.853 18.5342C17.3472 18.4563 16.8794 18.2193 16.5175 17.8575L16.5177 17.8573L12.8047 13.7356" stroke="#7B8899" stroke-width="1.5" stroke-linecap="round" stroke-linejoin="round"/>
</svg>
