<svg width="22" height="22" viewBox="0 0 22 22" fill="none" xmlns="http://www.w3.org/2000/svg">
<path d="M6.15172 12.375L2.75006 15.125V4.125C2.75006 3.94266 2.82249 3.7678 2.95143 3.63886C3.08036 3.50993 3.25522 3.4375 3.43756 3.4375H14.4376C14.6199 3.4375 14.7948 3.50993 14.9237 3.63886C15.0526 3.7678 15.1251 3.94266 15.1251 4.125V11.6875C15.1251 11.8698 15.0526 12.0447 14.9237 12.1736C14.7948 12.3026 14.6199 12.375 14.4376 12.375H6.15172Z" stroke="#CFD8E3" stroke-width="1.5" stroke-linecap="round" stroke-linejoin="round"/>
<path d="M6.87506 12.375V15.8125C6.87506 15.9948 6.94749 16.1697 7.07643 16.2986C7.20536 16.4276 7.38022 16.5 7.56256 16.5H15.8484L19.2501 19.25V8.25C19.2501 8.06766 19.1776 7.8928 19.0487 7.76386C18.9198 7.63493 18.7449 7.5625 18.5626 7.5625H15.1251" stroke="#CFD8E3" stroke-width="1.5" stroke-linecap="round" stroke-linejoin="round"/>
</svg>
