<svg width="30" height="30" viewBox="0 0 30 30" fill="none" xmlns="http://www.w3.org/2000/svg">
<path d="M14.9998 5C12.9799 5 11.3095 5.54804 9.78831 6.46957C9.76338 6.46957 9.76299 6.49428 9.76299 6.51919C9.76299 6.5441 9.78821 6.54449 9.81315 6.54449C11.7583 6.12108 14.7007 7.78961 14.975 7.96395H15.0251C15.2995 7.78961 18.2419 6.12108 20.187 6.54449C20.2119 6.54449 20.2366 6.5441 20.2366 6.51919C20.2366 6.49428 20.2367 6.46957 20.2118 6.46957C18.6906 5.54804 17.0197 5 14.9998 5ZM21.6881 7.80732C21.1936 7.8365 20.0434 8.21915 17.7429 10.4794L17.7181 10.5042C17.7181 10.5042 17.718 10.5295 17.7429 10.5295C19.7628 12.9205 23.6533 18.6241 22.9052 20.9902V21.0398C22.9302 21.0398 22.9549 21.0399 22.9549 21.015C24.2267 19.3463 25.0001 17.229 25.0001 14.9625C25.0001 12.1979 23.8778 9.68239 22.0324 7.86423C22.0075 7.83932 22.0072 7.83942 21.9823 7.83942C21.9448 7.82697 21.8529 7.79759 21.6881 7.80732ZM8.30133 7.81802C8.133 7.8114 8.03618 7.84555 7.99254 7.86423C7.9676 7.86423 7.96779 7.88904 7.94286 7.88904C6.12243 9.7072 5.00006 12.2227 5.00006 14.9874C5.00006 17.2538 5.77341 19.3711 7.04521 21.0398C7.04521 21.0647 7.06995 21.0646 7.09489 21.0646C7.11983 21.0646 7.11983 21.0399 7.09489 21.015C6.32183 18.6489 10.2368 12.9453 12.2567 10.5543L12.282 10.5295C12.282 10.5046 12.2816 10.5042 12.2567 10.5042C9.95625 8.22528 8.80631 7.83787 8.30133 7.81802ZM14.9998 13.0201C14.9998 13.0201 14.975 13.02 14.975 13.0449C11.9825 15.3114 6.84571 20.9402 8.41676 22.5342C10.1624 24.0784 12.4812 25 14.9998 25C17.5185 25 19.8128 24.0784 21.5834 22.5342C23.1295 20.9402 18.0176 15.3114 15.0251 13.0449C15.0251 13.02 14.9998 13.0201 14.9998 13.0201Z" />
</svg>
