<svg width="30" height="30" viewBox="0 0 30 30" fill="none" xmlns="http://www.w3.org/2000/svg">
<path fill-rule="evenodd" clip-rule="evenodd" d="M17.6671 22H25.0938C25.8691 22 26.5 21.327 26.5 20.5V6.5C26.5 5.673 25.8691 5 25.0938 5H5.40625C4.63094 5 4 5.673 4 6.5V20.5C4 21.327 4.63094 22 5.40625 22H12.8205C12.7097 22.5009 12.4159 23.3151 11.6369 24.146C11.5037 24.289 11.4634 24.504 11.5356 24.691C11.6078 24.878 11.7794 25 11.9688 25H18.5313C18.7206 25 18.8912 24.878 18.9644 24.691C19.0375 24.504 18.9972 24.289 18.8631 24.146C18.0847 23.3163 17.7835 22.5025 17.6671 22ZM5.32353 17.6667H25.1765V6.66667C25.1765 6.39067 25.1034 6.33333 24.8456 6.33333H5.65441C5.3966 6.33333 5.32353 6.39067 5.32353 6.66667V17.6667ZM16.7097 22H13.7753C13.6975 22.465 13.4941 23.2 12.9719 24H17.5253C16.9994 23.199 16.7922 22.463 16.7097 22ZM15.25 20.8C15.6642 20.8 16 20.4418 16 20C16 19.5582 15.6642 19.2 15.25 19.2C14.8358 19.2 14.5 19.5582 14.5 20C14.5 20.4418 14.8358 20.8 15.25 20.8Z" />
</svg>
