<svg width="30" height="30" viewBox="0 0 30 30" fill="none" xmlns="http://www.w3.org/2000/svg">
<path d="M20.6048 5H11.3952C10.628 5 10 5.60743 10 6.35086V23.6486C10 24.392 10.628 25 11.3952 25H20.6048C21.372 25 22 24.3931 22 23.6491V6.35086C22 5.60743 21.372 5 20.6048 5ZM14.5269 5.97371H17.4731C17.5664 5.97371 17.6419 6.04686 17.6419 6.13771C17.6419 6.228 17.5664 6.30114 17.4731 6.30114H14.5269C14.4336 6.30114 14.3581 6.228 14.3581 6.13771C14.3581 6.04686 14.4336 5.97371 14.5269 5.97371ZM16 24.3246C15.6146 24.3246 15.3024 24.0223 15.3024 23.6486C15.3024 23.2749 15.6146 22.9731 16 22.9731C16.3854 22.9731 16.6976 23.2749 16.6976 23.6486C16.6976 24.0223 16.3854 24.3246 16 24.3246ZM20.6667 22.3577H11.3333V7L20.6667 7V22.3577Z" fill="#A9B3C1"/>
</svg>
