<svg width="22" height="22" viewBox="0 0 22 22" fill="none" xmlns="http://www.w3.org/2000/svg">
<path d="M18.0686 3.08319L2.05605 7.59955C1.92134 7.63754 1.80143 7.71575 1.71236 7.82371C1.62329 7.93168 1.56929 8.06426 1.55758 8.20373C1.54588 8.34321 1.57702 8.48293 1.64685 8.60424C1.71668 8.72554 1.82188 8.82264 1.94837 8.88255L9.30555 12.3675C9.44904 12.4355 9.56459 12.551 9.63256 12.6945L13.1175 20.0517C13.1775 20.1782 13.2746 20.2834 13.3959 20.3532C13.5172 20.4231 13.6569 20.4542 13.7964 20.4425C13.9358 20.4308 14.0684 20.3768 14.1764 20.2877C14.2843 20.1987 14.3625 20.0788 14.4005 19.944L18.9169 3.9315C18.9501 3.81388 18.9513 3.68954 18.9204 3.57129C18.8896 3.45304 18.8278 3.34515 18.7414 3.25874C18.6549 3.17232 18.547 3.1105 18.4288 3.07965C18.3105 3.04879 18.1862 3.05001 18.0686 3.08319Z" stroke="white" stroke-width="1.5" stroke-linecap="round" stroke-linejoin="round"/>
<path d="M9.52734 12.4726L13.4164 8.5835" stroke="white" stroke-width="1.5" stroke-linecap="round" stroke-linejoin="round"/>
</svg>
