<svg width="22" height="22" viewBox="0 0 22 22" fill="none" xmlns="http://www.w3.org/2000/svg">
<path d="M8.9375 6.875L8.9375 17.5071C8.9375 17.6202 8.90956 17.7317 8.85615 17.8315C8.80274 17.9313 8.72553 18.0163 8.63136 18.0791L7.68672 18.7089C7.59505 18.77 7.49004 18.8082 7.38053 18.8202C7.27101 18.8322 7.16021 18.8178 7.05745 18.7781C6.95469 18.7383 6.86299 18.6745 6.79006 18.5919C6.71713 18.5093 6.66511 18.4104 6.63839 18.3036L5.5 13.75" stroke="#7B8899" stroke-width="1.5" stroke-linecap="round" stroke-linejoin="round"/>
<path d="M5.5 13.75C4.58832 13.75 3.71398 13.3878 3.06932 12.7432C2.42466 12.0985 2.0625 11.2242 2.0625 10.3125C2.0625 9.40081 2.42466 8.52647 3.06932 7.88181C3.71398 7.23716 4.58832 6.87499 5.5 6.87499L8.9375 6.87499C8.9375 6.87499 13.6169 6.87499 18.12 3.09825C18.2202 3.01395 18.3423 2.96001 18.4721 2.94276C18.6018 2.92551 18.7338 2.94567 18.8525 3.00087C18.9712 3.05608 19.0717 3.14402 19.1421 3.25437C19.2125 3.36471 19.2499 3.49287 19.25 3.62377L19.25 17.0012C19.2499 17.1321 19.2125 17.2603 19.1421 17.3706C19.0716 17.481 18.9712 17.5689 18.8525 17.6241C18.7338 17.6793 18.6018 17.6995 18.4721 17.6822C18.3423 17.665 18.2202 17.611 18.12 17.5267C13.6169 13.75 8.9375 13.75 8.9375 13.75L5.5 13.75Z" stroke="#7B8899" stroke-width="1.5" stroke-linecap="round" stroke-linejoin="round"/>
</svg>
