<svg width="30" height="30" viewBox="0 0 30 30" fill="none" xmlns="http://www.w3.org/2000/svg">
<path d="M11.3483 5C12.4355 5.2101 13.5041 5.51025 14.5675 5.8231C15.1758 6.00626 15.7825 6.19578 16.3853 6.39761C17.3321 6.71026 18.2749 7.06428 19.1325 7.59223C19.5167 7.83408 19.8856 8.10729 20.2009 8.44053C20.5426 8.78666 20.8222 9.19725 21.0275 9.64401C21.4015 10.4536 21.5295 11.3581 21.5674 12.2474C21.5852 12.8277 21.5841 13.413 21.4796 13.9858C21.3927 14.4835 21.2383 14.9743 20.9815 15.4066C20.7547 15.7886 20.4394 16.1187 20.0567 16.3315C19.6896 16.5366 19.2693 16.6344 18.853 16.6257C18.2216 16.6326 17.609 16.4239 17.0424 16.1505C17.0322 14.197 17.0409 12.2432 17.038 10.2899C17.0339 9.93646 17.0571 9.57936 16.9884 9.23073C16.9402 8.9606 16.8338 8.68835 16.6293 8.50499C16.4937 8.37819 16.3179 8.30662 16.1412 8.26795C15.9625 8.23274 15.7719 8.31143 15.6613 8.46016C15.4774 8.69835 15.4291 9.01466 15.4208 9.31115C15.4193 14.5408 15.4226 19.7707 15.4193 25C14.0623 24.5542 12.7051 24.108 11.3485 23.6609C11.347 17.4405 11.3476 11.2204 11.3483 5Z" />
<path d="M5.24886 18.234C7.01805 17.5846 8.78537 16.9291 10.5553 16.2819C10.5581 17.002 10.5553 17.7224 10.5564 18.4431C10.5553 18.5409 10.5614 18.639 10.5495 18.7362C9.15061 19.2503 7.75445 19.7734 6.35681 20.2908C6.16306 20.3666 5.96429 20.4526 5.8149 20.6059C5.7453 20.6779 5.6887 20.7841 5.72674 20.8872C5.77463 21.0086 5.89414 21.0746 6.00438 21.1246C6.31097 21.2539 6.64613 21.2722 6.97276 21.2878C7.33688 21.2818 7.70249 21.2535 8.05918 21.172C8.30025 21.1229 8.53224 21.0386 8.76199 20.9492C9.3592 20.725 9.95642 20.4995 10.5546 20.2777C10.559 20.8868 10.5553 21.4964 10.5564 22.1061C10.5546 22.2279 10.5618 22.3504 10.5501 22.4718C9.81556 22.6086 9.07229 22.7016 8.32568 22.7137C6.82225 22.7489 5.3153 22.5076 3.88722 22.0205C3.41881 21.8798 2.95336 21.6926 2.56233 21.3842C2.34705 21.2114 2.15442 20.9942 2.05643 20.7269C1.9744 20.5007 1.98034 20.2392 2.08259 20.0208C2.18114 19.803 2.35336 19.6308 2.54303 19.4971C2.98194 19.1829 3.46595 18.9434 3.95645 18.7296C4.37903 18.5426 4.81738 18.3971 5.24886 18.234Z" />
<path d="M19.4838 17.4138C19.885 17.3657 20.2889 17.3543 20.6922 17.3393C22.0193 17.3445 23.3531 17.5158 24.6225 17.9285C24.8715 18.007 25.1128 18.1085 25.3609 18.1905C25.8032 18.3581 26.246 18.5613 26.6001 18.8909C26.8129 19.0921 26.9963 19.3632 26.9989 19.6728C27.0115 19.9246 26.9015 20.1663 26.7439 20.3521C26.444 20.7008 26.0476 20.9403 25.6495 21.1493C25.2258 21.3732 24.7704 21.5177 24.3261 21.6882C21.6143 22.6977 18.9024 23.7069 16.191 24.7176C16.1906 23.9301 16.1917 23.1427 16.1906 22.3556C16.1947 22.3243 16.178 22.2694 16.2208 22.2612C18.2842 21.5 20.347 20.7368 22.4099 19.9737C22.6889 19.8656 22.9893 19.7873 23.2261 19.591C23.323 19.5121 23.4178 19.3867 23.3703 19.2514C23.3208 19.1331 23.2024 19.0675 23.0934 19.0186C22.7846 18.8918 22.4483 18.8672 22.1199 18.8578C21.6056 18.8614 21.0867 18.9272 20.5977 19.0981C19.128 19.632 17.661 20.1724 16.191 20.7046C16.1912 19.859 16.1906 19.014 16.1913 18.1686C17.2549 17.7817 18.3655 17.5471 19.4838 17.4138Z" />
</svg>
