<svg width="72" height="72" viewBox="0 0 72 72" fill="none" xmlns="http://www.w3.org/2000/svg">
<path d="M50.5681 32.5685L51.9427 33.9431C52.3605 34.3609 52.692 34.857 52.9182 35.403C53.1443 35.9489 53.2607 36.5341 53.2607 37.125C53.2607 37.716 53.1443 38.3011 52.9182 38.8471C52.692 39.3931 52.3605 39.8892 51.9427 40.307L49.9656 42.284C49.5437 42.706 48.9714 42.9431 48.3747 42.9431C47.7779 42.9431 47.2056 42.706 46.7837 42.284L29.7156 25.216C29.2937 24.7941 29.0566 24.2218 29.0566 23.625C29.0566 23.0283 29.2937 22.456 29.7156 22.034L31.6927 20.057C32.1105 19.6392 32.6066 19.3077 33.1526 19.0815C33.6985 18.8554 34.2837 18.739 34.8747 18.739C35.4656 18.739 36.0508 18.8554 36.5967 19.0815C37.1427 19.3077 37.6388 19.6392 38.0566 20.057L39.4312 21.4316L47.1904 13.6724C50.2245 10.6382 55.1683 10.4524 58.2845 13.4022C59.0495 14.1255 59.6618 14.9947 60.0851 15.9587C60.5084 16.9226 60.7341 17.9617 60.7489 19.0144C60.7637 20.067 60.5672 21.112 60.1712 22.0875C59.7752 23.0629 59.1876 23.9491 58.4431 24.6935L50.5681 32.5685Z" stroke="#383E46" stroke-width="3" stroke-linecap="round" stroke-linejoin="round"/>
<path d="M44.6141 40.1147L28.8641 55.8647C27.7473 56.9824 26.3558 57.7863 24.8297 58.1955C23.3035 58.6046 21.6964 58.6046 20.1703 58.1954L13.5884 61.0688C13.1739 61.2497 12.7145 61.3016 12.2701 61.2175C11.8257 61.1335 11.417 60.9175 11.0972 60.5977V60.5977C10.8676 60.3681 10.7125 60.0746 10.6522 59.7556C10.5918 59.4365 10.629 59.1067 10.759 58.8091L13.8055 51.8307C13.3963 50.3045 13.3962 48.6974 13.8054 47.1712C14.2146 45.6451 15.0185 44.2535 16.1362 43.1367L31.8862 27.3867" stroke="#383E46" stroke-width="3" stroke-linecap="round" stroke-linejoin="round"/>
</svg>
