<svg width="25" height="25" viewBox="0 0 25 25" fill="none" xmlns="http://www.w3.org/2000/svg">
<g clip-path="url(#clip0)">
<path fill-rule="evenodd" clip-rule="evenodd" d="M12 0C12.437 0 12.7912 0.354236 12.7912 0.791209V5.27473C12.7912 5.7117 12.437 6.06593 12 6.06593C11.563 6.06593 11.2088 5.7117 11.2088 5.27473V0.791209C11.2088 0.354236 11.563 0 12 0ZM3.51591 3.51593C3.8249 3.20695 4.32587 3.20695 4.63485 3.51593L7.80694 6.68802C8.11593 6.99701 8.11593 7.49797 7.80694 7.80696C7.49795 8.11595 6.99699 8.11595 6.688 7.80696L3.51591 4.63487C3.20693 4.32588 3.20693 3.82492 3.51591 3.51593ZM20.4841 3.51593C20.7931 3.82492 20.7931 4.32588 20.4841 4.63487L17.312 7.80696C17.003 8.11595 16.502 8.11595 16.1931 7.80696C15.8841 7.49797 15.8841 6.99701 16.1931 6.68802L19.3651 3.51593C19.6741 3.20695 20.1751 3.20695 20.4841 3.51593ZM0 12C0 11.563 0.354236 11.2088 0.791209 11.2088H5.27473C5.7117 11.2088 6.06593 11.563 6.06593 12C6.06593 12.437 5.7117 12.7912 5.27473 12.7912H0.791209C0.354236 12.7912 0 12.437 0 12ZM17.9341 12C17.9341 11.563 18.2883 11.2088 18.7253 11.2088H23.2088C23.6458 11.2088 24 11.563 24 12C24 12.437 23.6458 12.7912 23.2088 12.7912H18.7253C18.2883 12.7912 17.9341 12.437 17.9341 12ZM7.80694 16.1931C8.11593 16.502 8.11593 17.003 7.80694 17.312L4.63485 20.4841C4.32586 20.7931 3.8249 20.7931 3.51591 20.4841C3.20693 20.1751 3.20693 19.6741 3.51591 19.3651L6.688 16.1931C6.99699 15.8841 7.49795 15.8841 7.80694 16.1931ZM16.1931 16.1931C16.502 15.8841 17.003 15.8841 17.312 16.1931L20.4841 19.3651C20.7931 19.6741 20.7931 20.1751 20.4841 20.4841C20.1751 20.7931 19.6741 20.7931 19.3651 20.4841L16.1931 17.312C15.8841 17.003 15.8841 16.502 16.1931 16.1931ZM12 17.9341C12.437 17.9341 12.7912 18.2883 12.7912 18.7253V23.2088C12.7912 23.6458 12.437 24 12 24C11.563 24 11.2088 23.6458 11.2088 23.2088V18.7253C11.2088 18.2883 11.563 17.9341 12 17.9341Z" fill="url(#paint0_angular)"/>
</g>
<defs>
<radialGradient id="paint0_angular" cx="0" cy="0" r="1" gradientUnits="userSpaceOnUse" gradientTransform="translate(12 12) rotate(-25.017) scale(13.0968)">
<stop stop-color="#383E46" stop-opacity="0"/>
<stop offset="1" stop-color="#383E46"/>
</radialGradient>
<clipPath id="clip0">
<rect width="25" height="25" fill="white"/>
</clipPath>
</defs>
</svg>
