<svg width="18" height="18" viewBox="0 0 18 18" fill="none" xmlns="http://www.w3.org/2000/svg">
<path d="M14.1745 8H4.19259C3.40504 8 2.7666 8.67157 2.7666 9.5V14.75C2.7666 15.5784 3.40504 16.25 4.19259 16.25H14.1745C14.962 16.25 15.6005 15.5784 15.6005 14.75V9.5C15.6005 8.67157 14.962 8 14.1745 8Z" stroke="#7B8899" stroke-width="1.5" stroke-linecap="round" stroke-linejoin="round"/>
<path d="M5.61816 8.75V5.75C5.61816 4.75544 5.99376 3.80161 6.66232 3.09835C7.33088 2.39509 8.23764 2 9.18313 2C10.1286 2 11.0354 2.39509 11.7039 3.09835C12.3725 3.80161 12.7481 4.75544 12.7481 5.75V8.75" stroke="#7B8899" stroke-width="1.5" stroke-linecap="round" stroke-linejoin="round"/>
</svg>
