<svg width="18" height="18" viewBox="0 0 18 18" fill="none" xmlns="http://www.w3.org/2000/svg">
<path d="M14.625 6.1875H3.375C3.06434 6.1875 2.8125 6.43934 2.8125 6.75V14.625C2.8125 14.9357 3.06434 15.1875 3.375 15.1875H14.625C14.9357 15.1875 15.1875 14.9357 15.1875 14.625V6.75C15.1875 6.43934 14.9357 6.1875 14.625 6.1875Z" stroke="#CF3939" stroke-width="1.5" stroke-linecap="round" stroke-linejoin="round"/>
<path d="M6.46875 6.1875V3.65625C6.46875 2.98492 6.73543 2.34109 7.21014 1.86639C7.68484 1.39168 8.32867 1.125 9 1.125C9.67133 1.125 10.3152 1.39168 10.7899 1.86639C11.2646 2.34109 11.5312 2.98492 11.5312 3.65625V6.1875" stroke="#CF3939" stroke-width="1.5" stroke-linecap="round" stroke-linejoin="round"/>
<path d="M9.09375 10.6875C9.09375 10.7393 9.05178 10.7812 9 10.7812C8.94822 10.7812 8.90625 10.7393 8.90625 10.6875C8.90625 10.6357 8.94822 10.5938 9 10.5938C9.05178 10.5938 9.09375 10.6357 9.09375 10.6875Z" fill="#CF3939" stroke="#CF3939" stroke-width="1.5"/>
</svg>
