<svg width="179" height="38" viewBox="0 0 179 38" fill="none" xmlns="http://www.w3.org/2000/svg">
<path d="M50.5779 33.688V33.137L51.2908 33.0145V27.9986L50.5779 27.8762V27.3208H53.5035C54.1828 27.3208 54.7105 27.4957 55.0866 27.8455C55.4656 28.1954 55.6551 28.656 55.6551 29.2274C55.6551 29.8047 55.4656 30.2668 55.0866 30.6137C54.7105 30.9606 54.1828 31.1341 53.5035 31.1341H52.1523V33.0145L52.8651 33.137V33.688H50.5779ZM52.1523 30.4606H53.5035C53.935 30.4606 54.2572 30.3455 54.47 30.1152C54.6857 29.8819 54.7936 29.5889 54.7936 29.2362C54.7936 28.8834 54.6857 28.589 54.47 28.3528C54.2572 28.1167 53.935 27.9986 53.5035 27.9986H52.1523V30.4606Z" fill="#6C7582"/>
<path d="M56.1799 33.688V33.137L56.8927 33.0145V27.5438L56.1799 27.4213V26.866H57.7542V33.0145L58.467 33.137V33.688H56.1799Z" fill="#6C7582"/>
<path d="M60.6142 33.7798C60.1215 33.7798 59.7469 33.6603 59.4903 33.4212C59.2337 33.1793 59.1055 32.8396 59.1055 32.4023C59.1055 31.9533 59.2891 31.5933 59.6565 31.3221C60.0238 31.0481 60.534 30.9111 61.1871 30.9111H62.0311V30.4475C62.0311 30.1618 61.9436 29.9403 61.7687 29.7828C61.5967 29.6254 61.3532 29.5467 61.0384 29.5467C60.8401 29.5467 60.6681 29.5715 60.5224 29.621C60.3766 29.6677 60.2439 29.7333 60.1244 29.8178L60.0326 30.4781H59.3679V29.3936C59.7964 29.0438 60.3576 28.8688 61.0515 28.8688C61.6258 28.8688 62.0763 29.0059 62.4028 29.2799C62.7293 29.554 62.8926 29.9461 62.8926 30.4563V32.7347C62.8926 32.7959 62.8926 32.8556 62.8926 32.914C62.8955 32.9723 62.8999 33.0306 62.9057 33.0889L63.3649 33.137V33.688H62.1273C62.0777 33.4489 62.0471 33.2317 62.0354 33.0364C61.8693 33.2492 61.6608 33.4271 61.4101 33.5699C61.1623 33.7099 60.897 33.7798 60.6142 33.7798ZM60.741 33.0583C61.0267 33.0583 61.2876 32.9898 61.5238 32.8527C61.7599 32.7157 61.929 32.551 62.0311 32.3586V31.5014H61.1565C60.76 31.5014 60.4626 31.5962 60.2643 31.7857C60.0661 31.9752 59.967 32.1866 59.967 32.4198C59.967 32.8454 60.225 33.0583 60.741 33.0583Z" fill="#6C7582"/>
<path d="M64.9917 35.599C64.9246 35.599 64.8371 35.5903 64.7293 35.5728C64.6214 35.5582 64.5383 35.5436 64.48 35.5291L64.5675 34.8512C64.617 34.8571 64.6855 34.8614 64.773 34.8644C64.8605 34.8702 64.9202 34.8731 64.9523 34.8731C65.136 34.8731 65.2846 34.8031 65.3983 34.6632C65.515 34.5233 65.6228 34.3323 65.722 34.0903L65.9275 33.5918L64.2526 29.5817L63.7453 29.5117V28.9563H65.7307V29.5117L65.1578 29.5991L66.0806 31.965L66.3036 32.5816H66.3298L67.4231 29.5991L66.8196 29.5117V28.9563H68.7656V29.5117L68.2758 29.5817L66.4129 34.4139C66.2817 34.7579 66.1068 35.0407 65.8881 35.2623C65.6695 35.4868 65.3707 35.599 64.9917 35.599Z" fill="#6C7582"/>
<path d="M72.9376 33.7798C72.4449 33.7798 72.0702 33.6603 71.8137 33.4212C71.5571 33.1793 71.4288 32.8396 71.4288 32.4023C71.4288 31.9533 71.6125 31.5933 71.9799 31.3221C72.3472 31.0481 72.8574 30.9111 73.5104 30.9111H74.3544V30.4475C74.3544 30.1618 74.267 29.9403 74.0921 29.7828C73.92 29.6254 73.6766 29.5467 73.3617 29.5467C73.1635 29.5467 72.9915 29.5715 72.8457 29.621C72.7 29.6677 72.5673 29.7333 72.4478 29.8178L72.3559 30.4781H71.6912V29.3936C72.1198 29.0438 72.681 28.8688 73.3749 28.8688C73.9492 28.8688 74.3996 29.0059 74.7262 29.2799C75.0527 29.554 75.2159 29.9461 75.2159 30.4563V32.7347C75.2159 32.7959 75.2159 32.8556 75.2159 32.914C75.2189 32.9723 75.2232 33.0306 75.2291 33.0889L75.6882 33.137V33.688H74.4506C74.4011 33.4489 74.3705 33.2317 74.3588 33.0364C74.1926 33.2492 73.9842 33.4271 73.7335 33.5699C73.4857 33.7099 73.2204 33.7798 72.9376 33.7798ZM73.0644 33.0583C73.3501 33.0583 73.611 32.9898 73.8472 32.8527C74.0833 32.7157 74.2524 32.551 74.3544 32.3586V31.5014H73.4798C73.0833 31.5014 72.786 31.5962 72.5877 31.7857C72.3895 31.9752 72.2903 32.1866 72.2903 32.4198C72.2903 32.8454 72.5484 33.0583 73.0644 33.0583Z" fill="#6C7582"/>
<path d="M76.3573 33.688V33.137L77.0701 33.0145V29.6341L76.3573 29.5117V28.9563H77.8398L77.901 29.6604C78.0585 29.4096 78.2552 29.2158 78.4914 29.0788C78.7304 28.9388 79.0016 28.8688 79.3048 28.8688C79.815 28.8688 80.21 29.019 80.4899 29.3193C80.7698 29.6166 80.9097 30.0773 80.9097 30.7012V33.0145L81.6225 33.137V33.688H79.3354V33.137L80.0482 33.0145V30.7187C80.0482 30.3018 79.9651 30.0058 79.7989 29.8309C79.6357 29.656 79.385 29.5685 79.0468 29.5685C78.799 29.5685 78.5788 29.6283 78.3864 29.7478C78.1969 29.8674 78.0453 30.0306 77.9316 30.2376V33.0145L78.6444 33.137V33.688H76.3573Z" fill="#6C7582"/>
<path d="M84.0496 33.7798C83.6648 33.7798 83.3339 33.6851 83.0569 33.4956C82.7828 33.3032 82.5729 33.0364 82.4272 32.6953C82.2814 32.3542 82.2085 31.9562 82.2085 31.5014V31.4096C82.2085 30.9023 82.2814 30.4577 82.4272 30.0758C82.5729 29.6939 82.7843 29.398 83.0613 29.1881C83.3382 28.9753 83.6706 28.8688 84.0583 28.8688C84.3382 28.8688 84.5846 28.9213 84.7974 29.0263C85.0131 29.1283 85.1968 29.277 85.3484 29.4723V27.5438L84.6356 27.4213V26.866H86.2099V33.0145L86.9227 33.137V33.688H85.4621L85.3921 33.1239C85.0773 33.5612 84.6297 33.7798 84.0496 33.7798ZM84.2682 33.0801C84.5248 33.0801 84.7405 33.0218 84.9155 32.9052C85.0904 32.7886 85.2347 32.6239 85.3484 32.411V30.2158C85.2376 30.0175 85.0933 29.8601 84.9155 29.7435C84.7376 29.6268 84.5248 29.5685 84.277 29.5685C83.8659 29.5685 83.5613 29.7391 83.363 30.0802C83.1677 30.4213 83.07 30.8644 83.07 31.4096V31.5014C83.07 31.9767 83.1677 32.3586 83.363 32.6472C83.5583 32.9358 83.8601 33.0801 84.2682 33.0801Z" fill="#6C7582"/>
<path d="M91.7637 33.688L90.2769 27.9417L89.739 27.8762V27.3208H91.8031V27.8762L91.1427 27.9767L91.9736 31.4796L92.166 32.2973L92.1923 32.3017L92.4459 31.484L93.7272 27.3208H94.4838L95.7782 31.484L96.0275 32.3498H96.0537L96.2811 31.484L97.1033 27.9767L96.3904 27.8762V27.3208H98.4196V27.8762L97.9167 27.9417L96.491 33.688H95.6733L94.2914 29.2799L94.1164 28.6371H94.0902L93.9197 29.2799L92.5334 33.688H91.7637Z" fill="#6C7582"/>
<path d="M99.0318 33.688V33.137L99.7446 33.0145V29.6341L99.0318 29.5117V28.9563H100.606V33.0145L101.319 33.137V33.688H99.0318ZM99.7009 27.7887V26.866H100.606V27.7887H99.7009Z" fill="#6C7582"/>
<path d="M101.914 33.688V33.137L102.626 33.0145V29.6341L101.914 29.5117V28.9563H103.396L103.457 29.6604C103.615 29.4096 103.812 29.2158 104.048 29.0788C104.287 28.9388 104.558 28.8688 104.861 28.8688C105.371 28.8688 105.766 29.019 106.046 29.3193C106.326 29.6166 106.466 30.0773 106.466 30.7012V33.0145L107.179 33.137V33.688H104.892V33.137L105.605 33.0145V30.7187C105.605 30.3018 105.521 30.0058 105.355 29.8309C105.192 29.656 104.941 29.5685 104.603 29.5685C104.355 29.5685 104.135 29.6283 103.943 29.7478C103.753 29.8674 103.602 30.0306 103.488 30.2376V33.0145L104.201 33.137V33.688H101.914Z" fill="#6C7582"/>
<path d="M61.2018 18.2979H50.12V4.77344H61.2018V7.47833H53.7141V10.0866H59.6044V12.7915H53.7141V15.593H61.2018V18.2979Z" fill="#B0B9C6"/>
<path d="M65.6897 18.2979H61.7961L67.0874 4.77344H71.0808L76.3721 18.2979H72.4785L71.58 15.8828H66.5882L65.6897 18.2979ZM67.4867 13.3711H70.6815L69.0841 8.83077L67.4867 13.3711Z" fill="#B0B9C6"/>
<path d="M77.769 4.77344H86.1552C87.5529 4.77344 88.5646 5.08257 89.1902 5.70083C89.8292 6.30621 90.1486 7.28512 90.1486 8.63757V10.3764C90.1486 11.4455 89.9623 12.2763 89.5895 12.8688C89.2301 13.4613 88.6511 13.8541 87.8524 14.0473L90.3483 18.2979H86.4547L84.1585 14.2406H81.3631V18.2979H77.769V4.77344ZM86.5545 8.63757C86.5545 7.86474 86.1552 7.47833 85.3565 7.47833H81.3631V11.5357H85.3565C86.1552 11.5357 86.5545 11.1492 86.5545 10.3764V8.63757Z" fill="#B0B9C6"/>
<path d="M103.621 18.2979H92.5392V4.77344H103.621V7.47833H96.1333V10.0866H102.024V12.7915H96.1333V15.593H103.621V18.2979Z" fill="#B0B9C6"/>
<path d="M117.793 18.2979H113.999L109.207 10.1832V18.2979H105.613V4.77344H109.407L114.199 12.8881V4.77344H117.793V18.2979Z" fill="#B0B9C6"/>
<path d="M123.094 18.2979H119.2L124.491 4.77344H128.485L133.776 18.2979H129.882L128.984 15.8828H123.992L123.094 18.2979ZM124.891 13.3711H128.085L126.488 8.83077L124.891 13.3711Z" fill="#B0B9C6"/>
<path d="M134.574 15.3998H138.168V18.2979H134.574V15.3998Z" fill="#B0B9C6"/>
<path d="M140.369 4.77344H148.356C149.66 4.77344 150.619 5.06325 151.231 5.64287C151.844 6.20961 152.15 7.07903 152.15 8.25115C152.15 9.02398 151.977 9.65512 151.631 10.1446C151.284 10.6212 150.858 10.956 150.353 11.1492C151.431 11.4326 152.163 12.1282 152.549 13.2359C152.682 13.6352 152.749 14.0989 152.749 14.627C152.749 15.8892 152.443 16.8166 151.83 17.4091C151.218 18.0016 150.259 18.2979 148.955 18.2979H140.369V4.77344ZM149.155 14.0473C149.155 13.2745 148.755 12.8881 147.957 12.8881H143.963V15.593H147.957C148.755 15.593 149.155 15.2066 149.155 14.4338V14.0473ZM148.556 8.63757C148.556 7.86474 148.156 7.47833 147.358 7.47833H143.963V10.1832H147.358C148.156 10.1832 148.556 9.7968 148.556 9.02398V8.63757Z" fill="#B0B9C6"/>
<path d="M166.026 18.2979H154.944V4.77344H166.026V7.47833H158.538V10.0866H164.429V12.7915H158.538V15.593H166.026V18.2979Z" fill="#B0B9C6"/>
<path d="M174.807 18.2979H171.213V7.47833H167.02V4.77344H179V7.47833H174.807V18.2979Z" fill="#B0B9C6"/>
<path d="M13.2787 16.7179H3.71102V20.7986H13.2787V16.7179Z" fill="#4890E4"/>
<path d="M36.8757 16.7179H24.3065V20.7986H33.6688L36.8757 16.7179Z" fill="#4890E4"/>
<path d="M36.5539 24.2274C35.2392 28.4715 32.456 32.1087 28.703 34.4871C24.9501 36.8654 20.4727 37.8294 16.0735 37.2063C11.6743 36.5832 7.64085 34.4136 4.69604 31.0866C1.75124 27.7595 0.0876187 23.4924 0.00336438 19.0501C-0.0808899 14.6078 1.41973 10.2806 4.23626 6.8443C7.05279 3.40796 11.0011 1.08705 15.3735 0.297552C19.7459 -0.491947 24.2566 0.301582 28.097 2.53591C31.9375 4.77024 34.8566 8.2993 36.3313 12.4906H32.1493C30.7206 9.39554 28.2682 6.8879 25.2058 5.39052C22.1434 3.89315 18.6583 3.49766 15.3382 4.27075C12.0181 5.04384 9.06624 6.9382 6.98031 9.63438C4.89438 12.3306 3.80204 15.6636 3.8875 19.0714C3.97296 22.4792 5.231 25.7533 7.44946 28.3416C9.66791 30.9298 12.7111 32.6738 16.0657 33.2795C19.4203 33.8852 22.8812 33.3155 25.8647 31.6665C28.8483 30.0175 31.1718 27.3901 32.4436 24.2274H36.5539Z" fill="#4890E4"/>
<path d="M18.56 23.454C19.9147 23.454 21.0129 22.3559 21.0129 21.0012C21.0129 19.6465 19.9147 18.5483 18.56 18.5483C17.2054 18.5483 16.1072 19.6465 16.1072 21.0012C16.1072 22.3559 17.2054 23.454 18.56 23.454Z" fill="#4890E4"/>
<path d="M29.0656 26.0578H24.5302L18.5674 13.1151L12.6004 26.0578H8.06286L16.5387 8.20729H18.56L18.5674 10.6559L18.5706 8.20729H20.5888L29.0656 26.0578Z" fill="#4890E4"/>
</svg>
