<svg width="179" height="38" viewBox="0 0 179 38" fill="none" xmlns="http://www.w3.org/2000/svg">
<g opacity="0.4">
<path d="M50.5779 33.6879V33.1369L51.2908 33.0145V27.9986L50.5779 27.8761V27.3207H53.5035C54.1828 27.3207 54.7105 27.4956 55.0866 27.8455C55.4656 28.1953 55.6551 28.656 55.6551 29.2274C55.6551 29.8046 55.4656 30.2667 55.0866 30.6137C54.7105 30.9606 54.1828 31.1341 53.5035 31.1341H52.1523V33.0145L52.8651 33.1369V33.6879H50.5779ZM52.1523 30.4606H53.5035C53.935 30.4606 54.2572 30.3454 54.47 30.1151C54.6857 29.8819 54.7936 29.5889 54.7936 29.2361C54.7936 28.8834 54.6857 28.5889 54.47 28.3528C54.2572 28.1166 53.935 27.9986 53.5035 27.9986H52.1523V30.4606Z" fill="#7B8899"/>
<path d="M56.1799 33.6879V33.1369L56.8927 33.0145V27.5438L56.1799 27.4213V26.8659H57.7542V33.0145L58.467 33.1369V33.6879H56.1799Z" fill="#7B8899"/>
<path d="M60.6142 33.7798C60.1215 33.7798 59.7469 33.6602 59.4903 33.4212C59.2337 33.1792 59.1055 32.8396 59.1055 32.4023C59.1055 31.9533 59.2891 31.5932 59.6565 31.3221C60.0238 31.0481 60.534 30.911 61.1871 30.911H62.0311V30.4475C62.0311 30.1618 61.9436 29.9402 61.7687 29.7828C61.5967 29.6253 61.3532 29.5466 61.0384 29.5466C60.8401 29.5466 60.6681 29.5714 60.5224 29.621C60.3766 29.6676 60.2439 29.7332 60.1244 29.8178L60.0326 30.4781H59.3679V29.3936C59.7964 29.0437 60.3576 28.8688 61.0515 28.8688C61.6258 28.8688 62.0763 29.0058 62.4028 29.2799C62.7293 29.5539 62.8926 29.946 62.8926 30.4562V32.7346C62.8926 32.7958 62.8926 32.8556 62.8926 32.9139C62.8955 32.9722 62.8999 33.0305 62.9057 33.0888L63.3649 33.1369V33.6879H62.1273C62.0777 33.4489 62.0471 33.2317 62.0354 33.0364C61.8693 33.2492 61.6608 33.427 61.4101 33.5699C61.1623 33.7098 60.897 33.7798 60.6142 33.7798ZM60.741 33.0582C61.0267 33.0582 61.2876 32.9897 61.5238 32.8527C61.7599 32.7157 61.929 32.5509 62.0311 32.3585V31.5014H61.1565C60.76 31.5014 60.4626 31.5961 60.2643 31.7856C60.0661 31.9752 59.967 32.1865 59.967 32.4197C59.967 32.8454 60.225 33.0582 60.741 33.0582Z" fill="#7B8899"/>
<path d="M64.9917 35.599C64.9246 35.599 64.8371 35.5902 64.7293 35.5727C64.6214 35.5582 64.5383 35.5436 64.48 35.529L64.5675 34.8512C64.617 34.857 64.6855 34.8614 64.773 34.8643C64.8605 34.8701 64.9202 34.8731 64.9523 34.8731C65.136 34.8731 65.2846 34.8031 65.3983 34.6631C65.515 34.5232 65.6228 34.3322 65.722 34.0903L65.9275 33.5917L64.2526 29.5816L63.7453 29.5116V28.9563H65.7307V29.5116L65.1578 29.5991L66.0806 31.9649L66.3036 32.5816H66.3298L67.4231 29.5991L66.8196 29.5116V28.9563H68.7656V29.5116L68.2758 29.5816L66.4129 34.4139C66.2817 34.7579 66.1068 35.0407 65.8881 35.2623C65.6695 35.4867 65.3707 35.599 64.9917 35.599Z" fill="#7B8899"/>
<path d="M72.9376 33.7798C72.4449 33.7798 72.0702 33.6602 71.8137 33.4212C71.5571 33.1792 71.4288 32.8396 71.4288 32.4023C71.4288 31.9533 71.6125 31.5932 71.9799 31.3221C72.3472 31.0481 72.8574 30.911 73.5104 30.911H74.3544V30.4475C74.3544 30.1618 74.267 29.9402 74.0921 29.7828C73.92 29.6253 73.6766 29.5466 73.3617 29.5466C73.1635 29.5466 72.9915 29.5714 72.8457 29.621C72.7 29.6676 72.5673 29.7332 72.4478 29.8178L72.3559 30.4781H71.6912V29.3936C72.1198 29.0437 72.681 28.8688 73.3749 28.8688C73.9492 28.8688 74.3996 29.0058 74.7262 29.2799C75.0527 29.5539 75.2159 29.946 75.2159 30.4562V32.7346C75.2159 32.7958 75.2159 32.8556 75.2159 32.9139C75.2189 32.9722 75.2232 33.0305 75.2291 33.0888L75.6882 33.1369V33.6879H74.4506C74.4011 33.4489 74.3705 33.2317 74.3588 33.0364C74.1926 33.2492 73.9842 33.427 73.7335 33.5699C73.4857 33.7098 73.2204 33.7798 72.9376 33.7798ZM73.0644 33.0582C73.3501 33.0582 73.611 32.9897 73.8472 32.8527C74.0833 32.7157 74.2524 32.5509 74.3544 32.3585V31.5014H73.4798C73.0833 31.5014 72.786 31.5961 72.5877 31.7856C72.3895 31.9752 72.2903 32.1865 72.2903 32.4197C72.2903 32.8454 72.5484 33.0582 73.0644 33.0582Z" fill="#7B8899"/>
<path d="M76.3573 33.6879V33.1369L77.0701 33.0145V29.6341L76.3573 29.5116V28.9563H77.8398L77.901 29.6603C78.0585 29.4096 78.2552 29.2157 78.4914 29.0787C78.7304 28.9388 79.0016 28.8688 79.3048 28.8688C79.815 28.8688 80.21 29.0189 80.4899 29.3192C80.7698 29.6166 80.9097 30.0772 80.9097 30.7011V33.0145L81.6225 33.1369V33.6879H79.3354V33.1369L80.0482 33.0145V30.7186C80.0482 30.3017 79.9651 30.0058 79.7989 29.8309C79.6357 29.656 79.385 29.5685 79.0468 29.5685C78.799 29.5685 78.5788 29.6283 78.3864 29.7478C78.1969 29.8673 78.0453 30.0306 77.9316 30.2376V33.0145L78.6444 33.1369V33.6879H76.3573Z" fill="#7B8899"/>
<path d="M84.0496 33.7798C83.6648 33.7798 83.3339 33.685 83.0569 33.4955C82.7828 33.3031 82.5729 33.0364 82.4272 32.6953C82.2814 32.3542 82.2085 31.9562 82.2085 31.5014V31.4096C82.2085 30.9023 82.2814 30.4577 82.4272 30.0758C82.5729 29.6939 82.7843 29.3979 83.0613 29.188C83.3382 28.9752 83.6706 28.8688 84.0583 28.8688C84.3382 28.8688 84.5846 28.9213 84.7974 29.0262C85.0131 29.1283 85.1968 29.277 85.3484 29.4723V27.5438L84.6356 27.4213V26.8659H86.2099V33.0145L86.9227 33.1369V33.6879H85.4621L85.3921 33.1238C85.0773 33.5611 84.6297 33.7798 84.0496 33.7798ZM84.2682 33.0801C84.5248 33.0801 84.7405 33.0218 84.9155 32.9052C85.0904 32.7885 85.2347 32.6238 85.3484 32.411V30.2157C85.2376 30.0175 85.0933 29.86 84.9155 29.7434C84.7376 29.6268 84.5248 29.5685 84.277 29.5685C83.8659 29.5685 83.5613 29.739 83.363 30.0801C83.1677 30.4212 83.07 30.8644 83.07 31.4096V31.5014C83.07 31.9766 83.1677 32.3585 83.363 32.6471C83.5583 32.9358 83.8601 33.0801 84.2682 33.0801Z" fill="#7B8899"/>
<path d="M91.7637 33.6879L90.2769 27.9417L89.739 27.8761V27.3207H91.8031V27.8761L91.1427 27.9767L91.9736 31.4795L92.166 32.2973L92.1923 32.3017L92.4459 31.4839L93.7272 27.3207H94.4838L95.7782 31.4839L96.0275 32.3498H96.0537L96.2811 31.4839L97.1033 27.9767L96.3904 27.8761V27.3207H98.4196V27.8761L97.9167 27.9417L96.491 33.6879H95.6733L94.2914 29.2799L94.1164 28.637H94.0902L93.9197 29.2799L92.5334 33.6879H91.7637Z" fill="#7B8899"/>
<path d="M99.0318 33.6879V33.1369L99.7446 33.0145V29.6341L99.0318 29.5116V28.9563H100.606V33.0145L101.319 33.1369V33.6879H99.0318ZM99.7009 27.7886V26.8659H100.606V27.7886H99.7009Z" fill="#7B8899"/>
<path d="M101.914 33.6879V33.1369L102.626 33.0145V29.6341L101.914 29.5116V28.9563H103.396L103.457 29.6603C103.615 29.4096 103.812 29.2157 104.048 29.0787C104.287 28.9388 104.558 28.8688 104.861 28.8688C105.371 28.8688 105.766 29.0189 106.046 29.3192C106.326 29.6166 106.466 30.0772 106.466 30.7011V33.0145L107.179 33.1369V33.6879H104.892V33.1369L105.605 33.0145V30.7186C105.605 30.3017 105.521 30.0058 105.355 29.8309C105.192 29.656 104.941 29.5685 104.603 29.5685C104.355 29.5685 104.135 29.6283 103.943 29.7478C103.753 29.8673 103.602 30.0306 103.488 30.2376V33.0145L104.201 33.1369V33.6879H101.914Z" fill="#7B8899"/>
<path d="M61.2018 18.2978H50.12V4.77333H61.2018V7.47822H53.7141V10.0865H59.6044V12.7914H53.7141V15.5929H61.2018V18.2978Z" fill="#7B8899"/>
<path d="M65.6897 18.2978H61.7961L67.0874 4.77333H71.0808L76.3721 18.2978H72.4785L71.58 15.8827H66.5882L65.6897 18.2978ZM67.4867 13.371H70.6815L69.0841 8.83067L67.4867 13.371Z" fill="#7B8899"/>
<path d="M77.769 4.77333H86.1552C87.5529 4.77333 88.5646 5.08246 89.1902 5.70072C89.8292 6.3061 90.1486 7.28501 90.1486 8.63746V10.3763C90.1486 11.4454 89.9623 12.2762 89.5895 12.8687C89.2301 13.4612 88.6511 13.854 87.8524 14.0472L90.3483 18.2978H86.4547L84.1585 14.2404H81.3631V18.2978H77.769V4.77333ZM86.5545 8.63746C86.5545 7.86463 86.1552 7.47822 85.3565 7.47822H81.3631V11.5356H85.3565C86.1552 11.5356 86.5545 11.1491 86.5545 10.3763V8.63746Z" fill="#7B8899"/>
<path d="M103.621 18.2978H92.5392V4.77333H103.621V7.47822H96.1333V10.0865H102.024V12.7914H96.1333V15.5929H103.621V18.2978Z" fill="#7B8899"/>
<path d="M117.793 18.2978H113.999L109.207 10.1831V18.2978H105.613V4.77333H109.407L114.199 12.888V4.77333H117.793V18.2978Z" fill="#7B8899"/>
<path d="M123.094 18.2978H119.2L124.491 4.77333H128.485L133.776 18.2978H129.882L128.984 15.8827H123.992L123.094 18.2978ZM124.891 13.371H128.085L126.488 8.83067L124.891 13.371Z" fill="#7B8899"/>
<path d="M134.574 15.3997H138.168V18.2978H134.574V15.3997Z" fill="#7B8899"/>
<path d="M140.369 4.77333H148.356C149.66 4.77333 150.619 5.06314 151.231 5.64276C151.844 6.2095 152.15 7.07893 152.15 8.25105C152.15 9.02387 151.977 9.65501 151.631 10.1445C151.284 10.621 150.858 10.9559 150.353 11.1491C151.431 11.4325 152.163 12.1281 152.549 13.2358C152.682 13.6351 152.749 14.0988 152.749 14.6269C152.749 15.8891 152.443 16.8165 151.83 17.409C151.218 18.0015 150.259 18.2978 148.955 18.2978H140.369V4.77333ZM149.155 14.0472C149.155 13.2744 148.755 12.888 147.957 12.888H143.963V15.5929H147.957C148.755 15.5929 149.155 15.2065 149.155 14.4336V14.0472ZM148.556 8.63746C148.556 7.86463 148.156 7.47822 147.358 7.47822H143.963V10.1831H147.358C148.156 10.1831 148.556 9.7967 148.556 9.02387V8.63746Z" fill="#7B8899"/>
<path d="M166.026 18.2978H154.944V4.77333H166.026V7.47822H158.538V10.0865H164.429V12.7914H158.538V15.5929H166.026V18.2978Z" fill="#7B8899"/>
<path d="M174.807 18.2978H171.213V7.47822H167.02V4.77333H179V7.47822H174.807V18.2978Z" fill="#7B8899"/>
<path d="M13.2787 16.7179H3.71102V20.7986H13.2787V16.7179Z" fill="#7B8899"/>
<path d="M36.8757 16.7179H24.3065V20.7986H33.6688L36.8757 16.7179Z" fill="#7B8899"/>
<path d="M36.5539 24.2274C35.2392 28.4715 32.456 32.1087 28.703 34.4871C24.9501 36.8654 20.4727 37.8294 16.0735 37.2063C11.6743 36.5832 7.64085 34.4136 4.69604 31.0866C1.75124 27.7595 0.0876187 23.4924 0.00336438 19.0501C-0.0808899 14.6078 1.41973 10.2806 4.23626 6.8443C7.05279 3.40796 11.0011 1.08705 15.3735 0.297552C19.7459 -0.491947 24.2566 0.301582 28.097 2.53591C31.9375 4.77024 34.8566 8.2993 36.3313 12.4906H32.1493C30.7206 9.39554 28.2682 6.8879 25.2058 5.39052C22.1434 3.89315 18.6583 3.49766 15.3382 4.27075C12.0181 5.04384 9.06624 6.9382 6.98031 9.63438C4.89438 12.3306 3.80204 15.6636 3.8875 19.0714C3.97296 22.4792 5.231 25.7533 7.44946 28.3416C9.66791 30.9298 12.7111 32.6738 16.0657 33.2795C19.4203 33.8852 22.8812 33.3155 25.8647 31.6665C28.8483 30.0175 31.1718 27.3901 32.4436 24.2274H36.5539Z" fill="#7B8899"/>
<path d="M18.56 23.454C19.9147 23.454 21.0129 22.3559 21.0129 21.0012C21.0129 19.6465 19.9147 18.5483 18.56 18.5483C17.2054 18.5483 16.1072 19.6465 16.1072 21.0012C16.1072 22.3559 17.2054 23.454 18.56 23.454Z" fill="#7B8899"/>
<path d="M29.0656 26.0578H24.5302L18.5674 13.1151L12.6004 26.0578H8.06286L16.5387 8.20729H18.56L18.5674 10.6559L18.5706 8.20729H20.5888L29.0656 26.0578Z" fill="#7B8899"/>
</g>
</svg>
