<svg width="34" height="50" viewBox="0 0 34 50" fill="none" xmlns="http://www.w3.org/2000/svg">
<path d="M27.1692 25.7852V49.0067C27.1692 49.7304 26.4192 50.2108 25.762 49.9081L17.8305 46.2528C17.3041 46.0097 16.6967 46.0097 16.1703 46.2528L8.23877 49.9081C7.58154 50.2108 6.83154 49.7304 6.83154 49.0067V25.7852H27.1692Z" fill="#4890E4"/>
<path d="M27.1692 25.7852V32.4355C24.3548 34.6035 20.8274 35.8926 17.0004 35.8926C13.1733 35.8926 9.6459 34.6035 6.83154 32.4355V25.7852H27.1692Z" fill="#2B6AB4"/>
<path d="M11.9048 25.7852V48.2187L9.8501 49.1648V25.7852H11.9048Z" fill="#F1EEE0"/>
<path d="M9.8501 25.7852H11.9048V35.0995C11.1978 34.8729 10.5112 34.6005 9.8501 34.2851V25.7852Z" fill="#D8D4C9"/>
<path d="M24.1509 25.7852V49.1648L22.0962 48.2187V25.7852H24.1509Z" fill="#D8D4C9"/>
<path d="M24.1509 25.7852V34.2851C23.4897 34.6005 22.8032 34.8729 22.0962 35.0995V25.7852H24.1509Z" fill="#B5B1A4"/>
<path d="M17.0005 33.3604C26.2127 33.3604 33.6807 25.8924 33.6807 16.6802C33.6807 7.46798 26.2127 0 17.0005 0C7.7883 0 0.320312 7.46798 0.320312 16.6802C0.320312 25.8924 7.7883 33.3604 17.0005 33.3604Z" fill="#DCDCDC"/>
<path d="M17.0004 29.537C24.1014 29.537 29.8578 23.7806 29.8578 16.6796C29.8578 9.57871 24.1014 3.82227 17.0004 3.82227C9.89951 3.82227 4.14307 9.57871 4.14307 16.6796C4.14307 23.7806 9.89951 29.537 17.0004 29.537Z" fill="#B6B6B6"/>
<path d="M17.0002 27.7358C23.1059 27.7358 28.0556 22.7861 28.0556 16.6804C28.0556 10.5747 23.1059 5.625 17.0002 5.625C10.8945 5.625 5.94482 10.5747 5.94482 16.6804C5.94482 22.7861 10.8945 27.7358 17.0002 27.7358Z" fill="#D7D7D7"/>
<path d="M16.4582 21.6981L13.2053 23.0762C12.392 23.4208 11.5043 22.7758 11.5807 21.8959L11.8861 18.3763C11.9136 18.0602 11.8116 17.7464 11.6036 17.5068L9.28779 14.8389C8.70879 14.1719 9.04785 13.1284 9.9083 12.9291L13.35 12.132C13.6592 12.0604 13.9261 11.8665 14.0896 11.5946L15.9112 8.56763C16.3667 7.81079 17.4639 7.81079 17.9193 8.56763L19.7409 11.5946C19.9046 11.8665 20.1714 12.0604 20.4806 12.132L23.9223 12.9291C24.7828 13.1284 25.1219 14.1718 24.5428 14.8389L22.227 17.5068C22.019 17.7464 21.917 18.0602 21.9444 18.3763L22.2499 21.8959C22.3263 22.7758 21.4386 23.4208 20.6253 23.0762L17.3724 21.6981C17.0803 21.5744 16.7504 21.5744 16.4582 21.6981Z" fill="#F7F7F7"/>
<path d="M6.52146 27.12C7.30134 26.4701 7.42663 25.3209 6.8073 24.5166C5.1368 22.3473 4.14295 19.6301 4.14295 16.6805C4.14295 9.57897 9.89977 3.82313 17.0003 3.82313C18.6011 3.82313 20.1332 4.1161 21.5467 4.65086C22.4041 4.97527 23.3691 4.6242 23.8345 3.83436C23.8409 3.82332 23.8475 3.81239 23.8539 3.80135C24.4487 2.79208 23.9925 1.48642 22.8966 1.07226C21.0635 0.379295 19.0762 0 17.0004 0C7.78854 0 0.319824 7.46774 0.319824 16.6806C0.319824 20.5033 1.60664 24.0251 3.77 26.838C4.42801 27.6935 5.66287 27.8356 6.49206 27.1446L6.52146 27.12Z" fill="#F8F8F8"/>
</svg>
