<svg width="34" height="50" viewBox="0 0 34 50" fill="none" xmlns="http://www.w3.org/2000/svg">
<path d="M27.1692 25.7852V49.0067C27.1692 49.7304 26.4192 50.2108 25.762 49.9081L17.8305 46.2528C17.3041 46.0097 16.6967 46.0097 16.1703 46.2528L8.23877 49.9081C7.58154 50.2108 6.83154 49.7304 6.83154 49.0067V25.7852H27.1692Z" fill="#4890E4"/>
<path d="M27.1692 25.7852V32.4355C24.3548 34.6035 20.8274 35.8926 17.0004 35.8926C13.1733 35.8926 9.6459 34.6035 6.83154 32.4355V25.7852H27.1692Z" fill="#2B6AB4"/>
<path d="M11.9048 25.7852V48.2187L9.8501 49.1648V25.7852H11.9048Z" fill="#F1EEE0"/>
<path d="M9.8501 25.7852H11.9048V35.0995C11.1978 34.8729 10.5112 34.6005 9.8501 34.2851V25.7852Z" fill="#D8D4C9"/>
<path d="M24.1509 25.7852V49.1648L22.0962 48.2187V25.7852H24.1509Z" fill="#D8D4C9"/>
<path d="M24.1509 25.7852V34.2851C23.4897 34.6005 22.8032 34.8729 22.0962 35.0995V25.7852H24.1509Z" fill="#B5B1A4"/>
<path d="M17.0005 33.3604C26.2127 33.3604 33.6807 25.8924 33.6807 16.6802C33.6807 7.46798 26.2127 0 17.0005 0C7.7883 0 0.320312 7.46798 0.320312 16.6802C0.320312 25.8924 7.7883 33.3604 17.0005 33.3604Z" fill="#FFE059"/>
<path d="M17.0004 29.537C24.1014 29.537 29.8578 23.7806 29.8578 16.6796C29.8578 9.57871 24.1014 3.82227 17.0004 3.82227C9.89951 3.82227 4.14307 9.57871 4.14307 16.6796C4.14307 23.7806 9.89951 29.537 17.0004 29.537Z" fill="#FF993A"/>
<path d="M17.0002 27.7358C23.1059 27.7358 28.0556 22.7861 28.0556 16.6804C28.0556 10.5747 23.1059 5.625 17.0002 5.625C10.8945 5.625 5.94482 10.5747 5.94482 16.6804C5.94482 22.7861 10.8945 27.7358 17.0002 27.7358Z" fill="#FFC751"/>
<path d="M16.5432 22.2499L13.2902 23.628C12.477 23.9725 11.5893 23.3276 11.6656 22.4476L11.9711 18.9281C11.9985 18.612 11.8966 18.2982 11.6886 18.0585L9.37275 15.3907C8.79375 14.7237 9.13281 13.6801 9.99326 13.4808L13.435 12.6837C13.7441 12.6122 14.011 12.4182 14.1746 12.1463L15.9962 9.11938C16.4517 8.36255 17.5488 8.36255 18.0043 9.11938L19.8259 12.1463C19.9896 12.4182 20.2564 12.6122 20.5655 12.6837L24.0072 13.4808C24.8678 13.6801 25.2068 14.7236 24.6277 15.3907L22.3119 18.0585C22.1039 18.2982 22.002 18.612 22.0294 18.9281L22.3349 22.4476C22.4112 23.3276 21.5235 23.9725 20.7103 23.628L17.4573 22.2499C17.1652 22.1261 16.8354 22.1261 16.5432 22.2499Z" fill="#FFF370"/>
<path d="M6.52146 27.12C7.30134 26.4701 7.42663 25.3209 6.8073 24.5166C5.1368 22.3473 4.14295 19.6301 4.14295 16.6805C4.14295 9.57897 9.89977 3.82313 17.0003 3.82313C18.6011 3.82313 20.1332 4.1161 21.5467 4.65086C22.4041 4.97527 23.3691 4.6242 23.8345 3.83436C23.8409 3.82332 23.8475 3.81239 23.8539 3.80135C24.4487 2.79208 23.9925 1.48642 22.8966 1.07226C21.0635 0.379295 19.0762 0 17.0004 0C7.78854 0 0.319824 7.46774 0.319824 16.6806C0.319824 20.5033 1.60664 24.0251 3.77 26.838C4.42801 27.6935 5.66287 27.8356 6.49206 27.1446L6.52146 27.12Z" fill="#FFF370"/>
</svg>
