<svg width="90" height="40" viewBox="0 0 90 40" fill="none" xmlns="http://www.w3.org/2000/svg">
<path fill-rule="evenodd" clip-rule="evenodd" d="M56.6689 11.6482C56.6689 10.186 57.827 9 59.2531 9C60.6817 9 61.839 10.186 61.839 11.6482C61.839 13.1111 60.6817 14.2946 59.2531 14.2946C57.827 14.2946 56.6689 13.1111 56.6689 11.6482ZM64.0991 11.1657L69.3407 10.205V30.8148H64.0991V11.1657ZM71.7551 11.1657V30.8148H77V10.205L71.7551 11.1657ZM56.6327 15.7404V30.8149H61.8768V15.7404H56.6327ZM46.3678 22.3346C46.3678 17.9069 48.8295 15.6793 53.6746 15.5194C53.6746 15.5194 54.5497 15.485 55.0662 15.5976V20.0038C51.9949 20.1121 51.6556 21.2483 51.6556 23.8982V30.8148H46.3678V22.3346ZM39.4475 15.7232C39.4409 15.7402 39.4321 15.764 39.4208 15.7942C39.2331 16.2989 38.3786 18.5961 36.4609 20.9713V10.205L31.0489 11.3016V30.8148H36.4609V24.7823C38.0281 27.1905 38.8025 30.8148 38.8025 30.8148H45.2836C44.6428 28.085 41.8385 23.0527 41.8385 23.0527C44.3564 19.7827 45.4609 16.3003 45.6372 15.7232H39.4475ZM19.7757 16.3115C19.7757 17.7263 21.311 17.8286 21.9736 17.8725C26.8339 18.2062 29.7305 20.6428 29.7305 24.3918C29.7305 27.6997 27.1404 31.0359 21.3622 31.0359C18.683 31.0359 16.397 30.7658 14.3695 30.2197V25.405C15.7234 25.9752 17.954 26.5738 20.2519 26.5738C22.349 26.5738 23.5962 25.8634 23.5962 24.6559C23.5962 23.199 22.0837 23.1041 21.5037 23.0677L21.4974 23.0673C14.729 22.5951 14 18.4943 14 16.7536C14 13.7304 16.0946 10.205 22.0064 10.205C25.4355 10.205 27.284 10.7528 28.8764 11.3231L28.9562 11.348V16.0242L28.8965 16.007C28.2574 15.7301 27.5066 15.4583 27.5066 15.4583C26.1578 15.0446 24.2715 14.6042 22.8135 14.6042C21.9845 14.6042 19.7757 14.6042 19.7757 16.3115Z" fill="#862165"/>
</svg>
