<svg width="90" height="40" viewBox="0 0 90 40" fill="none" xmlns="http://www.w3.org/2000/svg">
<path fill-rule="evenodd" clip-rule="evenodd" d="M44.5914 33.2339C41.4572 35.8757 37.3915 37.4706 32.9489 37.4706C23.036 37.4706 15 29.5302 15 19.7353C15 9.94036 23.036 2 32.9489 2C37.3915 2 41.4572 3.59485 44.5914 6.23673C47.7257 3.59485 51.7913 2 56.2339 2C66.1468 2 74.1828 9.94036 74.1828 19.7353C74.1828 29.5302 66.1468 37.4706 56.2339 37.4706C51.7913 37.4706 47.7257 35.8757 44.5914 33.2339Z" fill="#ED0006"/>
<path fill-rule="evenodd" clip-rule="evenodd" d="M44.5914 33.2339C48.4506 29.9809 50.8978 25.1405 50.8978 19.7353C50.8978 14.3301 48.4506 9.4897 44.5914 6.23672C47.7256 3.59485 51.7913 2 56.2339 2C66.1468 2 74.1828 9.94036 74.1828 19.7353C74.1828 29.5302 66.1468 37.4706 56.2339 37.4706C51.7913 37.4706 47.7256 35.8757 44.5914 33.2339Z" fill="#F9A000"/>
<path fill-rule="evenodd" clip-rule="evenodd" d="M44.5915 33.2339C48.4507 29.9809 50.8977 25.1405 50.8977 19.7354C50.8977 14.3302 48.4507 9.48984 44.5915 6.23686C40.7322 9.48984 38.2852 14.3302 38.2852 19.7354C38.2852 25.1405 40.7322 29.9809 44.5915 33.2339Z" fill="#FF5E00"/>
</svg>
