<svg width="90" height="40" viewBox="0 0 90 40" fill="none" xmlns="http://www.w3.org/2000/svg">
<path fill-rule="evenodd" clip-rule="evenodd" d="M11 26.6705C11.0458 26.4242 11.0878 26.1857 11.1289 25.9519C11.1925 25.5906 11.2541 25.2405 11.325 24.8903C11.6249 23.3066 11.9269 21.725 12.229 20.1434C12.531 18.5617 12.8331 16.98 13.133 15.3963C13.1747 15.1957 13.233 15.062 13.433 15.0286C14.9911 14.7946 16.5575 14.6274 18.1157 15.0202C19.4738 15.3545 20.4237 16.3156 20.582 17.4439C20.9069 19.692 19.5988 21.4889 17.6574 22.1324C16.6325 22.4667 15.591 22.5502 14.5328 22.45C14.2829 22.4249 14.2079 22.4917 14.1662 22.7341C13.9413 23.9627 13.7079 25.1828 13.4663 26.403C13.4497 26.5033 13.358 26.6621 13.2997 26.6621C12.7334 26.6746 12.1764 26.6731 11.5975 26.6715L11.5966 26.6715C11.4007 26.671 11.2022 26.6705 11 26.6705ZM15.0572 20.4694L15.0572 20.4694C15.3831 20.4783 15.6909 20.4866 15.991 20.4526C16.8575 20.3606 17.5491 19.9678 17.9407 19.1404C18.3823 18.2044 18.0657 17.2099 17.2325 16.9174C16.6409 16.7084 16.0326 16.7502 15.4244 16.8338C15.3494 16.8421 15.2494 16.9591 15.2327 17.0344C15.1162 17.647 14.9996 18.2622 14.8787 18.9005C14.7835 19.403 14.6856 19.9198 14.5828 20.4609C14.7457 20.4609 14.9035 20.4652 15.0572 20.4694ZM25.7729 25.0658C25.6411 25.2033 25.5176 25.3417 25.3969 25.4769L25.3969 25.4769L25.3969 25.4769L25.3969 25.4769L25.3969 25.477L25.3969 25.477C25.1362 25.769 24.8886 26.0465 24.5981 26.2693C23.7232 26.9462 22.7234 27.0967 21.7152 26.6286C20.7153 26.169 20.307 25.2747 20.2654 24.2217C20.1737 22.007 20.9486 20.1767 22.8067 18.9064C23.9732 18.1041 25.3147 17.8617 26.7061 17.9369C27.1664 17.9641 27.6232 18.0442 28.081 18.1245L28.081 18.1245C28.3276 18.1677 28.5746 18.211 28.8225 18.2462C29.1058 18.2879 29.1475 18.4467 29.0975 18.6891C29.0306 19.0386 28.963 19.3878 28.8954 19.7368L28.8954 19.7369C28.643 21.0399 28.3912 22.3399 28.1809 23.645C28.0603 24.3922 28.0122 25.1576 27.9646 25.9154C27.9563 26.0475 27.948 26.1795 27.9393 26.3111C27.9226 26.5785 27.856 26.6871 27.581 26.6788C27.0644 26.6621 26.5478 26.6621 26.0312 26.6788C25.7646 26.6871 25.673 26.5869 25.698 26.3278C25.7217 26.0415 25.737 25.7467 25.7529 25.4404L25.7529 25.4404L25.7529 25.4403L25.7529 25.4403L25.7529 25.4402L25.7529 25.4402C25.7593 25.3173 25.7658 25.1926 25.7729 25.0658ZM26.3562 19.9008C25.548 19.6752 24.8731 19.834 24.3065 20.3103C23.24 21.2129 22.7567 22.383 22.8484 23.7787C22.8734 24.2049 23.04 24.6144 23.4899 24.7983C23.9399 24.9821 24.3481 24.8484 24.6981 24.5475C24.9064 24.3637 25.1064 24.1547 25.2563 23.9207C25.844 23.021 26.0046 22.0061 26.1677 20.9752C26.2242 20.6176 26.2811 20.2581 26.3562 19.9008ZM38.1628 24.5811C38.6211 26.052 39.8792 26.871 42.0873 26.871C43.6037 26.8292 45.1118 25.9684 46.0534 24.1966C46.5533 23.2439 46.7366 22.2243 46.67 21.1545C46.6116 20.1266 46.2034 19.2574 45.3701 18.639C44.4953 17.9871 43.4954 17.8534 42.4289 17.9704C38.8627 18.3715 37.4046 22.1574 38.1628 24.5811ZM40.5357 23.3537C40.5366 23.311 40.5375 23.2686 40.5375 23.2272C40.5625 22.2661 40.7958 21.3718 41.3707 20.5779C41.629 20.2268 41.954 19.9594 42.3872 19.8591C43.2704 19.6585 43.9953 20.1683 44.0787 21.1294C44.1786 22.3078 43.8954 23.3943 43.1538 24.3387C42.8705 24.6897 42.5122 24.9321 42.054 24.9739C41.2291 25.0491 40.6042 24.4891 40.5375 23.6116C40.5319 23.5277 40.5338 23.4401 40.5357 23.3537ZM48.6531 18.1459H50.7694C50.7361 18.5972 50.7028 19.0318 50.6611 19.4747C50.7383 19.4026 50.8129 19.3314 50.8861 19.2616C51.042 19.1128 51.1912 18.9704 51.3443 18.8396C52.1692 18.1208 53.1108 17.8032 54.2023 17.9787C55.1021 18.1292 55.7271 18.7894 55.827 19.7171C55.9357 20.6824 55.7552 21.6187 55.5751 22.553L55.5354 22.7592C55.4623 23.139 55.39 23.5187 55.3178 23.8983L55.3177 23.8987L55.3176 23.8991L55.3175 23.8995C55.1593 24.7306 55.0013 25.5604 54.8355 26.3863C54.8105 26.495 54.6855 26.6538 54.6022 26.6621C53.8856 26.6788 53.1691 26.6705 52.4525 26.6621C52.4285 26.6621 52.4045 26.6491 52.368 26.6293C52.3538 26.6216 52.3378 26.6129 52.3192 26.6036C52.4525 25.9099 52.5858 25.2079 52.7108 24.5059C52.9025 23.4278 53.0858 22.358 53.2524 21.2799C53.2857 21.0961 53.2691 20.9038 53.2441 20.72C53.1774 20.0765 52.7025 19.784 52.0859 19.9762C51.486 20.1684 51.1277 20.6364 50.8361 21.1546C50.4028 21.9151 50.2528 22.7592 50.1028 23.6033C50.0656 23.8104 50.0289 24.0171 49.9921 24.2236L49.991 24.2297L49.991 24.23C49.8635 24.9462 49.7365 25.6595 49.5946 26.378C49.5696 26.4866 49.4446 26.6538 49.3613 26.6621C48.777 26.6821 48.1875 26.6808 47.5589 26.6795H47.5588H47.5583C47.3983 26.6792 47.2356 26.6788 47.0699 26.6788C47.6199 23.8039 48.1365 20.9874 48.6531 18.1459ZM60.6679 24.9238C59.7847 24.8151 59.1931 24.1967 59.2515 23.3275C59.4357 23.3275 59.619 23.3303 59.8014 23.3331C60.1634 23.3387 60.5216 23.3442 60.8762 23.3275C61.7344 23.2774 62.576 23.1353 63.3592 22.7425C64.3591 22.2411 64.8257 21.4137 64.7507 20.3356C64.6757 19.2407 64.0841 18.4468 63.0259 18.1292C61.4428 17.6528 59.9847 17.9871 58.7432 19.0485C57.2351 20.3356 56.6685 22.0405 56.8851 23.9878C57.0351 25.3667 57.785 26.3529 59.1515 26.7039C60.6179 27.08 62.0594 26.8794 63.4509 26.3111C63.5509 26.2693 63.6675 26.1105 63.6592 26.0103C63.6392 25.6024 63.5979 25.1946 63.5565 24.7868C63.5462 24.6848 63.5359 24.5828 63.5259 24.4808C63.4985 24.4808 63.4781 24.4794 63.4625 24.4784C63.4401 24.4768 63.4274 24.4759 63.4175 24.4808C63.3259 24.5143 63.2342 24.5477 63.1509 24.5811C62.351 24.8904 61.5261 25.0241 60.6679 24.9238ZM61.9593 21.2214C61.4511 21.4888 60.1346 21.6476 59.493 21.5139C59.6264 20.4024 60.8012 19.5332 61.7927 19.7755C62.126 19.8591 62.3676 20.0346 62.4259 20.394C62.4843 20.745 62.3093 21.0375 61.9593 21.2214ZM67.5754 23.361C67.5004 24.18 68.0836 24.8068 68.9752 24.9238C69.8084 25.0241 70.6083 24.8988 71.3915 24.6146C71.4637 24.5875 71.5334 24.5603 71.6099 24.5305C71.6748 24.5053 71.7445 24.4781 71.8248 24.4475C71.841 24.6243 71.8591 24.7976 71.8769 24.9685L71.8769 24.9691C71.9138 25.323 71.9496 25.6667 71.9664 26.0103C71.9747 26.1106 71.8581 26.2694 71.7664 26.3112C70.35 26.8962 68.8918 27.0968 67.4004 26.6872C66.0589 26.3195 65.359 25.3417 65.1923 24.0045C64.984 22.2912 65.4256 20.7451 66.6171 19.4748C67.9003 18.1125 69.4751 17.6278 71.2915 18.1292C72.3997 18.4385 72.9913 19.2408 73.0579 20.369C73.1246 21.4722 72.6247 22.2996 71.5831 22.7843C70.5333 23.2691 69.4168 23.3443 68.2836 23.3693C68.0586 23.361 67.8253 23.361 67.5754 23.361ZM67.817 21.5809C67.9686 21.5714 68.1175 21.5639 68.2642 21.5565C68.6338 21.538 68.9899 21.5201 69.3418 21.4722C69.6751 21.4305 70.0083 21.3302 70.3083 21.1881C70.6333 21.046 70.7916 20.7451 70.7416 20.3774C70.6916 20.0264 70.4583 19.8593 70.1333 19.7757C69.1501 19.5082 67.9253 20.4108 67.817 21.5809ZM73.5161 24.9237C73.4078 25.492 73.3078 26.052 73.1995 26.6704C73.3663 26.6704 73.5308 26.6708 73.6934 26.6711C74.3345 26.6724 74.946 26.6737 75.5575 26.6537C75.6158 26.6537 75.7074 26.4949 75.7241 26.3946C75.8091 25.9772 75.8879 25.5578 75.9667 25.1385C76.1119 24.3655 76.257 23.5929 76.4407 22.8344C76.8489 21.1462 77.5405 20.5611 79.1819 20.3439C79.2486 20.3355 79.3569 20.2603 79.3736 20.2018C79.4782 19.7214 79.5718 19.2375 79.669 18.7354C79.7189 18.4774 79.7698 18.2147 79.8235 17.9453C78.2404 17.7781 77.3572 18.6974 76.5907 19.8257L76.6028 19.6651C76.6405 19.1653 76.6788 18.6567 76.724 18.1208C76.5507 18.1208 76.3807 18.1202 76.2131 18.1197C75.7196 18.1182 75.2469 18.1167 74.7742 18.1291C74.7076 18.1375 74.5826 18.2879 74.5743 18.3799C74.3965 20.5279 73.9757 22.6287 73.5552 24.7282L73.5161 24.9237Z" fill="white"/>
<path fill-rule="evenodd" clip-rule="evenodd" d="M51.4557 8.06346C51.3713 8.04113 51.287 8.0188 51.2026 8C50.9443 8 50.686 8 50.4111 8.00836C50.3172 8.0272 50.2232 8.04773 50.1286 8.06844C50.0132 8.09366 49.8968 8.11913 49.7778 8.14208C48.503 8.38444 47.3032 8.82738 46.145 9.4124C43.637 10.6827 41.3873 12.3291 39.371 14.2764C38.0295 15.5635 36.7297 16.909 35.4715 18.288C33.2635 20.7116 31.3721 23.3777 29.864 26.3027C29.0891 27.8154 28.3892 29.3616 28.0726 31.0414C28.0142 31.3506 28.1142 31.71 28.2142 32.0192C28.2559 32.1446 28.4892 32.2365 28.6475 32.2867C28.6892 32.3034 28.8141 32.0944 28.8725 31.9774C28.8932 31.9321 28.9144 31.8857 28.936 31.8382C29.2979 31.0455 29.7872 29.9735 30.2117 29.2638C31.1116 27.7595 31.822 26.5953 32.8302 25.1661C34.4467 22.8678 36.3354 20.6129 38.3184 18.6238C40.1932 16.7434 42.0706 15.062 44.4286 13.7917C45.5118 13.215 46.6199 12.6467 47.7531 12.1787C49.7112 11.368 51.7525 10.8165 53.8522 10.5072C54.0772 10.4738 54.3772 10.2983 54.4522 10.1144C54.5188 9.94728 54.3605 9.6297 54.2022 9.47091C53.5606 8.81067 52.8107 8.30922 51.8775 8.15879C51.7369 8.1379 51.5963 8.10068 51.4557 8.06346ZM32.3803 19.4664C32.7802 18.3799 32.9802 17.2517 33.0052 16.0816C32.9941 15.9563 32.9848 15.8309 32.9756 15.7055C32.9571 15.4548 32.9386 15.2041 32.9052 14.9534C32.6803 13.0144 31.847 11.368 30.5222 9.95563C30.3639 9.79684 30.1473 9.67148 29.9307 9.59626C29.714 9.51268 29.5724 9.63805 29.589 9.88877L29.5903 9.90467C29.6065 10.1171 29.6234 10.337 29.664 10.549C29.7226 10.883 29.7807 11.2173 29.8389 11.5519C30.0457 12.7413 30.253 13.9334 30.4806 15.1205C30.7055 16.3156 30.9555 17.5024 31.2221 18.6808C31.3138 19.0569 31.4638 19.4329 31.6471 19.784C31.7887 20.0514 31.9887 20.0263 32.172 19.784C32.2553 19.6837 32.3386 19.5834 32.3803 19.4664Z" fill="#FC461E"/>
</svg>
