<svg width="90" height="40" viewBox="0 0 90 40" fill="none" xmlns="http://www.w3.org/2000/svg">
<path fill-rule="evenodd" clip-rule="evenodd" d="M28.7507 30.5365H23.2984L19.2099 14.4798C19.0158 13.7412 18.6038 13.0882 17.9977 12.7805C16.4851 12.0071 14.8183 11.3916 13 11.0811V10.463H21.7832C22.9954 10.463 23.9045 11.3916 24.056 12.47L26.1774 24.0523L31.627 10.463H36.9277L28.7507 30.5365ZM39.9582 30.5365H34.809L39.0491 10.463H44.1983L39.9582 30.5365ZM50.8601 16.0239C51.0116 14.9428 51.9208 14.3246 52.9814 14.3246C54.6482 14.1694 56.4639 14.4798 57.9791 15.2505L58.8883 10.9286C57.373 10.3104 55.7062 10 54.1937 10C49.196 10 45.5594 12.7805 45.5594 16.6395C45.5594 19.5752 48.1353 21.1166 49.9536 22.0452C51.9208 22.9712 52.6784 23.5893 52.5269 24.5153C52.5269 25.9042 51.0116 26.5224 49.499 26.5224C47.6807 26.5224 45.8624 26.0594 44.1983 25.286L43.2891 29.6106C45.1074 30.3813 47.0746 30.6918 48.8929 30.6918C54.4967 30.8443 57.9791 28.0665 57.9791 23.8971C57.9791 18.6465 50.8601 18.3388 50.8601 16.0239ZM76 30.5365L71.9115 10.463H67.5199C66.6107 10.463 65.7016 11.0811 65.3985 12.0071L57.8276 30.5365H63.1283L64.1863 27.6035H70.6993L71.3054 30.5365H76ZM68.2775 15.8687L69.7901 23.4341H65.5501L68.2775 15.8687Z" fill="#172B85"/>
</svg>
