<svg width="28" height="28" viewBox="0 0 28 28" fill="none" xmlns="http://www.w3.org/2000/svg">
<path d="M14 2.625C11.7502 2.625 9.551 3.29213 7.68039 4.54203C5.80978 5.79193 4.35182 7.56847 3.49088 9.64698C2.62993 11.7255 2.40467 14.0126 2.84357 16.2192C3.28248 18.4257 4.36584 20.4525 5.95667 22.0433C7.54749 23.6342 9.57432 24.7175 11.7809 25.1564C13.9874 25.5953 16.2745 25.3701 18.353 24.5091C20.4315 23.6482 22.2081 22.1902 23.458 20.3196C24.7079 18.449 25.375 16.2498 25.375 14C25.3716 10.9842 24.1721 8.09292 22.0396 5.96043C19.9071 3.82794 17.0158 2.62841 14 2.625ZM10.0625 10.5C10.3221 10.5 10.5759 10.577 10.7917 10.7212C11.0075 10.8654 11.1758 11.0704 11.2751 11.3102C11.3744 11.5501 11.4004 11.814 11.3498 12.0686C11.2991 12.3232 11.1741 12.557 10.9906 12.7406C10.807 12.9241 10.5732 13.0491 10.3186 13.0998C10.064 13.1504 9.80006 13.1244 9.56023 13.0251C9.32041 12.9258 9.11542 12.7575 8.9712 12.5417C8.82698 12.3258 8.75 12.0721 8.75 11.8125C8.75 11.4644 8.88829 11.1306 9.13443 10.8844C9.38057 10.6383 9.71441 10.5 10.0625 10.5ZM19.305 17.0627C18.7669 17.9933 17.9934 18.766 17.0623 19.3032C16.1311 19.8404 15.075 20.1232 14.0001 20.1232C12.9251 20.1232 11.869 19.8405 10.9378 19.3033C10.0066 18.7661 9.23315 17.9935 8.695 17.0629C8.57908 16.862 8.54764 16.6234 8.60758 16.3993C8.66752 16.1753 8.81395 15.9842 9.01468 15.8681C9.21541 15.752 9.45404 15.7203 9.67813 15.78C9.90222 15.8397 10.0934 15.9859 10.2098 16.1865C10.6873 17.0114 11.4199 17.6588 12.2973 18.0312C13.0993 18.3704 13.9843 18.4623 14.8388 18.2952C15.6934 18.1281 16.4785 17.7095 17.0936 17.0932C17.3643 16.8225 17.5985 16.5177 17.7902 16.1864C17.9066 15.986 18.0978 15.8399 18.3218 15.7802C18.5459 15.7206 18.7844 15.7523 18.9851 15.8684C19.1857 15.9845 19.3321 16.1754 19.3921 16.3994C19.4521 16.6233 19.4208 16.8619 19.305 17.0627V17.0627ZM19.6875 12.6875H16.1875C15.9554 12.6875 15.7329 12.5953 15.5688 12.4312C15.4047 12.2671 15.3125 12.0446 15.3125 11.8125C15.3125 11.5804 15.4047 11.3579 15.5688 11.1938C15.7329 11.0297 15.9554 10.9375 16.1875 10.9375H19.6875C19.9196 10.9375 20.1421 11.0297 20.3062 11.1938C20.4703 11.3579 20.5625 11.5804 20.5625 11.8125C20.5625 12.0446 20.4703 12.2671 20.3062 12.4312C20.1421 12.5953 19.9196 12.6875 19.6875 12.6875Z" fill="yellow"/>
</svg>
