<svg width="131" height="90" viewBox="0 0 131 90" fill="none" xmlns="http://www.w3.org/2000/svg">
<path d="M20.2998 19.6877C14.777 19.6877 10.2998 24.1649 10.2998 29.6877C10.2998 30.24 10.7475 30.6877 11.2998 30.6877H13.2998C13.8521 30.6877 14.2998 30.24 14.2998 29.6877C14.2998 26.374 16.9861 23.6877 20.2998 23.6877H34.2997C37.6135 23.6877 40.2997 26.374 40.2997 29.6877C40.2997 30.24 40.7474 30.6877 41.2997 30.6877H43.2997C43.852 30.6877 44.2997 30.24 44.2997 29.6877C44.2997 24.1649 39.8226 19.6877 34.2997 19.6877H20.2998Z" fill="#CFD8E3"/>
<path fill-rule="evenodd" clip-rule="evenodd" d="M22.2998 26.6877C18.9861 26.6877 16.2998 29.374 16.2998 32.6877V44.6877C16.2998 50.2105 20.777 54.6877 26.2998 54.6877H28.2998C33.8226 54.6877 38.2997 50.2105 38.2997 44.6877V32.6877C38.2997 29.374 35.6135 26.6877 32.2997 26.6877H22.2998ZM34.2731 38.1183C34.0779 39.569 32.8349 40.6877 31.3307 40.6877H20.2998V44.6877C20.2998 48.5537 23.4338 51.6877 27.2998 51.6877C31.1657 51.6877 34.2997 48.5537 34.2997 44.6877V38.6877C34.2997 38.4956 34.2907 38.3057 34.2731 38.1183Z" fill="#CFD8E3"/>
<path d="M9.29981 65.6876C9.29981 60.7171 13.3292 56.6876 18.2998 56.6876H36.2997C37.0919 56.6876 37.8601 56.79 38.592 56.9822C38.8478 59.9408 40.2489 62.5719 42.3495 64.4299C42.2397 64.8366 42.1687 65.2574 42.1404 65.6876H9.29981Z" fill="#CFD8E3"/>
<path d="M42.5187 68.6876H2.79983C1.41912 68.6876 0.299835 69.8069 0.299835 71.1876C0.299835 72.5683 1.41912 73.6876 2.79983 73.6876H44.2241C44.3377 73.5296 44.4545 73.374 44.5744 73.221C43.6719 71.87 42.9528 70.3515 42.5187 68.6876Z" fill="#CFD8E3"/>
<path d="M48.0559 68.6876H51.7997C52.8746 68.6876 53.7911 69.366 54.1443 70.318C54.0434 70.3997 53.9205 70.4559 53.7776 70.4748L49.8954 70.9875C49.7294 71.0094 49.5632 70.9748 49.4246 70.8917C49.3469 70.8451 49.2779 70.7834 49.2224 70.7078C48.9869 70.3872 48.7699 70.0563 48.5733 69.7157C48.3807 69.3821 48.2077 69.0392 48.0559 68.6876Z" fill="#CFD8E3"/>
<path d="M85.3752 73.6876H127.549C128.93 73.6876 130.049 72.5683 130.049 71.1876C130.049 69.8069 128.93 68.6876 127.549 68.6876H78.9731C78.9682 68.6959 78.9633 68.7043 78.9585 68.7126C81.5509 69.7198 83.7756 71.4639 85.3752 73.6876Z" fill="#CFD8E3"/>
<path d="M85.5228 65.6876H121.05C121.05 60.7171 117.02 56.6876 112.05 56.6876H94.0496C92.9731 56.6876 91.9407 56.8766 90.9839 57.2233C90.5939 60.8297 88.4996 63.9252 85.5228 65.6876Z" fill="#CFD8E3"/>
<path d="M90.9232 54.3082L92.0275 54.1623C92.7341 54.069 92.9529 53.0621 92.429 52.5788C91.4364 51.663 90.7489 50.5621 90.5848 49.3195C90.4946 48.6364 89.8678 48.1558 89.1847 48.246L88.0861 48.3911C89.5656 50.0014 90.5817 52.0442 90.9232 54.3082Z" fill="#CFD8E3"/>
<path d="M87.0446 45.6039C87.3713 45.659 87.7071 45.6877 88.0496 45.6877C88.3849 45.6877 88.7138 45.6602 89.0341 45.6073C89.6549 45.5048 90.0496 44.9256 90.0496 44.2964V35.0789C90.0496 34.4498 89.6549 33.8706 89.0341 33.7681C88.7138 33.7152 88.3849 33.6877 88.0496 33.6877C86.1255 33.6877 84.4129 34.5934 83.3149 36.0018C85.5607 38.5861 86.9509 41.9338 87.0446 45.6039Z" fill="#CFD8E3"/>
<path d="M46.669 35.5756C45.5748 34.4134 44.022 33.6877 42.2997 33.6877C41.9644 33.6877 41.6355 33.7152 41.3152 33.7681C40.6944 33.8706 40.2997 34.4498 40.2997 35.0789V44.2964C40.2997 44.9256 40.6944 45.5048 41.3152 45.6073C41.6355 45.6602 41.9644 45.6877 42.2997 45.6877C42.3846 45.6877 42.469 45.6859 42.553 45.6824C42.6328 41.7762 44.1814 38.2306 46.669 35.5756Z" fill="#CFD8E3"/>
<path d="M13.2843 33.7681C13.9051 33.8706 14.2998 34.4498 14.2998 35.0789V44.2964C14.2998 44.9256 13.9051 45.5048 13.2843 45.6073C12.964 45.6602 12.6351 45.6877 12.2998 45.6877C8.9861 45.6877 6.29982 43.0014 6.29982 39.6877C6.29982 36.374 8.9861 33.6877 12.2998 33.6877C12.6351 33.6877 12.964 33.7152 13.2843 33.7681Z" fill="#CFD8E3"/>
<path d="M16.2777 54.1623C16.9843 54.069 17.2031 53.0621 16.6792 52.5788C15.6866 51.663 14.9991 50.5621 14.835 49.3195C14.7448 48.6364 14.118 48.1558 13.4349 48.246L10.9614 48.5727C10.2783 48.6629 9.79774 49.2897 9.88794 49.9728C10.1019 51.5927 10.7568 53.0803 11.7225 54.3954C11.8771 54.6059 12.1365 54.7092 12.3955 54.675L16.2777 54.1623Z" fill="#CFD8E3"/>
<path fill-rule="evenodd" clip-rule="evenodd" d="M98.0496 26.6877C94.7359 26.6877 92.0496 29.374 92.0496 32.6877V44.6877C92.0496 50.2105 96.5267 54.6877 102.05 54.6877H104.05C109.572 54.6877 114.05 50.2105 114.05 44.6877V32.6877C114.05 29.374 111.363 26.6877 108.05 26.6877H98.0496ZM110.023 38.1183C109.828 39.569 108.585 40.6877 107.08 40.6877H96.0496V44.6877C96.0496 48.5537 99.1836 51.6877 103.05 51.6877C106.916 51.6877 110.05 48.5537 110.05 44.6877V38.6877C110.05 38.4956 110.041 38.3057 110.023 38.1183Z" fill="#CFD8E3"/>
<path d="M116.05 35.0789C116.05 34.4498 116.444 33.8706 117.065 33.7681C117.385 33.7152 117.714 33.6877 118.05 33.6877C121.363 33.6877 124.049 36.374 124.049 39.6877C124.049 43.0014 121.363 45.6877 118.05 45.6877C117.714 45.6877 117.385 45.6602 117.065 45.6073C116.444 45.5048 116.05 44.9256 116.05 44.2964V35.0789Z" fill="#CFD8E3"/>
<path d="M96.0496 19.6877C90.5268 19.6877 86.0496 24.1649 86.0496 29.6877C86.0496 30.24 86.4973 30.6877 87.0496 30.6877H89.0496C89.6019 30.6877 90.0496 30.24 90.0496 29.6877C90.0496 26.374 92.7359 23.6877 96.0496 23.6877H110.05C113.363 23.6877 116.05 26.374 116.05 29.6877C116.05 30.24 116.497 30.6877 117.05 30.6877H119.05C119.602 30.6877 120.05 30.24 120.05 29.6877C120.05 24.1649 115.572 19.6877 110.05 19.6877H96.0496Z" fill="#CFD8E3"/>
<path d="M37.7997 87.4999C37.7997 86.1192 38.919 84.9999 40.2997 84.9999H89.2996C90.6803 84.9999 91.7996 86.1192 91.7996 87.4999C91.7996 88.8806 90.6803 89.9999 89.2996 89.9999H40.2997C38.919 89.9999 37.7997 88.8806 37.7997 87.4999Z" fill="#CFD8E3"/>
<path d="M55.7997 72.9999C50.8291 72.9999 46.7997 77.0293 46.7997 81.9999H82.7996C82.7996 77.0293 78.7702 72.9999 73.7996 72.9999H55.7997Z" fill="#CFD8E3"/>
<path fill-rule="evenodd" clip-rule="evenodd" d="M59.7997 43C56.486 43 53.7997 45.6863 53.7997 49V60.9999C53.7997 66.5228 58.2768 70.9999 63.7997 70.9999H65.7997C71.3225 70.9999 75.7996 66.5228 75.7996 60.9999V49C75.7996 45.6863 73.1134 43 69.7996 43H59.7997ZM63.7997 49C60.4859 49 57.7997 51.6863 57.7997 54.9999V60.9999C57.7997 64.8659 60.9337 67.9999 64.7997 67.9999C68.6656 67.9999 71.7996 64.8659 71.7996 60.9999V54.9999C71.7996 51.6863 69.1134 49 65.7997 49H63.7997Z" fill="#CFD8E3"/>
<path d="M51.7997 51.3912C51.7997 50.762 51.405 50.1828 50.7842 50.0803C50.4639 50.0275 50.135 50 49.7997 50C46.486 50 43.7997 52.6862 43.7997 55.9999C43.7997 59.3136 46.486 61.9999 49.7997 61.9999C50.135 61.9999 50.4639 61.9724 50.7842 61.9195C51.405 61.8171 51.7997 61.2379 51.7997 60.6087V51.3912Z" fill="#CFD8E3"/>
<path d="M77.7996 51.3912C77.7996 50.762 78.1943 50.1828 78.8151 50.0803C79.1354 50.0275 79.4643 50 79.7996 50C83.1133 50 85.7996 52.6862 85.7996 55.9999C85.7996 59.3136 83.1133 61.9999 79.7996 61.9999C79.4643 61.9999 79.1354 61.9724 78.8151 61.9195C78.1943 61.8171 77.7996 61.2379 77.7996 60.6087V51.3912Z" fill="#CFD8E3"/>
<path d="M47.7997 46C47.7997 40.4771 52.2769 36 57.7997 36H71.7996C77.3225 36 81.7996 40.4771 81.7996 46C81.7996 46.5523 81.3519 47 80.7996 47H78.7996C78.2473 47 77.7996 46.5523 77.7996 46C77.7996 42.6863 75.1133 40 71.7996 40H57.7997C54.486 40 51.7997 42.6863 51.7997 46C51.7997 46.5523 51.352 47 50.7997 47H48.7997C48.2474 47 47.7997 46.5523 47.7997 46Z" fill="#CFD8E3"/>
<path d="M53.7776 70.4746C54.4842 70.3813 54.703 69.3744 54.1791 68.891C53.1865 67.9752 52.499 66.8743 52.3349 65.6317C52.2447 64.9487 51.6179 64.4681 50.9348 64.5583L48.4613 64.8849C47.7782 64.9751 47.2976 65.602 47.3878 66.285C47.6018 67.9049 48.2567 69.3926 49.2224 70.7076C49.377 70.9181 49.6364 71.0215 49.8953 70.9873L53.7776 70.4746Z" fill="#CFD8E3"/>
<path d="M55.7997 46H71.7996V54.0309C71.7996 55.6707 70.4703 56.9999 68.8306 56.9999H55.7997V46Z" fill="#CFD8E3"/>
<path fill-rule="evenodd" clip-rule="evenodd" d="M57.7379 8.75897C57.7353 8.77787 57.7321 8.79674 57.7285 8.81557L56.1965 16.7598C56.1434 17.074 56.19 17.397 56.3299 17.683C56.471 17.9714 56.6996 18.2071 56.9826 18.3556C57.2656 18.5041 57.5882 18.5578 57.9035 18.5089C58.2108 18.4612 58.4956 18.3185 58.7187 18.1008L62.7503 13.6069C62.9625 13.3704 63.2637 13.2348 63.5801 13.2336L69.6719 13.209L69.6764 13.209C70.6709 13.209 71.6248 12.8106 72.328 12.1015C73.0313 11.3925 73.4264 10.4308 73.4264 9.428C73.4264 9.20822 73.4074 8.9904 73.3703 8.77679L73.3684 8.76553C73.2348 8.00881 72.8744 7.30538 72.328 6.75446C71.6251 6.04576 70.6719 5.64745 69.6779 5.64704L69.6764 5.64704L61.4284 5.67163L61.4252 5.67163C60.5434 5.6717 59.6899 5.98492 59.0144 6.5563C58.3485 7.11958 57.8975 7.89826 57.7379 8.75897ZM61.7997 6.80592C62.421 6.80592 62.9247 7.31376 62.9247 7.94021V8.31831H63.2997C63.921 8.31831 64.4247 8.82615 64.4247 9.4526C64.4247 10.079 63.921 10.5869 63.2997 10.5869H62.9247V10.965C62.9247 11.5914 62.421 12.0993 61.7997 12.0993C61.1784 12.0993 60.6747 11.5914 60.6747 10.965V10.5869H60.2997C59.6784 10.5869 59.1747 10.079 59.1747 9.4526C59.1747 8.82615 59.6784 8.31831 60.2997 8.31831H60.6747V7.94021C60.6747 7.31376 61.1784 6.80592 61.7997 6.80592ZM66.6747 9.4526C66.6747 8.82615 67.1783 8.31831 67.7997 8.31831H70.7996C71.421 8.31831 71.9246 8.82615 71.9246 9.4526C71.9246 10.079 71.421 10.5869 70.7996 10.5869H67.7997C67.1783 10.5869 66.6747 10.079 66.6747 9.4526Z" fill="#61A200"/>
<path d="M74.248 13.346C74.1435 13.4699 74.0338 13.5899 73.919 13.7057C72.8771 14.7562 71.4915 15.3804 70.0288 15.4671L72.3822 18.1015C72.6052 18.3188 72.8898 18.4613 73.1967 18.5089C73.512 18.5578 73.8346 18.5041 74.1176 18.3556C74.4006 18.2071 74.6292 17.9714 74.7703 17.683C74.9102 17.3969 74.9569 17.0737 74.9037 16.7595L74.248 13.346Z" fill="#61A200"/>
<path fill-rule="evenodd" clip-rule="evenodd" d="M53.081 0C50.8546 0 49.0497 1.84358 49.0497 4.11775V20.5887C49.0497 22.8629 50.9483 24.7501 53.1747 24.7501H53.9247L52.1679 29.9999L59.2094 24.7501H63.3975L65.5497 33.0001L67.7018 24.7501H71.1399L78.1814 29.9999L76.4246 24.7501H77.1746C79.401 24.7501 81.2996 22.8629 81.2996 20.5887V4.11775C81.2996 1.84358 79.4948 0 77.2684 0H53.081ZM69.6764 3.37845L61.425 3.40305L61.4233 3.40305C60.0133 3.40356 58.6485 3.9046 57.5683 4.81832C56.4876 5.73241 55.7608 7.00109 55.5155 8.40165L55.5135 8.41353L55.5117 8.42501L53.9857 16.338L53.9821 16.3576C53.8437 17.1495 53.9592 17.9652 54.312 18.6864C54.6647 19.4075 55.2363 19.9965 55.9436 20.3678C56.651 20.7391 57.4574 20.8734 58.2456 20.7511C59.0338 20.6288 59.7629 20.2564 60.3268 19.6879C60.3401 19.6745 60.3531 19.6607 60.3657 19.6466L64.0857 15.5001L67.0195 15.4883L70.7329 19.6449C70.746 19.6596 70.7595 19.6739 70.7734 19.6879C71.3373 20.2564 72.0664 20.6288 72.8546 20.7511C73.6428 20.8734 74.4492 20.7391 75.1566 20.3678C75.8639 19.9965 76.4355 19.4075 76.7883 18.6864C77.141 17.9652 77.2565 17.1495 77.1181 16.3576L77.1147 16.3388L75.5838 8.36929C75.3702 7.15807 74.7936 6.03211 73.919 5.15033C72.7938 4.01582 71.2677 3.37846 69.6764 3.37845Z" fill="#61A200"/>
</svg>
