<svg width="131" height="74" viewBox="0 0 131 74" fill="none" xmlns="http://www.w3.org/2000/svg">
<path d="M0 71.4892C0 70.1027 1.12403 68.9786 2.51059 68.9786H51.7182C53.1048 68.9786 54.2288 70.1027 54.2288 71.4892C54.2288 72.8758 53.1048 73.9998 51.7182 73.9998H2.51059C1.12403 73.9998 0 72.8758 0 71.4892Z" fill="#CFD8E3"/>
<path d="M18.0763 56.9278C13.0846 56.9278 9.03814 60.9743 9.03814 65.9659H45.1907C45.1907 60.9743 41.1442 56.9278 36.1526 56.9278H18.0763Z" fill="#CFD8E3"/>
<path fill-rule="evenodd" clip-rule="evenodd" d="M22.0932 26.8007C18.7655 26.8007 16.0678 29.4983 16.0678 32.8261V44.8769C16.0678 50.4232 20.5639 54.9193 26.1102 54.9193H28.1187C33.6649 54.9193 38.161 50.4232 38.161 44.8769V32.8261C38.161 29.4983 35.4634 26.8007 32.1356 26.8007H22.0932ZM26.1102 32.8261C22.7824 32.8261 20.0848 35.5238 20.0848 38.8515V44.8769C20.0848 48.7593 23.2321 51.9066 27.1144 51.9066C30.9968 51.9066 34.1441 48.7593 34.1441 44.8769V38.8515C34.1441 35.5238 31.4464 32.8261 28.1187 32.8261H26.1102Z" fill="#CFD8E3"/>
<path d="M14.0593 35.2275C14.0593 34.5956 13.663 34.014 13.0396 33.911C12.7179 33.8579 12.3876 33.8303 12.0509 33.8303C8.7231 33.8303 6.02543 36.528 6.02543 39.8557C6.02543 43.1835 8.7231 45.8812 12.0509 45.8812C12.3876 45.8812 12.7179 45.8536 13.0396 45.8004C13.663 45.6975 14.0593 45.1159 14.0593 44.484V35.2275Z" fill="#CFD8E3"/>
<path d="M40.1695 35.2275C40.1695 34.5956 40.5659 34.014 41.1893 33.911C41.511 33.8579 41.8412 33.8303 42.178 33.8303C45.5057 33.8303 48.2034 36.528 48.2034 39.8557C48.2034 43.1835 45.5057 45.8812 42.178 45.8812C41.8412 45.8812 41.511 45.8536 41.1893 45.8004C40.5659 45.6975 40.1695 45.1159 40.1695 44.484V35.2275Z" fill="#CFD8E3"/>
<path d="M10.0424 29.8134C10.0424 24.2671 14.5385 19.771 20.0848 19.771H34.1441C39.6903 19.771 44.1865 24.2671 44.1865 29.8134C44.1865 30.368 43.7368 30.8176 43.1822 30.8176H41.1737C40.6191 30.8176 40.1695 30.368 40.1695 29.8134C40.1695 26.4856 37.4718 23.7879 34.1441 23.7879H20.0848C16.757 23.7879 14.0593 26.4856 14.0593 29.8134C14.0593 30.368 13.6097 30.8176 13.0551 30.8176H11.0466C10.492 30.8176 10.0424 30.368 10.0424 29.8134Z" fill="#CFD8E3"/>
<path d="M16.0456 54.3918C16.7553 54.298 16.975 53.2869 16.4489 52.8015C15.452 51.8818 14.7616 50.7762 14.5968 49.5284C14.5062 48.8424 13.8768 48.3598 13.1908 48.4504L10.7068 48.7784C10.0208 48.869 9.53818 49.4985 9.62876 50.1844C9.84359 51.8112 10.5013 53.3052 11.4711 54.6258C11.6264 54.8372 11.8869 54.941 12.1469 54.9066L16.0456 54.3918Z" fill="#CFD8E3"/>
<path d="M18.0763 29.8134H34.1441V37.8783C34.1441 39.5251 32.8091 40.86 31.1624 40.86H18.0763V29.8134Z" fill="#CFD8E3"/>
<path d="M76.071 71.4892C76.071 70.1027 77.195 68.9786 78.5816 68.9786H127.789C129.176 68.9786 130.3 70.1027 130.3 71.4892C130.3 72.8758 129.176 73.9998 127.789 73.9998H78.5816C77.195 73.9998 76.071 72.8758 76.071 71.4892Z" fill="#CFD8E3"/>
<path d="M94.1473 56.9278C89.1556 56.9278 85.1092 60.9743 85.1092 65.9659H121.262C121.262 60.9743 117.215 56.9278 112.224 56.9278H94.1473Z" fill="#CFD8E3"/>
<path fill-rule="evenodd" clip-rule="evenodd" d="M98.1642 26.8007C94.8365 26.8007 92.1388 29.4983 92.1388 32.8261V44.8769C92.1388 50.4232 96.635 54.9193 102.181 54.9193H104.19C109.736 54.9193 114.232 50.4232 114.232 44.8769V32.8261C114.232 29.4983 111.534 26.8007 108.207 26.8007H98.1642ZM102.181 32.8261C98.8534 32.8261 96.1558 35.5238 96.1558 38.8515V44.8769C96.1558 48.7593 99.3031 51.9066 103.185 51.9066C107.068 51.9066 110.215 48.7593 110.215 44.8769V38.8515C110.215 35.5238 107.517 32.8261 104.19 32.8261H102.181Z" fill="#CFD8E3"/>
<path d="M90.1303 35.2275C90.1303 34.5956 89.734 34.014 89.1106 33.911C88.7889 33.8579 88.4586 33.8303 88.1219 33.8303C84.7941 33.8303 82.0964 36.528 82.0964 39.8557C82.0964 43.1835 84.7941 45.8812 88.1219 45.8812C88.4586 45.8812 88.7889 45.8536 89.1106 45.8004C89.734 45.6975 90.1303 45.1159 90.1303 44.484V35.2275Z" fill="#CFD8E3"/>
<path d="M116.241 35.2275C116.241 34.5956 116.637 34.014 117.26 33.911C117.582 33.8579 117.912 33.8303 118.249 33.8303C121.577 33.8303 124.274 36.528 124.274 39.8557C124.274 43.1835 121.577 45.8812 118.249 45.8812C117.912 45.8812 117.582 45.8536 117.26 45.8004C116.637 45.6975 116.241 45.1159 116.241 44.484V35.2275Z" fill="#CFD8E3"/>
<path d="M86.1134 29.8134C86.1134 24.2671 90.6095 19.771 96.1558 19.771H110.215C115.761 19.771 120.257 24.2671 120.257 29.8134C120.257 30.368 119.808 30.8176 119.253 30.8176H117.245C116.69 30.8176 116.241 30.368 116.241 29.8134C116.241 26.4856 113.543 23.7879 110.215 23.7879H96.1558C92.828 23.7879 90.1303 26.4856 90.1303 29.8134C90.1303 30.368 89.6807 30.8176 89.1261 30.8176H87.1176C86.563 30.8176 86.1134 30.368 86.1134 29.8134Z" fill="#CFD8E3"/>
<path d="M92.1166 54.3918C92.8263 54.298 93.046 53.2869 92.5199 52.8015C91.523 51.8818 90.8326 50.7762 90.6678 49.5284C90.5773 48.8424 89.9478 48.3598 89.2618 48.4504L86.7778 48.7784C86.0918 48.869 85.6092 49.4985 85.6998 50.1844C85.9146 51.8112 86.5723 53.3052 87.5421 54.6258C87.6974 54.8372 87.9579 54.941 88.2179 54.9066L92.1166 54.3918Z" fill="#CFD8E3"/>
<path d="M94.1473 29.8134H110.215V37.8783C110.215 39.5251 108.88 40.86 107.233 40.86H94.1473V29.8134Z" fill="#CFD8E3"/>
<path fill-rule="evenodd" clip-rule="evenodd" d="M57.6722 8.85295C57.6758 8.83404 57.679 8.81509 57.6817 8.79611C57.8419 7.93175 58.2948 7.14977 58.9635 6.5841C59.6419 6.01029 60.4991 5.69575 61.3845 5.69568L61.3878 5.69568L69.6707 5.67098L69.6723 5.67098C70.6705 5.6714 71.6277 6.07139 72.3336 6.7831C72.8823 7.33636 73.2442 8.04277 73.3784 8.80269L73.3804 8.81401C73.4176 9.02853 73.4366 9.24726 73.4366 9.46798C73.4366 10.475 73.0399 11.4408 72.3336 12.1529C71.6274 12.8649 70.6695 13.265 69.6707 13.265L69.6662 13.265L63.5486 13.2897C63.2309 13.291 62.9284 13.4271 62.7153 13.6646L58.6666 18.1775C58.4425 18.3962 58.1565 18.5395 57.8479 18.5874C57.5312 18.6365 57.2073 18.5826 56.9231 18.4334C56.639 18.2843 56.4093 18.0476 56.2676 17.7579C56.1272 17.4708 56.0804 17.1464 56.1337 16.8309L57.6722 8.85295ZM62.8904 7.97388C62.8904 7.34477 62.3846 6.83478 61.7606 6.83478C61.1367 6.83478 60.6309 7.34477 60.6309 7.97388V8.35358H60.2543C59.6303 8.35358 59.1245 8.86357 59.1245 9.49268C59.1245 10.1218 59.6303 10.6318 60.2543 10.6318H60.6309V11.0115C60.6309 11.6406 61.1367 12.1506 61.7606 12.1506C62.3846 12.1506 62.8904 11.6406 62.8904 11.0115V10.6318H63.267C63.8909 10.6318 64.3968 10.1218 64.3968 9.49268C64.3968 8.86357 63.8909 8.35358 63.267 8.35358H62.8904V7.97388ZM67.7861 8.35358C67.1621 8.35358 66.6563 8.86357 66.6563 9.49268C66.6563 10.1218 67.1621 10.6318 67.7861 10.6318H70.7988C71.4227 10.6318 71.9285 10.1218 71.9285 9.49268C71.9285 8.86357 71.4227 8.35358 70.7988 8.35358H67.7861Z" fill="#61A200"/>
<path d="M73.9313 13.7638C74.0467 13.6475 74.1568 13.527 74.2617 13.4026L74.9202 16.8305C74.9736 17.1461 74.9268 17.4707 74.7863 17.7579C74.6446 18.0477 74.415 18.2843 74.1308 18.4334C73.8466 18.5826 73.5227 18.6365 73.206 18.5874C72.8978 18.5396 72.612 18.3965 72.3881 18.1782L70.0246 15.5327C71.4936 15.4456 72.8851 14.8187 73.9313 13.7638Z" fill="#61A200"/>
<path fill-rule="evenodd" clip-rule="evenodd" d="M53.0049 0C50.7691 0 48.9566 1.8514 48.9566 4.13521V20.6761C48.9566 22.9599 50.8633 24.8551 53.0991 24.8551H53.8523L52.088 30.1271L59.1594 24.8551H77.2008C79.4366 24.8551 81.3433 22.9599 81.3433 20.6761V4.13521C81.3433 1.8514 79.5308 0 77.2949 0H53.0049ZM69.6707 3.39278L61.3844 3.41748L61.3827 3.41748C59.9667 3.41799 58.5961 3.92116 57.5113 4.83875C56.4261 5.75672 55.6962 7.03078 55.4498 8.43728C55.4485 8.4451 55.4472 8.45292 55.446 8.46074L53.9135 16.4073L53.9099 16.427C53.7709 17.2222 53.8869 18.0414 54.2412 18.7656C54.5954 19.4898 55.1694 20.0813 55.8798 20.4542C56.5902 20.8271 57.3999 20.9619 58.1915 20.8391C58.9831 20.7163 59.7152 20.3423 60.2816 19.7714C60.2949 19.7579 60.3079 19.7441 60.3206 19.7299L64.0564 15.5659L67.0026 15.554L70.7317 19.7282C70.7449 19.7429 70.7584 19.7573 70.7724 19.7713C71.3387 20.3423 72.0709 20.7163 72.8624 20.8391C73.654 20.9619 74.4638 20.8271 75.1741 20.4542C75.8845 20.0813 76.4585 19.4898 76.8128 18.7656C77.167 18.0414 77.283 17.2222 77.144 16.427L77.1406 16.4081L75.6032 8.40478C75.3887 7.18843 74.8096 6.05769 73.9313 5.17217C72.8014 4.03285 71.2688 3.39278 69.6707 3.39278Z" fill="#61A200"/>
<path d="M71.1405 24.8551L78.2119 30.1271L76.4476 24.8551H71.1405Z" fill="#61A200"/>
</svg>
