<svg width="22" height="22" viewBox="0 0 22 22" fill="none" xmlns="http://www.w3.org/2000/svg">
<path d="M0.916748 18.334V12.834H6.41675" stroke="#CFD8E3" stroke-width="1.5" stroke-linecap="round" stroke-linejoin="round"/>
<path d="M21.0833 3.66602V9.16602H15.5833" stroke="#CFD8E3" stroke-width="1.5" stroke-linecap="round" stroke-linejoin="round"/>
<path d="M3.21758 8.24978C3.68248 6.936 4.47262 5.7614 5.51426 4.83558C6.5559 3.90977 7.81509 3.2629 9.17434 2.95535C10.5336 2.64781 11.9486 2.6896 13.2873 3.07683C14.6261 3.46406 15.8449 4.18411 16.8301 5.16978L21.0834 9.16645M0.916748 12.8331L5.17008 16.8298C6.15527 17.8155 7.37409 18.5355 8.71282 18.9227C10.0516 19.31 11.4666 19.3518 12.8258 19.0442C14.1851 18.7367 15.4443 18.0898 16.4859 17.164C17.5275 16.2382 18.3177 15.0636 18.7826 13.7498" stroke="#CFD8E3" stroke-width="1.5" stroke-linecap="round" stroke-linejoin="round"/>
</svg>
