<svg width="20" height="20" viewBox="0 0 20 20" fill="none" xmlns="http://www.w3.org/2000/svg">
<path d="M3.52571 15.3138C3.54519 15.396 3.58109 15.4734 3.63126 15.5413C3.68142 15.6092 3.7448 15.6663 3.8176 15.7091C3.89039 15.7518 3.97108 15.7795 4.05483 15.7902C4.13857 15.801 4.22363 15.7948 4.30489 15.7718C8.03061 14.7431 11.9654 14.7428 15.6913 15.7708C15.7725 15.7937 15.8576 15.7999 15.9413 15.7891C16.025 15.7783 16.1056 15.7507 16.1784 15.708C16.2512 15.6652 16.3146 15.6082 16.3647 15.5403C16.4149 15.4724 16.4508 15.3951 16.4703 15.313L18.4616 6.85073C18.4883 6.73744 18.4828 6.61896 18.4457 6.50863C18.4087 6.39831 18.3416 6.30051 18.252 6.22627C18.1623 6.15202 18.0538 6.10427 17.9385 6.0884C17.8232 6.07253 17.7057 6.08916 17.5994 6.13643L13.6475 7.89281C13.5048 7.95623 13.3436 7.96394 13.1955 7.91441C13.0474 7.86488 12.9232 7.76171 12.8473 7.62521L10.5464 3.48346C10.4923 3.38603 10.4131 3.30484 10.317 3.24832C10.2209 3.19179 10.1115 3.16199 10 3.16199C9.88857 3.16199 9.77914 3.19179 9.68308 3.24832C9.58701 3.30484 9.50781 3.38603 9.45368 3.48346L7.15272 7.62521C7.07688 7.76171 6.95269 7.86488 6.8046 7.91441C6.6565 7.96394 6.49523 7.95623 6.35253 7.89281L2.40008 6.13616C2.29375 6.08891 2.17634 6.07227 2.06107 6.08813C1.94579 6.10398 1.83724 6.15171 1.74762 6.22592C1.658 6.30013 1.59088 6.39789 1.55381 6.50818C1.51674 6.61848 1.51119 6.73693 1.5378 6.85021L3.52571 15.3138Z" stroke="white" stroke-width="1.5" stroke-linecap="round" stroke-linejoin="round"/>
<path d="M7.49998 12.6311C9.16207 12.4563 10.8379 12.4563 12.5 12.6311" stroke="white" stroke-width="1.5" stroke-linecap="round" stroke-linejoin="round"/>
</svg>
