<svg width="50" height="50" viewBox="0 0 50 50" fill="none" xmlns="http://www.w3.org/2000/svg">
<g clip-path="url(#clip0)">
<path d="M35.1691 25.7852V49.0067C35.1691 49.7304 34.4191 50.2108 33.7618 49.9081L25.8303 46.2528C25.3039 46.0097 24.6965 46.0097 24.1701 46.2528L16.2386 49.9081C15.5814 50.2108 14.8314 49.7304 14.8314 49.0067V25.7852H35.1691Z" fill="#4890E4"/>
<path d="M35.1691 25.7852V32.4355C32.3546 34.6035 28.8273 35.8926 25.0002 35.8926C21.1732 35.8926 17.6457 34.6035 14.8314 32.4355V25.7852H35.1691Z" fill="#2B6AB4"/>
<path d="M19.9045 25.7852V48.2187L17.8498 49.1648V25.7852H19.9045Z" fill="#F1EEE0"/>
<path d="M17.8498 25.7852H19.9045V35.0995C19.1975 34.8729 18.511 34.6005 17.8498 34.2851V25.7852Z" fill="#D8D4C9"/>
<path d="M32.1505 25.7852V49.1648L30.0958 48.2187V25.7852H32.1505Z" fill="#D8D4C9"/>
<path d="M32.1505 25.7852V34.2851C31.4893 34.6005 30.8028 34.8729 30.0958 35.0995V25.7852H32.1505Z" fill="#B5B1A4"/>
<path d="M25.0005 33.3608C34.2127 33.3608 41.6807 25.8928 41.6807 16.6806C41.6807 7.46835 34.2127 0.000366211 25.0005 0.000366211C15.7883 0.000366211 8.32028 7.46835 8.32028 16.6806C8.32028 25.8928 15.7883 33.3608 25.0005 33.3608Z" fill="#FFE059"/>
<path d="M25.0002 29.5379C32.1012 29.5379 37.8576 23.7814 37.8576 16.6805C37.8576 9.57956 32.1012 3.82312 25.0002 3.82312C17.8993 3.82312 12.1429 9.57956 12.1429 16.6805C12.1429 23.7814 17.8993 29.5379 25.0002 29.5379Z" fill="#FF993A"/>
<path d="M25.0003 27.7359C31.106 27.7359 36.0556 22.7862 36.0556 16.6805C36.0556 10.5748 31.106 5.62512 25.0003 5.62512C18.8946 5.62512 13.9449 10.5748 13.9449 16.6805C13.9449 22.7862 18.8946 27.7359 25.0003 27.7359Z" fill="#FFC751"/>
<path d="M24.5431 22.25L21.2902 23.6281C20.4769 23.9726 19.5892 23.3277 19.6656 22.4477L19.9711 18.9282C19.9985 18.6121 19.8965 18.2983 19.6885 18.0587L17.3727 15.3908C16.7937 14.7238 17.1328 13.6803 17.9932 13.4809L21.4349 12.6839C21.7441 12.6123 22.011 12.4183 22.1746 12.1465L23.9962 9.11951C24.4516 8.36267 25.5488 8.36267 26.0043 9.11951L27.8259 12.1465C27.9895 12.4183 28.2563 12.6123 28.5655 12.6839L32.0072 13.4809C32.8678 13.6803 33.2068 14.7237 32.6277 15.3908L30.3119 18.0587C30.1039 18.2983 30.0019 18.6121 30.0294 18.9282L30.3348 22.4477C30.4112 23.3277 29.5235 23.9726 28.7102 23.6281L25.4573 22.25C25.1652 22.1262 24.8353 22.1262 24.5431 22.25Z" fill="#FFF370"/>
<path d="M14.5213 27.12C15.3012 26.4701 15.4264 25.3209 14.8071 24.5166C13.1366 22.3473 12.1428 19.6301 12.1428 16.6805C12.1428 9.57897 17.8996 3.82313 25.0001 3.82313C26.6009 3.82313 28.133 4.1161 29.5465 4.65086C30.4039 4.97527 31.369 4.6242 31.8343 3.83436C31.8407 3.82332 31.8473 3.81239 31.8537 3.80135C32.4485 2.79208 31.9923 1.48642 30.8964 1.07226C29.0633 0.379295 27.076 0 25.0002 0C15.7884 0 8.31964 7.46774 8.31964 16.6806C8.31964 20.5033 9.60645 24.0251 11.7698 26.838C12.4278 27.6935 13.6627 27.8356 14.4919 27.1446L14.5213 27.12Z" fill="#FFF370"/>
</g>
<defs>
<clipPath id="clip0">
<rect width="50" height="50" fill="white"/>
</clipPath>
</defs>
</svg>
